<svg xmlns="http://www.w3.org/2000/svg" width="28.347" height="21.913" viewBox="0 0 28.347 21.913">
  <g id="グループ_167" data-name="グループ 167" transform="translate(-634.344 -519.133)">
    <path id="パス_53" data-name="パス 53" d="M662.181,521.507a1.339,1.339,0,0,0-.411-.4l-.01-.013.008.011a1.247,1.247,0,0,0-.616-.229l-9.455-1.008a2.291,2.291,0,0,0-2.186,1.326l-7.048,16.453a1.3,1.3,0,0,0-.066.94,1.652,1.652,0,0,0,1.481,1.47l.372.04q1.039.111,2.077.222l5.639.6a3.858,3.858,0,0,0,2.763-.252c.928-.635,1.334-1.684,1.9-3.069,2.12-5.194,3.6-8.867,5.813-14.021a2.189,2.189,0,0,0,.25-.91h0A1.908,1.908,0,0,0,662.181,521.507Zm-12.888,16.464a1.124,1.124,0,0,1-1.061.608.5.5,0,0,1-.433-.759,1.116,1.116,0,0,1,1.056-.607A.507.507,0,0,1,649.293,537.971Zm5.283-1.663-9.523-1.016,5.769-13.462,9.523,1.017Z" fill="#fff"/>
    <path id="パス_54" data-name="パス 54" d="M638.689,519.889l-.716-.756a11.612,11.612,0,0,0-3.3,11.17l1.012-.246a10.572,10.572,0,0,1,3-10.168Z" fill="#fff"/>
    <path id="パス_55" data-name="パス 55" d="M638.584,525.387a8.537,8.537,0,0,0-.108,4.441l1.012-.247a7.505,7.505,0,0,1,2.135-7.225l-.717-.757A8.544,8.544,0,0,0,638.584,525.387Z" fill="#fff"/>
    <path id="パス_56" data-name="パス 56" d="M643.347,526.794a4.44,4.44,0,0,1,1.211-1.97l-.716-.756a5.464,5.464,0,0,0-1.56,5.281l1.011-.246A4.444,4.444,0,0,1,643.347,526.794Z" fill="#fff"/>
  </g>
</svg>
