<svg xmlns="http://www.w3.org/2000/svg" width="30.215" height="22.761" viewBox="0 0 30.215 22.761">
  <g id="グループ_166" data-name="グループ 166" transform="translate(-631.254 -407.845)">
    <path id="パス_51" data-name="パス 51" d="M635.753,424.489h22.906a1.582,1.582,0,0,0,1.582-1.582V409.428a1.583,1.583,0,0,0-1.582-1.583H635.753a1.583,1.583,0,0,0-1.582,1.583v13.478A1.582,1.582,0,0,0,635.753,424.489Zm.837-14.517h21.231V421.99H636.59Z" transform="translate(-0.844)" fill="#fff"/>
    <path id="パス_52" data-name="パス 52" d="M661.234,436.325l-2.824-2.506a1.091,1.091,0,0,0-.718-.252H635.03a1.093,1.093,0,0,0-.718.252l-2.824,2.506a.652.652,0,0,0-.234.484v.873a.432.432,0,0,0,.476.368h29.263a.432.432,0,0,0,.476-.368v-.873A.652.652,0,0,0,661.234,436.325Zm-18.11.3.817-1.1h5.177l.816,1.1Z" transform="translate(0 -7.444)" fill="#fff"/>
  </g>
</svg>
