<svg xmlns="http://www.w3.org/2000/svg" width="122.895" height="131.303" viewBox="0 0 122.895 131.303"><g transform="translate(-355.948 -938.236)"><path d="M398.711,980.672h5.757l8.2,1.095h9.033l8.486,1.369,14.216,29.326,4.106,8.76-2.737,5.2-18.888,18.34-9.855,15.6-9.324,14.612-13.966,5.127-10.7-6.828-4.937-7.531,10.048-18.135s-.821-28.755,0-29.028S398.711,980.672,398.711,980.672Z" transform="translate(-3.944 -10.568)" fill="#c1e8e6"/><path d="M437.7,1001.906l-.821,10.676,1.642,3.011-.274,5.2-.274,9.307.821,13.961v4.927l15.056,2.737h9.581l13.14-5.2,5.2-11.5-1.916-7.665.547-6.3.547-5.2Z" transform="translate(-17.147 -13.49)" fill="#e2e2e2"/><path d="M430.9,962.657l-.274,9.307,3.285,3.832,1.369,7.939,5.749,9.033,5.475,1.916.274-25.458Z" transform="translate(-15.822 -5.174)" fill="#bebcbc"/><path d="M466.356,1054.079l1.163-14.228-.193-4.654s-.387-9.035-.381-11.224l.021-7.939-.61-2.465-2.051-.553-.3,4.958,1.3,3.8-.426,6.3s.808,4.929.8,6.3l-.012,4.38-.642,10.127-.452,5.2Z" transform="translate(-15.718 -17.421)" fill="#dbd8d8"/><path d="M475.9,1051.932l.856-13.123-.193-4.654s-.387-9.035-.381-11.224l.021-7.939-.61-2.465-2.051-.553-.834,4.926,1.837,3.837-.426,6.3s.808,4.929.8,6.3l-.012,4.38-.642,10.127-.727,4.889Z" transform="translate(-20.714 -17.2)" fill="#dbd8d8"/><path d="M449.381,964.741l.821,34.765,11.771,2.738,3.833,7.117,7.391-3.558,9.581-1.095,5.749-6.57s1.916-8.76,1.916-9.581-1.095-12.045-1.095-12.045Z" transform="translate(-19.796 -5.616)" fill="#c6c6c6"/><path d="M395.252,956.531l11.5-.821.548,6.843-.548,6.844,2.464,6.57s-1.095,5.2-1.095,6.022-.273,8.212-.273,8.212-1.1,6.3-1.1,7.939v15.6l1.369,3.833-.273,7.391,1.642,12.318-9.308,1.916-15.055-3.285,1.095-75.553Z" transform="translate(-6.182 -3.702)" fill="#c3c3c3"/><path d="M385.819,963.784l3.558,11.5,1.916,4.38s3.285,11.224,3.285,12.318-.273,13.414-.547,15.6.821,11.5.821,11.5l2.737,18.341,5.2.274,8.76-3.285-1.642-12.318-1.916-16.972-2.19-12.044-4.106-10.95-3.833-5.474-2.737-10.129-3.011-6.3Z" transform="translate(-6.329 -4.659)" fill="#d7f4f3"/><path d="M386.51,965.463l.821,11.5-1.095,6.3,1.095,7.665,1.369,18.614-3.011,19.709v12.045l-18.341.821-4.106-29.017,2.464-22.994V978.329l2.737-13.413,17.246-9.686" transform="translate(-1.545 -3.6)" fill="#e2e2e2" stroke="rgba(0,0,0,0)" stroke-width="1"/><path d="M392.071,963.2l1.642,10.676,3.558,7.939,3.558,10.949-3.011,22.721,3.832,11.5,5.2,12.592,1.368-4.654s-.547-11.771-1.642-12.318-4.38-14.782-4.38-16.15,1.369-11.5,1.369-11.5l-3.833-14.782-4.654-10.676-1.368-12.045Z" transform="translate(-7.654 -4.07)" fill="#caedeb"/><path d="M438.007,948.121l-9.268,1.985-.545,5.212.817,6.949,8.451,3.971,3,1.241s2.182,4.467,2.726,5.459,11.45,1.49,11.45,1.49l6.815,9.43,15.265,1.738,4.635-3.971s7.632-9.182,8.723-8.934,3.543-5.708,3.543-5.708l-2.725-8.19-.545-5.459-2.726-6.2-3.816-1.737-12,1.241-4.361-4.715-10.086-1.49-8.45,3.971-6.542-.5Z" transform="translate(-15.307 -0.464)" fill="#20723c"/><g transform="translate(394.317 1039.271)"><g transform="translate(1.91 1.643)"><path d="M407.055,1078.178l1.812,4.026L413.7,1081l2.013-1.006,4.026-7.448.6-4.026h-3.824l-7.045,4.629Z" transform="translate(-407.055 -1068.517)" fill="#f7931e"/><path d="M413.7,1077.172l6.642-8.655h-3.623l-7.246,4.629-2.415,5.032Z" transform="translate(-407.055 -1068.517)" fill="#db7b1b"/><path d="M407.055,1080.18l2.818-2.214,3.824,1.208-.6,3.824-4.227,1.208Z" transform="translate(-407.055 -1070.519)" fill="#f7931e"/></g><path d="M413.174,1071.195l-.932,1.4-.185,1.494.057,1.464,4.022-.186.541-2.089-.51-1.163-.646-1.269Z" transform="translate(-406.205 -1067.368)" fill="#1457c3"/><path d="M413.04,1067.59l-.852,2.251,2.068,1.521,2.312-.973.182-2.737Z" transform="translate(-406.233 -1066.678)" fill="#e8dfb8"/><path d="M412.806,1067.1l.973,1.46.852-.243.912.608,1.217-.182.608-.608-.547-1.1-.669-.608h-.73l-1.46.061Z" transform="translate(-406.364 -1066.433)" fill="#42210b"/><path d="M418.054,1075.28l5.353,2.393.243-.527-5.313-2.068Z" transform="translate(-407.476 -1068.264)" fill="#e6e6e6"/><path d="M410.126,1074.452l-5.494,2.049.2.547,5.237-2.252Z" transform="translate(-404.632 -1068.132)" fill="#e6e6e6"/><path d="M414.2,1069.829" transform="translate(-406.658 -1067.152)" fill="#e8dfb8"/><path d="M413.666,1069.769l.223.35.255-.127.032-.319-.351-.223Z" transform="translate(-406.546 -1067.072)" fill="#42210b"/><path d="M415.044,1069.975l.223.35.255-.127.032-.319-.35-.223Z" transform="translate(-406.838 -1067.116)" fill="#42210b"/></g><g transform="translate(407.547 1002.102)"><g transform="translate(1.33 1.144)"><path d="M423.107,1027.452l1.262,2.8,3.364-.841,1.4-.7,2.8-5.187.421-2.8H429.7l-4.906,3.224Z" transform="translate(-423.107 -1020.724)" fill="#f7931e"/><path d="M427.733,1026.751l4.626-6.028h-2.523l-5.046,3.224-1.682,3.5Z" transform="translate(-423.107 -1020.724)" fill="#db7b1b"/><path d="M423.107,1028.847l1.962-1.542,2.663.841-.421,2.663-2.944.841Z" transform="translate(-423.107 -1022.118)" fill="#f7931e"/></g><path d="M427.369,1022.589l-.649.976-.129,1.04.04,1.02,2.8-.13.377-1.455-.355-.81-.45-.884Z" transform="translate(-422.515 -1019.924)" fill="#e83015"/><path d="M427.275,1020.079l-.593,1.568,1.44,1.059,1.61-.678.127-1.906Z" transform="translate(-422.534 -1019.443)" fill="#e8dfb8"/><path d="M427.112,1019.738l.678,1.017.593-.169.635.424.847-.127.424-.424-.381-.763-.466-.424h-.508l-1.017.042Z" transform="translate(-422.626 -1019.272)" fill="#42210b"/><path d="M430.767,1025.434l3.728,1.666.169-.367-3.7-1.44Z" transform="translate(-423.4 -1020.548)" fill="#e6e6e6"/><path d="M425.246,1024.858l-3.826,1.427.137.38,3.648-1.568Z" transform="translate(-421.419 -1020.456)" fill="#e6e6e6"/><path d="M428.08,1021.638" transform="translate(-422.831 -1019.774)" fill="#e8dfb8"/><path d="M427.711,1021.6l.155.244.177-.089.022-.222-.244-.155Z" transform="translate(-422.753 -1019.718)" fill="#42210b"/><path d="M428.671,1021.739l.155.244.178-.089.022-.222-.244-.155Z" transform="translate(-422.956 -1019.748)" fill="#42210b"/></g><g transform="translate(405.183 971.366)"><g transform="translate(0.531 0.89)"><path d="M430.306,1025.959l-.982,2.181-2.618-.654-1.091-.545-2.181-4.036-.327-2.181h2.072l3.818,2.509Z" transform="translate(-423.107 -1020.724)" fill="#f7931e"/><path d="M426.707,1025.414l-3.6-4.69h1.963l3.927,2.509,1.309,2.727Z" transform="translate(-423.107 -1020.724)" fill="#db7b1b"/><path d="M426.707,1028.5l-1.527-1.2-2.072.654.327,2.072,2.291.654Z" transform="translate(-419.508 -1023.269)" fill="#f7931e"/></g><path d="M428.49,1022.535l.5.759.1.809-.031.793-2.18-.1-.293-1.132.276-.63.35-.688Z" transform="translate(-423.501 -1020.461)" fill="#177de0"/><path d="M428.693,1020.079l.461,1.22-1.121.824-1.253-.527-.1-1.483Z" transform="translate(-423.616 -1019.584)" fill="#e8dfb8"/><path d="M429.584,1019.635l-.527.791-.461-.132-.494.33-.659-.1-.33-.33.3-.593.363-.33h.4l.791.033Z" transform="translate(-424.31 -1019.272)" fill="#42210b"/><path d="M433.8,1025.4l-2.9,1.3-.132-.286,2.879-1.121Z" transform="translate(-430.767 -1021.601)" fill="#e6e6e6"/><path d="M421.419,1024.858l2.977,1.11-.106.3-2.838-1.22Z" transform="translate(-415.631 -1021.433)" fill="#e6e6e6"/><path d="M428.08,1021.638" transform="translate(-423.399 -1020.187)" fill="#e8dfb8"/><path d="M427.987,1021.547l-.121.19-.138-.069-.017-.173.19-.121Z" transform="translate(-423.08 -1020.085)" fill="#42210b"/><path d="M428.947,1021.69l-.121.19-.138-.069-.017-.173.19-.121Z" transform="translate(-424.629 -1020.141)" fill="#42210b"/></g><path d="M442.561,1010.589l-.821,14.509.2,4.653s.411,9.034.411,11.224v7.939l.616,2.464,1.92.369-.894-3.974.894-4.521-.484-6.382s-.821-4.927-.821-6.3v-4.38l.616-10.128,1.026-4.38Z" transform="translate(-18.177 -15.33)" fill="#dbd8d8"/><path d="M407.81,1047.692l3.832-3.285,5.749-.821-.548,2.464,3.011,1.095,1.095,1.642.821,2.464-5.2,3.833.273,4.38-6.57-.821a50.84,50.84,0,0,0-6.023,2.738h-5.474l-1.642-1.917-.548-7.665,2.19-1.369,5.2,2.19,3.011.547.273-3.558Z" transform="translate(-8.61 -22.321)" fill="#ddf2f0"/><path d="M379.075,975.856l-.9,24.6.225,7.89s.449,15.315.449,19.027v13.459l1.013,5.1h1.906l-.39-6.15-.733-8.7.448-10.674s-.9-8.354-.9-10.674v-7.426l.673-17.171,1.123-7.426Z" transform="translate(-4.71 -7.971)" fill="#dbd8d8"/><path d="M389.291,1044.646l.221-25.128-.221-8.6s-.44-16.692-.437-20.738l.008-14.668-.671-4.552-2.245-1.013.658,8.459.456,7.726-.456,11.634s.894,9.105.892,11.634l0,8.093-.684,18.714.684,8.438Z" transform="translate(-8.72 -6.719)" fill="#dbd8d8"/><path d="M451.473,1052.578l.75-13.741-.121-4.656s-.247-9.04-.207-11.229l.143-7.937-.571-2.475-2.043-.585.342,4.959-.654,2.793.654,7.314s.732,4.942.707,6.31l-.08,4.379-.8,10.116-.389,4.4Z" transform="translate(-22.104 -15.619)" fill="#dbd8d8"/><path d="M456.107,1013.02l-.821,14.508.2,4.654s.411,9.033.411,11.223l.653,10.087,2.077.443-.155-4.3-.933-4.04.411-6.3s-.821-4.927-.821-6.3v-4.38l.616-10.128,1.026-4.38Z" transform="translate(-23.678 -15.845)" fill="#dbd8d8"/><path d="M436.309,994.149l4.927-3.011,9.307,8.487s4.654,1.642,5.749,1.095,6.843,1.369,6.843,1.369,1.1,4.106.821,5.2-8.212,6.022-9.033,6.3a31.677,31.677,0,0,1-4.653.273l-9.581-5.475-.548-6.843-4.653-.548Z" transform="translate(-16.853 -11.209)" fill="#137133"/><path d="M477.612,1012.358l4.654-2.464,4.927,4.38s3.558,1.642,3.558,2.464-8.212,5.2-8.212,5.2l-4.38.548-7.939-3.559,1.642-3.832Z" transform="translate(-24.212 -15.183)" fill="#0f771b"/><path d="M360.875,1002.653l10.676-1.1,4.106,6.57,3.285,4.654v2.19l-7.117,3.832-4.654-.547-7.391-3.832-3.832-1.642,2.19-4.106,3.832-.274Z" transform="translate(0 -13.417)" fill="#20723c"/><path d="M387.334,941.87l-15.2-1.982-5,3.964-4.055,8.782-7.132,4.433V969.8l13.817,5.128,17.569-9.6s2.973-7.6,4.294-7.6,12.224-2.643,12.224-2.643l-2.643-11.233-6.277-5.616Z" transform="translate(0)" fill="#137133"/><path d="M461.745,974.828l6.815,9.43L483.825,986l4.635-3.971s7.632-9.182,8.723-8.934,3.543-5.708,3.543-5.708L498,959.192l-.545-5.459-2.726-6.2-3.816-1.737-12,1.241-4.361-4.715-2.958,9.989,5.28,12.764" transform="translate(-22.416 -0.865)" fill="#166732" stroke="rgba(0,0,0,0)" stroke-width="1"/><path d="M391.686,941.87l-15.2-1.982,12.475,10.075,2.723,15.364s2.973-7.6,4.294-7.6,12.224-2.643,12.224-2.643l-2.643-11.233-6.277-5.616Z" transform="translate(-4.352)" fill="#166732"/></g></svg>