<svg xmlns="http://www.w3.org/2000/svg" width="242.275" height="240.077" viewBox="0 0 242.275 240.077"><g transform="translate(-19.934 -1174.607)"><path d="M27.662-32.308,23.523-44.542q-.46-1.165-.981-2.744T21.5-50.7q-.46,1.87-.981,3.465t-.981,2.759L15.429-32.308ZM44.127-15.231H36.094a3.506,3.506,0,0,1-2.177-.629,3.993,3.993,0,0,1-1.257-1.61l-2.637-7.788H13.038L10.4-17.469A3.726,3.726,0,0,1,9.19-15.921a3.38,3.38,0,0,1-2.162.69H-1.066L16.226-59.9H26.835Zm27.318-7.818A9.15,9.15,0,0,0,74.8-23.57a5.306,5.306,0,0,0,2.039-1.349,4.526,4.526,0,0,0,1.012-1.87,8.234,8.234,0,0,0,.276-2.116,7.061,7.061,0,0,0-.322-2.208,3.651,3.651,0,0,0-1.1-1.656,5.393,5.393,0,0,0-2.07-1.042,12.06,12.06,0,0,0-3.25-.368H64.148v11.13Zm-7.3-29.1v11.038h5.4a17.782,17.782,0,0,0,3.1-.245,6.438,6.438,0,0,0,2.345-.858A3.941,3.941,0,0,0,76.458-43.9a6.325,6.325,0,0,0,.506-2.7,7.59,7.59,0,0,0-.4-2.652,3.8,3.8,0,0,0-1.226-1.7,5.149,5.149,0,0,0-2.1-.92,14.42,14.42,0,0,0-3.02-.276ZM70.219-59.9a31.246,31.246,0,0,1,7.88.858,15.011,15.011,0,0,1,5.3,2.422,9.179,9.179,0,0,1,2.989,3.8,12.846,12.846,0,0,1,.935,5,9.8,9.8,0,0,1-.429,2.9,8.341,8.341,0,0,1-1.349,2.606A10.513,10.513,0,0,1,83.188-40.1a14.824,14.824,0,0,1-3.465,1.748,12.36,12.36,0,0,1,6.531,3.465,9,9,0,0,1,2.116,6.193,12.775,12.775,0,0,1-1.1,5.3,12.147,12.147,0,0,1-3.235,4.277,15.336,15.336,0,0,1-5.258,2.851,22.867,22.867,0,0,1-7.144,1.027H53.785V-59.9Zm74.6,22.32a24.008,24.008,0,0,1-1.671,9.014,21.726,21.726,0,0,1-4.706,7.251,21.582,21.582,0,0,1-7.312,4.829,24.867,24.867,0,0,1-9.489,1.748,24.983,24.983,0,0,1-9.5-1.748,21.714,21.714,0,0,1-7.343-4.829,21.608,21.608,0,0,1-4.722-7.251A24.008,24.008,0,0,1,98.4-37.582a24.008,24.008,0,0,1,1.671-9.014,21.442,21.442,0,0,1,4.722-7.236,21.83,21.83,0,0,1,7.343-4.814,24.983,24.983,0,0,1,9.5-1.748,24.677,24.677,0,0,1,9.489,1.763,21.887,21.887,0,0,1,7.312,4.829,21.558,21.558,0,0,1,4.706,7.236A23.925,23.925,0,0,1,144.814-37.582Zm-10.608,0a19.314,19.314,0,0,0-.858-5.963,12.629,12.629,0,0,0-2.468-4.492,10.644,10.644,0,0,0-3.94-2.821,13.559,13.559,0,0,0-5.3-.981,13.758,13.758,0,0,0-5.35.981,10.617,10.617,0,0,0-3.955,2.821,12.63,12.63,0,0,0-2.468,4.492A19.314,19.314,0,0,0,109-37.582a19.423,19.423,0,0,0,.858,5.994A12.63,12.63,0,0,0,112.33-27.1a10.469,10.469,0,0,0,3.955,2.805,13.951,13.951,0,0,0,5.35.966,13.749,13.749,0,0,0,5.3-.966,10.494,10.494,0,0,0,3.94-2.805,12.629,12.629,0,0,0,2.468-4.492A19.423,19.423,0,0,0,134.206-37.582Zm41.483,14.165a9.531,9.531,0,0,0,3.725-.69,7.535,7.535,0,0,0,2.775-1.978,8.741,8.741,0,0,0,1.732-3.143,13.723,13.723,0,0,0,.6-4.216V-59.9h10.363v26.46a20.664,20.664,0,0,1-1.334,7.542,16.919,16.919,0,0,1-3.817,5.917,17.225,17.225,0,0,1-6.04,3.863,21.979,21.979,0,0,1-8,1.38,22.07,22.07,0,0,1-8.033-1.38,17.225,17.225,0,0,1-6.04-3.863,16.741,16.741,0,0,1-3.8-5.917,20.878,20.878,0,0,1-1.318-7.542V-59.9h10.363v26.429a13.723,13.723,0,0,0,.6,4.216,8.9,8.9,0,0,0,1.732,3.158,7.456,7.456,0,0,0,2.775,1.993A9.531,9.531,0,0,0,175.689-23.417Zm65.52-28.269H228.639v36.455H218.276V-51.686H205.705V-59.9h35.5Z" transform="translate(21 1235)" fill="#eae5d6"/><g transform="translate(26.47 1264.637)"><g transform="translate(81.676 0) rotate(7)"><path d="M0,2.108,13.39,36.494,54.114,37.95,59.034,0Z" transform="translate(12.65 103.817)" fill="#d09c60"/><path d="M59.034,18.272,63.953.7,33.734,0,0,20.381Z" transform="translate(12.65 85.545)" fill="#9a672c"/><path d="M11.947,0V32.328L2.108,55.52,0,18.272Z" transform="translate(64.656 86.248)" fill="#ba884e"/><path d="M0,18.272l7.028,9.839,14.758-24.6L11.947,0" transform="translate(64.656 86.248)" fill="#d09c60"/><path d="M12.65,20.381H0L46.384,0Z" transform="translate(0 85.545)" fill="#d09c60"/><g transform="translate(21.835 27.744) rotate(13)"><path d="M7.769,3.149,0,13.891,7.558,22.91l16.061,1.156,8.862-11.605L28.038,1.916,20.1,0,16.315,4.033Z" transform="translate(0 1.249)" fill="#db4926"/><path d="M8.731,2.852,2.747,0,4.619,3.9,0,6.395l6.587.07L9.08,11.084,9.739,5.66,16.332,6.9,12.472,3.211,16.2.071Z" transform="translate(6.235 0)" fill="#20723c"/></g><g transform="translate(47.817 0)"><g transform="translate(1.458)"><path d="M25.071,0,16.664,5.312s-.751,4.451-.751,4.882-7.656,7.321-7.656,7.321L0,25.125,7.056,36.467l19.066-2.154,5.7-11.055,2.7-9.476,5.254-4.019-2.7-8.758Z" transform="translate(0)" fill="#cb3204"/></g><g transform="translate(0 0.384)"><path d="M9.4,32.982,0,24.794l8.19-8.425C11.2,13.9,15.544,10.267,16.4,9.4c.083-.971.375-3.879.411-4.25l.046-.454L25.433,0,36.826,1.244l2.453,7.2-4.846,5.192-2.4,7.889-4.954,9.614ZM2.617,24.689l7.412,6.455,15.84-1.656,4.471-8.676,2.439-8.055L37.2,8.022,35.441,2.867l-9.617-1.05L18.6,5.77c-.158,1.585-.371,3.761-.382,3.987-.02.465-.033.746-8.788,7.918ZM16.376,9.675v0Z" fill="#fff"/></g><g transform="translate(14.354 12.54)"><path d="M2.1,18.853,0,.189,1.832,0l2.1,18.664Z" transform="translate(0)" fill="#fff"/></g><g transform="translate(15.091 11.77)"><path d="M17.415,5.031,0,1.729.358,0,17.773,3.3Z" transform="translate(0)" fill="#fff"/></g><g transform="translate(24.316 0.302)"><path d="M9.758,12.462,0,1.12,1.424,0l9.758,11.342Z" transform="translate(0 0)" fill="#fff"/></g><g transform="translate(1.158 21.958)"><path d="M.3,4.037,0,2.3,14.562,0l.3,1.739Z" fill="#fff"/></g></g><g transform="matrix(0.978, -0.208, 0.208, 0.978, 5.721, 56.27)"><path d="M7.472,0l5.823,1.657L23.473,25.3l6.212,7.862L26.64,34.971,15.886,29.925,0,7.856l2.273-5.97Z" transform="translate(7.961 14.502)" fill="#db6c26"/><path d="M9.844,15.086l1.915-2.542-3.07-2.321,1.927-2.49L6.5,5.926l1.729-1.7L3.879,2.216,5.1,0,0,.569,4.634,6.21l2.984,6.034Z" transform="translate(2.316)" fill="#20723c"/><path d="M11.361,13.3,9.316,11.219,7.463,6.683,1.806,0,0,3l2.562,1L3.684,7.9l1.945-.783.611,3.387,1.609,1.063Z" transform="translate(0 1.686)" fill="#20723c"/><path d="M5.3.767,2.274,2.3,0,5.1l3.314-1.94L7.762,1.75,6.81,0Z" transform="translate(17.24 22.459)" fill="#fff"/><path d="M4.1.594,1.761,1.782,0,3.948l2.566-1.5,3.445-1.09L5.274,0Z" transform="translate(21.02 27.131)" fill="#fff"/></g><g transform="translate(44.839 38.877)"><g transform="translate(26.615 0)"><path d="M0,1.474,2.312,0l.544.524L3.322,2.3l-2.094.18Z" transform="translate(5.19)" fill="#e2a257"/><path d="M0,0H2.742l.177.735L2.357,2.483.495,1.509Z" transform="translate(6.469 6.836)" fill="#e2a257"/><path d="M0,1.474,2.312,0l.544.524L3.322,2.3l-2.094.18Z" transform="translate(10.347 3.565)" fill="#e2a257"/><path d="M0,.607,1.733,0,3.156.639,3.9,2.33l-1.911.277L.478,1.919Z" transform="translate(9.622 0.05)" fill="#e2a257"/><path d="M.19,0,2.006.273l.96,1.23L2.838,3.346,1.019,2.7,0,1.383Z" transform="translate(20.491 8.2)" fill="#e2a257"/><path d="M3.235,2.783,1.4,2.86.224,1.834,0,0,1.909.29l1.25,1.1Z" transform="translate(15.499 4.137)" fill="#e2a257"/><path d="M4.1.7,3.16,2.277l-1.5.423L0,1.884,1.287.445,2.89,0Z" transform="translate(0 3.183)" fill="#e2a257"/><path d="M0,.515,1.684,0,3.5,1.671,3.287,2.733l-1.8-.37L.2,1.681Z" transform="translate(14.983 1.112)" fill="#e2a257"/><path d="M0,.515,1.684,0,3.5,1.671,3.287,2.733l-1.8-.37L.2,1.681Z" transform="translate(1.759 6.306)" fill="#e2a257"/><path d="M3.916,1.051,2.6,2.227.255,1.476,0,.423,1.79,0,3.241.079Z" transform="translate(15.381 8.294)" fill="#e2a257"/><path d="M.113,0,2.141.608,2.1,2.232,1.277,3.558,0,2.644Z" transform="translate(20.02 3.66)" fill="#e2a257"/><path d="M3.723,1.184l-1.384,1.6-1.465-.7L0,.791,1.357,0Z" transform="translate(11.044 6.731)" fill="#e2a257"/><path d="M3.737.78l-1.1,1.807L1.074,2.135,0,1,1.208,0Z" transform="translate(5.665 3.182)" fill="#e2a257"/></g><g transform="translate(38.141 15.636)"><path d="M0,.552,2.152,0l.287.541L2.35,2.026.692,1.636Z" transform="translate(4.189)" fill="#e2a257"/><path d="M0,0,2.111.692l-.049.61-.874,1.2L0,1.286Z" transform="translate(3.821 5.003)" fill="#e2a257"/><path d="M0,.552,2.152,0l.287.541L2.35,2.026.692,1.636Z" transform="translate(7.26 4.047)" fill="#e2a257"/><path d="M0,.03,1.488,0l.935.851.149,1.49L1.03,2.073.037,1.161Z" transform="translate(7.807 1.011)" fill="#e2a257"/><path d="M.5,0,1.825.668l.429,1.189L1.69,3.244.452,2.287,0,1.017Z" transform="translate(13.924 9.639)" fill="#e2a257"/><path d="M2.079,2.959l-1.432-.4L0,1.469.291,0l1.4.7.685,1.161Z" transform="translate(11.163 5.203)" fill="#e2a257"/><path d="M3.455.905l-1.121.978L1.07,1.83,0,.783,1.354,0,2.7.062Z" transform="translate(0 0.471)" fill="#e2a257"/><path d="M.138,0,1.565.029l.976,1.744-.432.765L.816,1.8,0,.949Z" transform="translate(11.553 3.141)" fill="#e2a257"/><path d="M.138,0,1.565.029l.976,1.744-.432.765L.816,1.8,0,.949Z" transform="translate(0.774 3.048)" fill="#e2a257"/><path d="M2.926,1.472,1.62,2.046,0,.875.07,0,1.554.126l1.1.427Z" transform="translate(10.138 8.7)" fill="#e2a257"/><path d="M.754,0,2.162.98,1.721,2.22l-.968.813L0,2.007Z" transform="translate(14.389 6.005)" fill="#e2a257"/><path d="M2.768,1.509,1.3,2.393l-.951-.91L0,.267,1.244,0Z" transform="translate(7.17 6.419)" fill="#e2a257"/><path d="M2.934,1.239,1.629,2.352.541,1.61,0,.468,1.184,0Z" transform="translate(3.871 2.291)" fill="#e2a257"/></g><path d="M10.477,0,2.25,4.1,0,12.778,1.367,42.751l2.241.257-1.6-6.241.151-24.761L3.888,5.647Z" transform="translate(15.896 6.65)" fill="#69a046"/><path d="M24.7,1.744,16.792,0,6.124,6.05,0,31.9l3.342.653,1.1-6.23L7.927,6.01,17.083,1.8Z" transform="translate(13.247 16.666)" fill="#69a046"/><path d="M3.982,24.213l1.391-11.8L18.188,2.983,25.3,6.743,18.566,0,13.509,2.18,2.769,9.11,0,23.988Z" transform="translate(15.167 25.053)" fill="#69a046"/><path d="M11.322,32.142,14.171,21.27,7.892,2.447,0,3.211,8.446,0l4.126,3.249,5.683,18.228L15.534,32.758Z" transform="translate(0 16.367)" fill="#69a046"/></g></g><g transform="matrix(0.995, -0.105, 0.105, 0.995, 0, 59.017)"><g transform="translate(0 0)"><path d="M36.557,4.745,23.913,0,0,9.926l8.8,21.39L14.144,56.5,33.707,44.87l12.557.691Z" transform="translate(0 1.304)" fill="#cecbb9"/><path d="M0,6.406,9.288,46.447l13.1-7.518L38.9,40.664,29.552,17.227,27.951,2.87,11.1,0Z" transform="translate(38.474 0)" fill="#cecbb9"/></g><path d="M0,5.143,6.15,1.824H19.8L23.417,0" transform="translate(9.652 12.136)" fill="none" stroke="#e0dbc5" stroke-linecap="round" stroke-linejoin="round" stroke-width="2"/><path d="M0,4.92,4.541,2.149H18.548L22.855,0" transform="translate(11.578 16.972)" fill="none" stroke="#e0dbc5" stroke-linecap="round" stroke-linejoin="round" stroke-width="2"/><path d="M0,2.771,5.2,0h7.366" transform="translate(12.81 23.432)" fill="none" stroke="#e0dbc5" stroke-linecap="round" stroke-linejoin="round" stroke-width="2"/></g></g><g transform="translate(31.2 1223.515)"><g transform="matrix(0.966, -0.259, 0.259, 0.966, 8.358, 20.322)"><text transform="translate(1.496 42.232)" fill="#010a10" font-size="11" font-family="HiraginoSans-W6, Hiragino Sans"><tspan x="0" y="0">年に</tspan></text><text transform="translate(0 57.936)" fill="#010a10" font-size="11" font-family="HiraginoSans-W6, Hiragino Sans"><tspan x="0" y="0">お届けします！</tspan></text><text transform="translate(27.398 45.832)" fill="#f2dd3c" font-size="45" font-family="Lato-Black, Lato" font-weight="800"><tspan x="0" y="0">4</tspan></text><text transform="translate(26.34 44)" fill="none" stroke="#010a10" stroke-linecap="round" stroke-linejoin="round" stroke-width="1" font-size="45" font-family="Lato-Black, Lato" font-weight="800"><tspan x="0" y="0">4</tspan></text><text transform="translate(56.085 40.493)" fill="#010a10" font-size="14" font-family="HiraginoSans-W6, Hiragino Sans"><tspan x="0" y="0">回</tspan></text></g><path d="M-.621,10.023l19.16,14.939" transform="translate(0.621 57.664)" fill="none" stroke="#aaa" stroke-linecap="round" stroke-width="2" stroke-dasharray="0.5 4"/><line x1="2.991" y2="23.182" transform="translate(105.157 35.878)" fill="none" stroke="#aaa" stroke-linecap="round" stroke-width="2" stroke-dasharray="0.5 4"/></g></g></svg>