<svg xmlns="http://www.w3.org/2000/svg" width="160.369" height="167.296" viewBox="0 0 160.369 167.296"><g transform="translate(393.611 -1351)"><g transform="translate(-393.611 1351)"><path d="M1039.7,183.691l11.1,12.881-4.236,3.139-9.591-11.024" transform="translate(-895.391 -178.235)" fill="#e83015"/><path d="M1042.167,197.137l9.824,12.069-5.687,4.012-8.662-11.78" transform="translate(-895.699 -184.483)" fill="#e83015"/><path d="M1043.448,212.6l12.728,17.145-8.183,5.117-10.118-15.843" transform="translate(-895.807 -191.666)" fill="#e83015"/><path d="M911.662,456.957l-2.436,5.458,3.4,7.819,4.419.227.906-2.04.567,1.02,1.473-.793-1.473-7.025,3.091-5.672-.145-2.713-8.385-.68Z" transform="translate(-836.03 -303.164)" fill="#f0d4ae"/><path d="M815.719,319.354l-1.675,8.3L781.58,361.857l5.9,4.127,28.4-36.683,1.964-10.209Z" transform="translate(-776.719 -241.15)" fill="#e83015"/><path d="M1000.555,447.479l1.1,8.282,3.221,2.643,9.212-2.246,6.918-2.686-.634-2.618-4.452.333-7.367-1.9.055-7.161Z" transform="translate(-878.466 -298.316)" fill="#f0d4ae"/><path d="M926.716,222.441l-3.952-2.488,1.464,3.22-8.2,3.22-2.635,5.123-1.61,5.855,2.781-2.2-3.952,8.2.439,5.416,1.317-5.123.146,4.1L909,255.523l.586,8.783,1.61-2.781,4.1,11.271,4.1,9.954,7.758,2.049,2.049,6.148,7.758-9.661,6.294,1.171.732-8.344,5.27,4.391,2.2-10.979,2.342.586-.878-15.956,2.781-.732-3.074-13.174,1.9,2.049-6-13.613,2.049,1.464-6-6-4.977-1.757,1.9-1.9-6.148,2.049,1.9-4.538-4.977,4.977-6.587-3.513Z" transform="translate(-835.927 -193.248)" fill="#d8d488"/><g transform="translate(55.676 57.1)"><path d="M956.1,387.273l11.459,36.557,11.778,1.071,13.919-7.495,12.313-2.677-4.747-9.573-15.99-18.968Z" transform="translate(-913.484 -329.426)" fill="#fff"/><path d="M892.461,386.825l-11.142,16.422L876.5,424.661l9.765.652,8.972,5.237,15.435-1.555,19.363-.051,4.818-21.414-9.6-18.016" transform="translate(-876.5 -329.722)" fill="#fff"/><path d="M903.873,337.562l5.955-10.888-8.377-44.28,3.1-.292,51.036-1.942-3.037,46.514,7.814,12.442" transform="translate(-888.093 -280.16)" fill="#fff"/></g><path d="M951.5,288.077l2.141,6.424,3.657,5.7,1.7-.886,1.606-5.889.186-5.841Z" transform="translate(-855.673 -226.512)" fill="#f0d4ae"/><path d="M947.832,287.088l4.853,10.552-.628,2.513L940.5,281.5Z" transform="translate(-850.562 -223.682)" fill="#f2f2f2"/><path d="M915.109,363.566l25.963.78,19.886-3.209.167,2.181-21.005,3.369-28.106-.585Z" transform="translate(-837.325 -260.686)" fill="#c1272d"/><path d="M872.146,283.959l-19.727,3.288-9.636-3.747L838.5,299.56l3.784,7.234L839.5,342.8,855.1,358.449l25.394-31.014-2.342-17.273Z" transform="translate(-803.167 -224.612)" fill="#fff"/><path d="M958.259,284.234,956.618,295.6l-9.006,12.147,2.094,2.723,9.006-13.4,3.655-15.446Z" transform="translate(-853.866 -223.74)" fill="#f2f2f2"/><path d="M1004.9,275.712l12.848-3.212,8.565,1.606,7.445,2.254-9.051,32.009,10.076,22.738-18.641,13.13L997.3,319.219l6.309-35.833Z" transform="translate(-876.952 -219.501)" fill="#fff"/><path d="M917.873,279.177,889.5,276.5l12.848,36.4,1.545,10.4-8.232,25.287,42.45,3.849L929.847,312.9l-9.3-13.919Z" transform="translate(-826.864 -221.359)" fill="#db5526"/><path d="M970.98,277.376l24.808-4.876-6.649,10.886-5.262,35.623,7.628,15.056-14.211,15.088L967.048,309.5l3.579-12.905Z" transform="translate(-862.487 -219.501)" fill="#db5526"/><path d="M955.556,245.35l2.141,2.141-1.241,10.426-4.113,7.24-4.283-.535-4.818,1.606-9.636-7.495L932,251.774l1.071-2.677-1.646-5.379,3.806-5.562,13.321-2.2,5.416,2.488Z" transform="translate(-846.345 -202.522)" fill="#f8f8e7"/><path d="M946.351,255.9l-1.213,2.425h-4.245l-.606-3.638Z" transform="translate(-850.463 -211.224)" fill="#fbb03b"/><path d="M961.767,253.3l1.824,2.337,3.15-1.363.647-3.277Z" transform="translate(-860.443 -209.511)" fill="#fbb03b"/><path d="M936.535,246l9.946,4.954-1.213,1.213L936,250.792Z" transform="translate(-848.471 -207.187)" fill="#010a10"/><path d="M959.086,247.844,966,241l1.206,5.517L959.915,249Z" transform="translate(-859.198 -204.864)" fill="#010a10"/><path d="M954.532,251.5l2.141,4.283,2.294,2.915-3.17,2.488-4.684-1.757.293-2.488h1.9" transform="translate(-855.493 -209.743)" fill="none" stroke="#cccab2" stroke-miterlimit="10" stroke-width="1"/><path d="M944.148,267.833l8.051,1.757,2.2-.293,4.538-3.806.586,3.074-.878,3.952-6.068.592-3.74,1.9L944,272.723Z" transform="translate(-852.188 -216.244)" fill="#010a10" stroke="#ef1414" stroke-miterlimit="10" stroke-width="1"/><path d="M944.55,243.166l6.441.732,3.659-2.2" transform="translate(-852.444 -205.19)" fill="none" stroke="#cccab2" stroke-miterlimit="10" stroke-width="1"/><path d="M945.1,246.594l6.734.732,3.22-2.342" transform="translate(-852.698 -206.715)" fill="none" stroke="#cccab2" stroke-miterlimit="10" stroke-width="1"/><path d="M935.5,262.5h4.283l2.677,2.141" transform="translate(-848.238 -214.854)" fill="none" stroke="#cccab2" stroke-miterlimit="10" stroke-width="1"/><path d="M973.389,257.035l-3.212-.535-2.677,2.677" transform="translate(-863.107 -212.066)" fill="none" stroke="#cccab2" stroke-miterlimit="10" stroke-width="1"/><path d="M945.227,258.049h-1.085l.492.937,1.325.1.743-.957-.391-1.176-1.182-.64-.987,1.092Z" transform="translate(-852.254 -211.981)" fill="#010a10"/><path d="M965.784,255.816l-.855.256.608.622,1.069-.23.36-.929-.478-1.013-1.082-.226-.627,1.272Z" transform="translate(-861.843 -211.041)" fill="#010a10"/><path d="M851.683,297.462l1.741,13.773-3.569,18.795-2.141-1.748.892-19.888-1.606-5.9,1.428-6.993Z" transform="translate(-807.117 -230.188)" fill="#ededed"/><path d="M946.571,273.285l1.1-1.511.615.524,1.191-1.093,1.231,1.048.585-1.082,1.231,1.048.585-1.082,1.221.513.585-1.082,1.221.513,1.191-1.093,1.241,1.583.85-2.567-.325-1.726L955.01,270.3l-4.331.346-5.014-1.079-.165,1.576Z" transform="translate(-852.885 -217.073)" fill="#fff" stroke="#010a10" stroke-miterlimit="10" stroke-width="1"/><path d="M1044.132,283.121l-3.562,13.767-1.669,12.248,2.758,3.345,3.224-14.319,4.29-13.733-2.329-3.45Z" transform="translate(-896.284 -223.441)" fill="#ededed"/><path d="M946.143,277.106l.249-.24,1.606.24,1.606,1.071,3.747-1.606,4.283-.535,1.071-.535.535,1.071-6.424,1.071-2.716,1.482Z" transform="translate(-853.241 -220.895)" fill="#fff"/><path d="M1040.352,282.4l-4.711,9.692-2.141,20.879" transform="translate(-893.774 -224.098)" fill="none" stroke="#f2efef" stroke-miterlimit="10" stroke-width="1"/><path d="M1029.366,204.459l14.683,63.708,1.661-.329-13.488-63.772Z" transform="translate(-891.853 -187.703)" fill="#e2e1e0"/><path d="M852.463,274.638,845.83,298.47l2.2.225,6.815-24.336Z" transform="translate(-806.573 -220.364)" fill="#c69c6d"/><path d="M849.44,292.448l-3.61,14.3,2.2.225,3.792-14.8Z" transform="translate(-806.573 -228.64)" fill="#c1272d"/><path d="M849.043,286.171l5.917.408-.022,3.1-2.049.511,1.358,1.419-3.312,5.345-5.71-1.422.614-4.756Z" transform="translate(-806.292 -225.853)" fill="#f0d4ae"/><path d="M1045.609,270.413l-5.064,1.352-.709,2.469,2.752-.279-1.838,2.679,1.951,5.771,5.541-1.616.415-7.5Z" transform="translate(-896.718 -218.531)" fill="#f0d4ae"/><path d="M868.853,249.783l-1.8,1.978,2.078,2.329,1.94-.2,1.642-1.025-.6-3.155Z" transform="translate(-816.433 -208.91)" fill="#f7d64d"/><path d="M863.437,239.887l-.873,2.53,1.787.73,3.56-.47-1.657-3.4Z" transform="translate(-814.348 -204.062)" fill="#f7d64d"/><path d="M850.622,258.019l.782,2.56,2.742-1.286-.1-2.881-2.2-.225Z" transform="translate(-808.799 -211.921)" fill="#f7d64d"/><path d="M868.508,261.31l.856-1.887,2.71-.088,1.993,1.822-1.317,1.749-3.079.88Z" transform="translate(-817.11 -213.384)" fill="#f7d64d"/><path d="M856.554,269.223l1.231-1.832,2.335,1.413.6,3.063-2.881.1-1.692-.043Z" transform="translate(-811.367 -217.127)" fill="#f7d64d"/><path d="M846.908,265.256l-.012,3.591,2.152.725,1.447-3.108Z" transform="translate(-807.068 -216.135)" fill="#f7d64d"/><path d="M867.9,269.7l.272,3.016,1.987.961,2.812-2.534-1.712-2.126Z" transform="translate(-816.827 -217.881)" fill="#f7d64d"/><path d="M858.39,248.791l3.107-.3.53,2.624-2.117,1.957-2.417-1.151Z" transform="translate(-811.992 -208.345)" fill="#f7d64d"/><path d="M860.425,263.191,858.795,261l1.433-1.591,2.57,1.306-.24,2.666Z" transform="translate(-812.597 -213.419)" fill="#f7d64d"/><path d="M1014.136,185.318l-9.636,2.141,2.677,7.495,23.555-5.889-3.212-8.566Z" transform="translate(-880.299 -176.753)" fill="#f2f2f2"/><path d="M1015.5,174.571l5.889,19.273,9.1-2.141-5.889-18.2Z" transform="translate(-885.41 -173.5)" fill="#f2f2f2"/><path d="M1015.53,199.5l-8.03,14.99,4.818,2.141,6.96-12.848" transform="translate(-881.693 -185.581)" fill="#20723c"/><path d="M1015.46,213.5l-6.96,13.919,6.424,2.677,5.889-13.384" transform="translate(-882.158 -192.086)" fill="#20723c"/><path d="M1015.189,229.065,1006.5,248.57l9.1,3.212,6.424-17.666" transform="translate(-881.229 -199.318)" fill="#20723c"/><path d="M1021.816,193.018l7.292,17.783,7.924-4.571-7.558-16.111" transform="translate(-888.345 -181.222)" fill="#f2f2f2"/><path d="M1020.49,209.457l7.293,17.783,7.924-4.571-7.558-16.111" transform="translate(-887.729 -188.86)" fill="#f2f2f2"/><path d="M1023.269,232.31l7.293,17.783,7.924-4.571-7.558-16.111" transform="translate(-889.02 -199.479)" fill="#f2f2f2"/><path d="M812.264,321.9l-2.312,8.143-35.016,31.589,5.565,4.572,31.153-34.374,2.749-10.027Z" transform="translate(-773.632 -242.411)" fill="#f2f2f2"/><path d="M811.58,319.5l-2.677,8.03-36.4,29.98,5.353,4.818,32.67-32.935,3.2-9.893Z" transform="translate(-772.5 -241.339)" fill="#20723c"/><path d="M858.283,302l2.677,15.525L854,338.4" transform="translate(-810.369 -233.208)" fill="none" stroke="#f2efef" stroke-miterlimit="10" stroke-width="1"/><path d="M863.681,236.105l-2.889,5.066h1.567l-3.427,4.358v6.128l-7.154,3.727-5.052,7.3,7.166-1.479v3.209l4.152-4.181,1.96,4.181,4.3-6.761,3.239,2.581,1.238-7.219v-6.125l2.152,2.024-2.152-7.744-2.583-5.066Z" transform="translate(-780.081 -181.69)" fill="#d8d488"/><path d="M853.976,236.105l2.889,5.066H855.3l3.427,4.358v6.128l7.154,3.727,5.052,7.3-7.166-1.479v3.209l-4.152-4.181-1.96,4.181-4.3-6.761-3.239,2.581-1.238-7.219v-6.125l-2.152,2.024,2.152-7.744,2.583-5.066Z" transform="translate(-737.881 -184.383)" fill="#d8d488"/></g></g></svg>