<svg xmlns="http://www.w3.org/2000/svg" viewBox="0 0 60 38"><path d="M23.85,11.91c0,.24-2.21,1-2.26,1.12,0,.29-.39.26-.5.5a.56.56,0,0,0-.21,0c-.72,0-1.11.91-1.92.91a1.77,1.77,0,0,1-1,.73c-.36.34-1.51,1.25-1.51,1.53a2,2,0,0,1-.62,1.1c-.18.36-.16.91-.5,1.11s-.15.91-.62,1c0,.57-.23.7-.23,1.25a1.19,1.19,0,0,0-.63.75c.11.24-.31.78-.52.86a5.22,5.22,0,0,1-.36,1c-.05.15-.52.6-.5.88s-.26.34-.39.5-.13.44-.23.62-.52.55-.52,1a.3.3,0,0,0,0,.16c-1.51,1.51-2.22,4.29-3.52,5a8.65,8.65,0,0,1-1.61,2.73c-.08.1,0,.29-.13.39-.44.57-1.32,1.22-1.74,1.85-.75.28-1.38,1-2.24,1a3.35,3.35,0,0,0-.75.13c-.08-.16-.26-.16-.39-.26s-.08-.23-.13-.26A2,2,0,0,1,0,36.13c.08-1.07.1-1.54.13-2.76a.14.14,0,0,1,0-.1c0-.24.26-.13.26-.6,0-.29.52-.68.52-1.33,0-.05,0-.13,0-.21.78-1.06,1.58-3.61,2.39-3.74.21-.08,0-.6.23-.63a10.7,10.7,0,0,1,.89-.93c0-.76.94-1.35,1.38-2.08.39-.11.54-.52.73-.86.93-.29,1.58-1.61,2.75-2.37.24-.15.21-.39.29-.39a1.3,1.3,0,0,0,.15,0s.39-.5.55-.65A11.39,11.39,0,0,0,12,18c1.51-.65,2.39-1.93,3.85-2.63a26.48,26.48,0,0,0,1.25-2.5s0-.1-.06-.1c-.26,0-.65.52-.93.73s-1,.28-1,.73a.27.27,0,0,0,0,.15c-.26,0-.39,0-.39.24-.62.07-.88.54-1.38.75-1.56.62-3.56,1.9-5.2,1.9A6,6,0,0,1,6,17c-.34-.36-.44-1-.75-1.35,0-2.26,1-3.54,1.51-5.25.49-.26.59-.91,1-1.25s.52-1,1.15-1.12c0-.36.28-.47.49-.62C9.83,6.76,10.51,6.3,11,5.67,12.38,5,13.39,4,14.85,3.41a16.17,16.17,0,0,1,2-1A13,13,0,0,0,19,1.54a1.52,1.52,0,0,0,.29,0c.7,0,.93-.39,1.71-.39A10.49,10.49,0,0,0,22.08.68a.83.83,0,0,0,.26,0c.49,0,.81-.16,1.33-.16.78,0,1.92.86,1.92,1.66A4.62,4.62,0,0,1,25,4c0,.15-.34.52-1,1.09a5.67,5.67,0,0,0-.36,1.12c-.42.13-.47.59-.76.85-.07.47-.57.53-.62,1-.73.29-.81,1.25-1.61,1.48-.24.86-.91,1.28-1.12,2.13-.47.08-.31.78-.75.89s-.21.86-.5,1.12a10.67,10.67,0,0,0,3.75-2,1,1,0,0,0,.85-.36,3,3,0,0,0,.76-.39A9.93,9.93,0,0,0,23.85,11.91Zm-9.62,5.62c-.42.24-.65.68-1.12.86a10,10,0,0,0-1.87,1.38c-.21.18-.42.44-.63.62s-.49.18-.62.26c.07,0-1.43,1.43-1.75,1.75-.07.07-.18.05-.26.13-.67.59-1.09,1.4-1.87,1.87-.18.23-.08.49-.49.49,0,.73-.63.78-.63,1.28,0,.26-.41.1-.41.36,0,0,0,.08,0,.1-.54.45-2,3.49-2.29,3.49S.86,34,.86,34.91c0,.46.26.88.26,1.17s.34.28.36.54A4.21,4.21,0,0,0,5,34.12a1.1,1.1,0,0,0,.63-.65v-.18c0-.21.73-.7.75-.91a10.89,10.89,0,0,1,1.12-1.87C8,29.65,8.66,28.92,9.1,28c1.62-2.6,2.94-5.09,4.37-7.75.31-.34.37-1,.63-1.38s.7-.83.7-1.56c0,0,0,0-.08-.05C14.64,17.51,14.36,17.45,14.23,17.53ZM22.83,1.8c-.62.44-1.89.26-2.36.86a.66.66,0,0,0-.34-.08c-.39,0-.78.28-1.2.28a.57.57,0,0,1-.33-.07c-.19.2-.32.44-.63.49-1.12.23-1.74.94-2.86,1.14-.34.29-.49.63-1.14.63-.08.44-1.2.88-1.15.88a.34.34,0,0,1-.21-.15c0,.75-.78.44-.88,1-.73.6-1.38,1.17-2,1.74-.34.29-.39.86-1,.89-.11.15,0,.44-.13.49s-.52.78-.63.78a.4.4,0,0,1-.13,0,1.13,1.13,0,0,1-.49,1c-.08.45-.05.94-.49,1a.86.86,0,0,1,.07.34c0,.42-.46.73-.46,1.07s-.13.65-.13,1.06a1.06,1.06,0,0,0,1.14,1c.83,0,1.53-.32,2-.32s1.67-.85,2.11-.85c1.14-.24,3.17-2,4-2.27a1.12,1.12,0,0,1,1-.62c.13-.6.73-.78,1.12-1.12s.81-.78,1.25-1.12a6.21,6.21,0,0,1,1-1.87c.24-1.22,1.12-1.8,1.38-3,.34,0,.29-.55.63-.63a.27.27,0,0,1,0-.15c0-.7,1.4-1.51,1.64-2.11a.3.3,0,0,1-.16,0C23.15,2.06,23.17,1.8,22.83,1.8Z" fill="#fff"/><path d="M37.71.11v0c0-.1.39-.08.57-.08,1,0,1.82.18,2.81.24.47.49.91,1,1.35,1.51.24.31.39.7.76.85v.13a1.52,1.52,0,0,0,.49,1v.1c0,.5.32.7.52,1a7.75,7.75,0,0,1,.11,1.32,13.51,13.51,0,0,1-.65,3.64c-.29.34-.5.68-.76,1s-.67.52-.75,1c-.44.05-.55.46-.89.62s-.36.52-.78.52a.51.51,0,0,1-.2,0c-.19,0-.06.39-.26.39H40a.73.73,0,0,0-.29.16c0,.18-1,.81-.75.7-.26.21-.76.29-1,.76a9.35,9.35,0,0,0-2.26,1.12c-.55.52-1.59.57-2,1.24a.24.24,0,0,1-.13,0c-.13,0-.26,0-.36,0s-.26.21-.39.26a13.51,13.51,0,0,1-2.37.76A2.25,2.25,0,0,1,29,18.7h-.28a3.19,3.19,0,0,1-1.77.39c-.89,0-1.38-.44-2.24-.52a13.41,13.41,0,0,1-1.25-1.25v-.15c0-.34-.18-.47-.26-.7a15.5,15.5,0,0,1,.63-3.75c0-.1.26,0,.26-.18v-.16c0-.08.26-.36.26-.47s0-.15,0-.2c0-.29.65-.84.65-1.51v-.11c.76-.62,1.07-1.66,1.74-2.36a.89.89,0,0,0,.5-.76.93.93,0,0,0,.62-.75,1.23,1.23,0,0,0,.76-.5,4.71,4.71,0,0,1,2-1.74c.23-.18.47-.54.73-.75.1-.08.26,0,.39-.13a6.62,6.62,0,0,1,3.4-1.35c.29-.13.21-.42.39-.63A3.5,3.5,0,0,1,37.71.11Zm.5,1.51a2.15,2.15,0,0,1-.86.49c-1,.08-1.51.62-2.63.62a4,4,0,0,1-1.85,1h-.15c-.13,0-.08.21-.18.26a3.07,3.07,0,0,1-1.49.73c-.07.62-.8.55-.88,1.14-.63.08-.63.78-1.25.86-.16.55-.62.81-1,1.12s-.47,1-1,1.15a2,2,0,0,1-.86,1.37v.11c0,.78-.94,1.87-1,2s-.06.65-.37.75v.19c0,.36-.15.54-.15.88,0,.05,0,.13,0,.18a1.11,1.11,0,0,0-.36.86,6.71,6.71,0,0,0,.49,1.77h.08c.18,0,.18.18.29.23s.39.06.62.13a2.78,2.78,0,0,0,1.33.39,14.31,14.31,0,0,0,4.68-1A16.42,16.42,0,0,1,34,16a2.84,2.84,0,0,1,1.38-.88c.52-.24.86-.73,1.62-.76.13-.31.49-.44.75-.62A15.37,15.37,0,0,1,40.29,12a2.59,2.59,0,0,1,1.11-.89c.26-.23.29-.7.63-.86s.26-.15.26-.36V9.73s.05,0,.08,0c.36,0,.78-1.8,1-2.53A10.86,10.86,0,0,0,41.9,2.84c-.6,0-.24.39-1.35.39-.21,0,0,.41-.21.41s-.16-.13-.16-.23c0-.49.65-.68.65-1.66a1.85,1.85,0,0,0-1.12-.26A11.8,11.8,0,0,0,38.21,1.62Z" fill="#fff"/><path d="M48.53,17.14c-.39,0-.42.34-.86.26-.44.18-.6.65-.88,1h-.63c-.67-.78.24-1.72.63-2.24C47.62,15.89,48.79,16,48.53,17.14ZM58.91,1.93c-.29.67-.89,1-1.38,1.48-.13.55-.62.73-.75,1.25a6,6,0,0,0-1.51,1.51c-.24.26-.5.49-.73.75s-.34.7-.76.76a9,9,0,0,1-1.63,2.1c-.58.68-1.07,1.41-1.62,2.13-.31.16.11.73-.13.76a1.08,1.08,0,0,1-1.25.1c-.26-.65.16-.88.39-1.35a4.45,4.45,0,0,0,.63-1.25c.29-.05.26-.39.49-.52s.19-.47.37-.62c1.06-.94,1.74-2.24,2.75-3.23,1.36-1.48,2.58-3.09,4-4.5C58.49,1.15,58.65,1.59,58.91,1.93Z" fill="#fff"/><path d="M18.43,24a9.55,9.55,0,0,1-.8,1s-.14.19-.23.19a.13.13,0,0,1-.13-.12.09.09,0,0,1,0-.07c.05,0,.11-.07.15-.11a6.12,6.12,0,0,0,1.13-1.57l-1,0c-.08,0-.23,0-.23-.13s.09-.11.14-.11a.29.29,0,0,1,.1,0,.44.44,0,0,0,.17,0h.87a.51.51,0,0,0,0-.13.32.32,0,0,0,0-.16.64.64,0,0,1,0-.07.14.14,0,0,1,.13-.12c.12,0,.14.13.14.31a1,1,0,0,1,0,.17l.89,0h0a.08.08,0,0,1,.08.07c0,.09-.11.14-.18.14H18.8a1.8,1.8,0,0,1-.22.45,1.05,1.05,0,0,1,.24,0c.27,0,.57.15.57.45a.12.12,0,0,1-.13.11c-.06,0-.09,0-.09-.1s-.18-.3-.37-.3a.85.85,0,0,0-.35.08Zm.18.47a.1.1,0,0,1,.11-.09c.06,0,.12,0,.12.16s0,.05,0,.07.11.42.31.42.4-.27.48-.43a.47.47,0,0,0,0-.17.09.09,0,0,1,.1-.07.11.11,0,0,1,.12.12c0,.17-.37.76-.75.76S18.61,24.55,18.61,24.5Z" fill="#fff"/><path d="M21.33,23.15a.18.18,0,0,0,0-.15l0,0a.14.14,0,0,1,0-.07s.06-.17.13-.17.18.07.18.28,0,.17,0,.26l.26,0c.47,0,.48.22.48.54a1.75,1.75,0,0,1-.42,1.36.2.2,0,0,1-.14.06c-.17,0-.31-.42-.31-.44a.12.12,0,0,1,.12-.13c.05,0,.08,0,.09.09s.07.21.11.21.35-.31.35-1c0-.4,0-.49-.29-.49h-.25a2.61,2.61,0,0,1-.85,1.7.19.19,0,0,1-.08,0,.11.11,0,0,1-.11-.1.08.08,0,0,1,0-.08,2.29,2.29,0,0,0,.81-1.54H20.8c-.09,0-.22-.08-.22-.18a.08.08,0,0,1,.09-.08c.1,0,.19.07.29.07h.37ZM22.82,25a.13.13,0,0,1-.12-.1,7.59,7.59,0,0,1-.17-1.51,2,2,0,0,0-.05-.24.3.3,0,0,1,0-.1c0-.08.09-.26.19-.26s.07.06.07.1,0,.18,0,.27a5.22,5.22,0,0,0,.24,1.7v0C23,24.94,22.88,25,22.82,25Z" fill="#fff"/><path d="M24.64,23.69h.64c.2,0,.47.07.47.33a.48.48,0,0,1-.13.3,4,4,0,0,1-1.16.79l-.3.16a.19.19,0,0,1-.08,0,.13.13,0,0,1-.12-.14c0-.06,0-.1.08-.11l.2-.07c.27-.11,1.27-.63,1.27-.95,0-.15-.28-.16-.42-.16a3.35,3.35,0,0,0-.54,0h-.11c-.09,0-.09-.06-.09-.12v-.05s0-.07,0-.11v-.29h-.7c-.21,0-.21-.13-.21-.14a.08.08,0,0,1,.09-.09l.07,0h.75V23a.15.15,0,0,0,0-.08s0,0,0-.05.09-.18.15-.18.1.1.1.16v.06a.47.47,0,0,0,0,.19v0H26c.05,0,.11,0,.11.07a.15.15,0,0,1-.15.14H24.55v.31s0,0,.05,0Z" fill="#fff"/><path d="M26.91,24.08c0,.32,0,.64,0,1,0,.07,0,.3-.14.3a.11.11,0,0,1-.12-.1s0-.05,0-.08a.83.83,0,0,0,0-.15c0-.37,0-.9,0-1.34,0-.17,0-.34,0-.51s-.07-.09-.07-.15a.26.26,0,0,1,.2-.2c.06,0,.09,0,.09.1s0,.12,0,.19v1Zm1.26-.4h-.53l-.18,0a.18.18,0,0,1-.18-.16c0-.07.11-.07.17-.07s.15,0,.25,0h.47v-.45h-.53l-.19,0h0a.18.18,0,0,1-.17-.16c0-.08.11-.08.17-.08s.17,0,.25,0h1.24a.86.86,0,0,1,.17,0,.07.07,0,0,1,.06.07c0,.11-.1.14-.19.14h-.63v.45h.59l.17,0s.06,0,.06.07-.1.13-.19.13h-.63s0,.55,0,.56a1,1,0,0,0,0,.19,6.27,6.27,0,0,0,.53.49l.15.12.06,0v0s-.07.08-.11.08-.22-.11-.67-.54c-.09.31-.46.65-.65.65s-.3-.3-.3-.59v0c0-.56.41-.58.49-.58a.5.5,0,0,1,.31.12Zm-.32.63c-.23,0-.29.26-.29.39s.07.39.17.39a.92.92,0,0,0,.45-.6A.46.46,0,0,0,27.85,24.31Z" fill="#fff"/><path d="M31.31,23.59c0-.1.17-.08.19-.21a.06.06,0,0,0,0,0c0-.26-.59-.29-.84-.29a4.52,4.52,0,0,0-.52,0c-.11,0-.21.05-.32.05a.09.09,0,0,1-.08-.09.15.15,0,0,1,.14-.15l.77,0c.27,0,1.07,0,1.07.47,0,0,0,.35-.29.35C31.39,23.68,31.31,23.65,31.31,23.59Zm-.42,1.68a2.2,2.2,0,0,1-.73-.13c-.18-.07-.35-.16-.35-.38s.07-.33.18-.33a.11.11,0,0,1,.11.1v0a.93.93,0,0,0-.05.1.29.29,0,0,0,0,.09c0,.22.57.31.83.31a.68.68,0,0,0,.65-.38.11.11,0,0,1,.1-.07.12.12,0,0,1,.12.12.09.09,0,0,1,0,.05A.87.87,0,0,1,30.89,25.27Zm1-1.62s-.06,0-.06-.08,0-.18,0-.27v-.36s0-.06,0-.09.14-.09.16-.09,0,0,0,.06,0,.05,0,.08a2.57,2.57,0,0,0,0,.39v.25A.12.12,0,0,1,31.85,23.65Zm.5-.35c0,.14,0,.34-.14.34s-.05-.07-.05-.1c0-.24,0-.47,0-.7a.1.1,0,0,1,.11-.09c.06,0,.07.07.07.1Z" fill="#fff"/><path d="M34.63,23.13h-.07c-.37-.07-1.13-.15-1.14-.15h-.11c-.08,0-.24,0-.24-.14a.15.15,0,0,1,.13-.14l.11,0a11.81,11.81,0,0,0,1.3.21.14.14,0,0,1,.14.12C34.75,23.11,34.68,23.13,34.63,23.13Zm-.9,2.26a.1.1,0,0,1-.11-.1.18.18,0,0,1,.06-.13.94.94,0,0,0,.1-.1,2.76,2.76,0,0,0,.62-1.2c0-.26-.16-.36-.39-.36a.89.89,0,0,0-.53.12s-.13.1-.13.16.15.17.15.27a.12.12,0,0,1-.12.11c-.12,0-.25-.2-.25-.37,0-.35.52-.49.84-.49s.65.12.65.55-.22.7-.74,1.46A.16.16,0,0,1,33.73,25.39Z" fill="#fff"/><path d="M35.61,23.7a.1.1,0,0,1-.1-.1.12.12,0,0,1,.06-.1,3.26,3.26,0,0,0,1.24-.76s.07-.11.1-.14,0,0,.06,0,0,0,.06,0,0,0,0,0a2.88,2.88,0,0,0,1.28.83.11.11,0,0,1,.06.09.11.11,0,0,1-.12.1A3.26,3.26,0,0,1,37,22.85,3.93,3.93,0,0,1,35.61,23.7Zm2.34.83s0,.12-.38.38a5.93,5.93,0,0,0,.54.25l.15.05a.11.11,0,0,1,.05.09c0,.08-.09.09-.11.09s-.21-.05-.86-.4a11,11,0,0,1-1.5.44.1.1,0,0,1-.1-.1.14.14,0,0,1,.1-.11l.33-.07h0c0-.08,0-.15,0-.23V23.7s0-.06,0-.12.07-.13.12-.13h.61v0s0-.15,0-.19,0-.16.11-.16.09.08.09.14a1.62,1.62,0,0,1,0,.22h.36a1.3,1.3,0,0,1,.21,0s.12,0,.12.1,0,.15,0,.22V24a2.81,2.81,0,0,0,0,.29h0c0,.08-.07.1-.14.1H36.37v.24c0,.14,0,.27,0,.41l.74-.22c-.33-.17-.36-.21-.36-.27s0-.09.08-.09a.18.18,0,0,1,.1,0,3.81,3.81,0,0,0,.45.26,1.43,1.43,0,0,0,.24-.19l.15-.14.08,0a.08.08,0,0,1,.09.08Zm-1-.9h-.55v.22h1.16v-.23h-.61Zm.61.41H36.37v.22h1.12s0,0,0,0Z" fill="#fff"/><path d="M39.89,23.26a.09.09,0,0,0-.07-.06s0,0-.06.05l-.59.72a2,2,0,0,0-.19.22.32.32,0,0,1-.13,0c-.07,0-.08-.09-.08-.15a.1.1,0,0,1,0-.07A4.6,4.6,0,0,0,39.68,23c0-.07,0-.09.1-.09A.21.21,0,0,1,40,23l.08.17c.35.55.79,1.29,1.13,1.74.08.1.08.05.16.14a.76.76,0,0,1,0,.16.11.11,0,0,1-.11.11s-.09,0-.2-.17C40.66,24.55,40.29,23.87,39.89,23.26Zm.75.46a.06.06,0,0,1-.07-.07c0-.21,0-.43,0-.65,0,0,0-.06,0-.09s0,0,0-.05a.33.33,0,0,1,.14,0s.05,0,.05.06,0,.05,0,.08a2.9,2.9,0,0,0,0,.34v.32C40.76,23.68,40.69,23.72,40.64,23.72Zm.6-.22c0,.09,0,.22-.14.22s-.06-.06-.06-.1c0-.24,0-.48,0-.72,0-.06.07-.09.12-.09s.07.07.07.11v.58Z" fill="#fff"/><path d="M43.07,23.83l0,0,0,0a0,0,0,0,0,0,0l0,0c.26.13.78.4.78.76a.8.8,0,0,1-.79.63c-.29,0-.66-.22-.66-.47s.52-.55.77-.65L43,24.1c-.06,0-.24-.11-.24-.18s.07-.11.11-.14l.86-.71H42.36l-.23,0c-.09,0-.21-.06-.21-.17s.1-.08.15-.08h.08a2.84,2.84,0,0,0,.6,0h1a2,2,0,0,1,.24,0,.18.18,0,0,1,.15.14c0,.05-.06.08-.13.13a3.21,3.21,0,0,0-.3.21Zm-.46,1c0,.12.25.28.47.28s.56-.25.56-.43-.17-.29-.28-.38C43.05,24.42,42.61,24.67,42.61,24.84Z" fill="#fff"/><path d="M45.36,24.22c0,.11,0,.22,0,.32a.66.66,0,0,1-.18.4,3.52,3.52,0,0,0,.76.19,4.46,4.46,0,0,0,.82.05c.24,0,.47,0,.71,0a.06.06,0,0,1,.07.07c0,.14-.39.16-.71.16a5.46,5.46,0,0,1-.8-.05,8.62,8.62,0,0,1-1-.22l-.1.12c-.17.16-.19.17-.24.17s-.07,0-.07-.08v0l.14-.15c.4-.4.4-.52.4-.83,0-.12,0-.24,0-.37h-.27c-.19,0-.21-.06-.21-.09a.23.23,0,0,1,0,0,.17.17,0,0,1,.1-.07h.3l.21,0c.05,0,.06.07.06.1Zm-.27-.83L45,23.13a.78.78,0,0,0-.13-.24.18.18,0,0,1,0-.12c0-.07,0-.13.1-.13s.34.64.34.71,0,.11-.09.11A.14.14,0,0,1,45.09,23.39Zm2,1.42a.68.68,0,0,0,0-.2v-.22h-.58v.39c0,.07,0,.19-.13.19s-.08-.07-.08-.12,0-.23,0-.34V24.4h-.52v.08c0,.37,0,.51-.08.55h-.06c-.09,0-.09-.06-.09-.13s0-.09,0-.13c0-.21,0-.26,0-1.33a.1.1,0,0,1,.11-.1h.7a3.07,3.07,0,0,0-.31-.17s-.11-.06-.11-.11a.1.1,0,0,1,.1-.09s.05,0,.35.19c.14-.09.28-.18.41-.28h-1.2c-.05,0-.13,0-.13-.08s.09-.11.16-.11h1.4a.12.12,0,0,1,.1.11c0,.06-.08.14-.58.45l.1.08H47c.07,0,.13,0,.19,0s.11.05.11.12,0,.18,0,.27v.8c0,.06,0,.12,0,.18a.75.75,0,0,1,0,.21.16.16,0,0,1-.14.11.82.82,0,0,1-.44-.14.14.14,0,0,1,0-.06.09.09,0,0,1,.1-.1s.2.11.29.11Zm-.74-1.28h-.53v.26h.53Zm-.53.43v.26h.52c0-.09,0-.17,0-.26Zm1.29-.26a.91.91,0,0,0,0-.17h-.57c0,.08,0,.17,0,.26h.59Zm0,.26h-.59v.26h.58Z" fill="#fff"/><path d="M48.39,25.12c0,.08,0,.3-.13.3s-.1-.1-.1-.16,0-.06,0-.09a2,2,0,0,0,0-.25c0-.29,0-.58,0-.88v-.3c-.13.17-.27.32-.36.42a.16.16,0,0,1-.09,0,.08.08,0,0,1-.08-.08c0-.05.06-.11.12-.18.29-.32.57-.65.57-.86s-.1-.25-.1-.33,0-.11.1-.11.19.25.19.36a.89.89,0,0,1-.16.48ZM50,23l.42,0a.1.1,0,0,1,.11.11c0,.07-.06.1-.12.1H48.9c-.07,0-.2,0-.2-.1s.06-.1.12-.1h.66v-.22s0,0,0-.07a.1.1,0,0,1,.11-.11.09.09,0,0,1,.09.1V23Zm-.68,2.28a1.14,1.14,0,0,0-.26,0l-.09,0a.12.12,0,0,1-.13-.11c0-.07,0-.13,0-.2v-.27c0-.07,0-.13,0-.2s0-.15.11-.15h1c.08,0,.15,0,.22,0s.15,0,.15.12v.05c0,.12,0,.24,0,.36v.16s0,.06,0,.09a.14.14,0,0,1-.14.14h-.82Zm.45-1.82.39,0c.07,0,.12,0,.12.1s-.08.1-.17.1h-.48l-.59,0c-.07,0-.19,0-.19-.11s0-.09.11-.09h.81Zm0,.44h.39c.07,0,.12,0,.12.1s-.1.1-.17.1H49.05c-.07,0-.19,0-.19-.1s0-.09.11-.09h.81Zm.31.73s0-.05-.06-.05h-1c0,.13,0,.27,0,.4v.12h1s0-.07,0-.11Z" fill="#fff"/><path d="M17.53,26.91h-.38v-.19h1v.19h-.37v1h-.23Z" fill="#fff"/><path d="M19,27.71c0,.09,0,.2,0,.22h-.2a.2.2,0,0,1,0-.09.26.26,0,0,1-.26.12.28.28,0,0,1-.31-.29c0-.2.17-.29.43-.29h.14v-.07c0-.07,0-.14-.16-.14a.14.14,0,0,0-.16.12h-.21c0-.15.11-.28.38-.28s.36.09.36.31Zm-.21-.2h-.12c-.16,0-.23,0-.23.15a.13.13,0,0,0,.15.14c.18,0,.2-.13.2-.26Z" fill="#fff"/><path d="M19.45,27.43l.34-.4H20l-.32.35.36.55h-.25l-.26-.41-.12.11v.3h-.22V26.65h.22Z" fill="#fff"/><path d="M20.9,27.71a1,1,0,0,0,0,.22h-.21a.2.2,0,0,1,0-.09.26.26,0,0,1-.26.12.29.29,0,0,1-.31-.29c0-.2.17-.29.43-.29h.14v-.07c0-.07,0-.14-.16-.14a.14.14,0,0,0-.16.12h-.2c0-.15.1-.28.37-.28s.36.09.36.31Zm-.21-.2h-.12c-.16,0-.23,0-.23.15a.13.13,0,0,0,.15.14c.18,0,.2-.13.2-.26Z" fill="#fff"/><path d="M21.9,27.65a.37.37,0,0,1-.39.31.41.41,0,0,1-.42-.47.44.44,0,0,1,.43-.48.34.34,0,0,1,.38.31h-.21a.17.17,0,0,0-.17-.14c-.13,0-.21.12-.21.3s.08.3.2.3a.17.17,0,0,0,.18-.13Z" fill="#fff"/><path d="M22.29,26.65v.5a.28.28,0,0,1,.26-.14c.16,0,.31.09.31.35v.57h-.22v-.54c0-.13-.05-.2-.16-.2s-.19.1-.19.26v.48h-.22V26.65Z" fill="#fff"/><path d="M23.1,26.65h.21v.21H23.1Zm0,.38h.21v.9H23.1Z" fill="#fff"/><path d="M23.77,26.65v.5A.29.29,0,0,1,24,27c.16,0,.3.09.3.35v.57h-.22v-.54c0-.13-.05-.2-.16-.2s-.19.1-.19.26v.48h-.22V26.65Z" fill="#fff"/><path d="M25.4,27.48A.44.44,0,0,1,25,28a.43.43,0,0,1-.43-.47A.43.43,0,0,1,25,27,.43.43,0,0,1,25.4,27.48Zm-.66,0c0,.18.09.3.22.3s.21-.11.21-.3-.07-.3-.21-.3S24.74,27.29,24.74,27.48Z" fill="#fff"/><path d="M26,27.39v.19h-.48v-.19Z" fill="#fff"/><path d="M27.05,27.83c0,.29-.11.47-.44.47s-.38-.17-.39-.28h.22a.17.17,0,0,0,.18.12c.18,0,.21-.11.21-.3v-.05a.27.27,0,0,1-.26.14.39.39,0,0,1-.37-.44c0-.29.17-.48.39-.48s.23.08.24.12,0-.08,0-.1h.21v.8Zm-.63-.35c0,.16.09.27.21.27s.21-.12.21-.28,0-.28-.21-.28S26.42,27.29,26.42,27.48Z" fill="#fff"/><path d="M28.1,27.48a.44.44,0,0,1-.44.48.43.43,0,0,1-.43-.47.43.43,0,0,1,.44-.48A.43.43,0,0,1,28.1,27.48Zm-.65,0c0,.18.08.3.21.3s.22-.11.22-.3-.08-.3-.22-.3S27.45,27.29,27.45,27.48Z" fill="#fff"/><path d="M29,26.91h-.38v-.19h1v.19h-.37v1H29Z" fill="#fff"/><path d="M30.45,27.71a1,1,0,0,0,0,.22h-.21a.2.2,0,0,1,0-.09A.26.26,0,0,1,30,28a.29.29,0,0,1-.31-.29c0-.2.17-.29.43-.29h.14v-.07c0-.07,0-.14-.16-.14a.14.14,0,0,0-.16.12h-.2c0-.15.1-.28.37-.28s.36.09.36.31Zm-.21-.2h-.12c-.16,0-.23,0-.23.15a.13.13,0,0,0,.15.14c.18,0,.2-.13.2-.26Z" fill="#fff"/><path d="M30.69,26.65h.22v.49a.28.28,0,0,1,.27-.13c.24,0,.37.2.37.46s-.13.49-.39.49a.26.26,0,0,1-.25-.12.25.25,0,0,1,0,.09h-.21V26.65Zm.64.82c0-.16-.07-.28-.21-.28s-.22.1-.22.3.05.29.21.29S31.33,27.66,31.33,27.47Z" fill="#fff"/><path d="M31.9,27.53c0,.13.06.25.2.25a.17.17,0,0,0,.18-.11h.22a.41.41,0,0,1-.41.29.42.42,0,0,1-.41-.47c0-.27.14-.48.42-.48a.39.39,0,0,1,.41.44.22.22,0,0,1,0,.08Zm.39-.14c0-.12-.06-.22-.19-.22s-.19.09-.2.22Z" fill="#fff"/><path d="M32.69,27.28V27h.21s0,.11,0,.17A.29.29,0,0,1,33.2,27v.21c-.18,0-.29.06-.29.31v.4h-.22Z" fill="#fff"/><path d="M34.13,27.67v.26h-.22v-.11a.27.27,0,0,1-.26.14c-.17,0-.3-.1-.3-.34V27h.22v.55c0,.1,0,.19.15.19s.19-.07.19-.26V27h.22Z" fill="#fff"/><path d="M35.22,27.56c0,.27-.09.39-.34.39h-.15v-.19h.12c.13,0,.14-.09.14-.19v-.85h.23Z" fill="#fff"/><path d="M36.3,27.48a.44.44,0,0,1-.44.48.43.43,0,0,1-.43-.47.43.43,0,0,1,.44-.48A.43.43,0,0,1,36.3,27.48Zm-.65,0c0,.18.08.3.22.3s.21-.11.21-.3-.08-.3-.22-.3S35.65,27.29,35.65,27.48Z" fill="#fff"/><path d="M37.26,27.67v.26H37v-.11a.27.27,0,0,1-.26.14c-.17,0-.3-.1-.3-.34V27h.22v.55c0,.1,0,.19.15.19s.19-.07.19-.26V27h.22Z" fill="#fff"/><path d="M37.49,27.28V27h.22v.17A.3.3,0,0,1,38,27v.21c-.19,0-.3.06-.3.31v.4h-.22Z" fill="#fff"/><path d="M38.16,27.26V27h.21a.57.57,0,0,1,0,.13.27.27,0,0,1,.27-.15c.18,0,.3.12.3.35v.57h-.22v-.55c0-.11,0-.19-.16-.19s-.19.08-.19.25v.49h-.22Z" fill="#fff"/><path d="M39.91,27.71c0,.09,0,.2,0,.22h-.21s0-.06,0-.09a.28.28,0,0,1-.26.12.28.28,0,0,1-.31-.29c0-.2.16-.29.43-.29h.14v-.07c0-.07,0-.14-.16-.14s-.15.06-.16.12h-.21c0-.15.11-.28.38-.28s.36.09.36.31Zm-.21-.2h-.12c-.16,0-.23,0-.23.15a.13.13,0,0,0,.15.14c.17,0,.2-.13.2-.26Z" fill="#fff"/><path d="M40.15,27.93V26.65h.22v1.28Z" fill="#fff"/><path d="M17.72,29.63s0-.05,0-.07,0-.07.06-.07,0,.05,0,.07v.1h.54a0,0,0,0,1,0,0s0,.05-.07.05H17.2s-.05,0-.05,0,0-.05.07-.05h.5Zm.62,1.08a.06.06,0,0,1-.07.07.52.52,0,0,1-.17-.06l0,0a0,0,0,0,1,0-.05h0l.11.05h0a.13.13,0,0,0,0-.06v-.34H17.3v.43c0,.05,0,.06-.06.06s0,0,0-.05,0,0,0-.07v-.33s0-.05,0-.07a.05.05,0,0,1,.06-.06h1a0,0,0,0,1,.05.05h0a.34.34,0,0,0,0,.1v.35Zm-.21-.62s0,0-.06,0h-.61s-.05,0-.05-.05,0,0,0-.05V30s0,0,0-.06,0-.07.06-.07h.61s.05,0,.05,0Zm-.11.58s0,0,0,0h-.42s0,0,0-.05v-.24s0-.05.06-.05H18s.05,0,.05,0h0s0,.05,0,.06Zm0-.76h-.52v.14H18Zm-.1.55H17.6v.16h.33Z" fill="#fff"/><path d="M19.13,30.15h-.51s-.07,0-.07-.05,0-.06.07-.06h.51v-.3a1.61,1.61,0,0,1-.4.05c-.09,0-.13,0-.13-.05a.06.06,0,0,1,0-.06l.11,0a2.6,2.6,0,0,0,.75-.16l.11,0s.05,0,.05,0-.27.13-.45.17v.32h.52a0,0,0,0,1,.05.05s0,.05-.07.05h-.5c0,.14,0,.28,0,.42v.1s0,.11-.05.11-.06,0-.06-.08,0-.12,0-.18Z" fill="#fff"/><path d="M20.27,30.65s0,.13-.06.13a0,0,0,0,1-.05-.05s0-.07,0-.1v-.19c0-.08,0-.17,0-.25l-.12.2c-.06.12-.08.15-.11.15s0,0,0,0,.05-.08.06-.11.14-.26.2-.38V30H20s-.07,0-.07,0,.05-.06.07-.06l.08,0h.11v-.2h0a.47.47,0,0,1-.17,0s0,0,0,0,0-.05,0-.05l.06,0h.08a.47.47,0,0,0,.16,0l.12,0s0,0,0,0-.1.09-.19.11a.31.31,0,0,0,0,.1v.11h.12s.06,0,.06.05,0,0-.18,0v.2l.15.14,0,0a0,0,0,0,1,0,.07.92.92,0,0,1-.16-.12c0,.08,0,.17,0,.26Zm.09.06s.15-.17.15-.26,0,0,0,0a.06.06,0,0,1,.05-.06.08.08,0,0,1,.05.07.62.62,0,0,1-.21.34S20.36,30.74,20.36,30.71Zm.27-.41h-.12s0,0,0,0v0a.49.49,0,0,0,0-.12V30s0-.07,0-.12h0s.05-.05.06-.05h.22v-.08h-.22c-.1,0-.1,0-.1,0s0-.05.07-.05h.25s0,0,0-.07a.08.08,0,0,1,.07-.08s0,0,0,0v.11h.29s.06,0,.06.05,0,0-.06,0h-.29s0,.06,0,.08h.28s0,0,0,.05,0,.09,0,.14v.08c0,.05,0,.09,0,.14s0,.08-.06.08h-.45Zm.12-.39h-.19V30h.19Zm0,.18h-.19v.12h.19Zm0,.67s-.07,0-.07,0v0a.22.22,0,0,0,0-.08v-.15s0,0,0-.07,0-.06,0-.06.05,0,.05.1v.23s0,0,.05,0h.12l.08,0s.06,0,.06,0-.18.06-.25.06Zm.1-.37a0,0,0,0,1,0,0,0,0,0,0,1,0,0,.7.7,0,0,0,0,.14.17.17,0,0,1,0,.06s0,0,0,0S20.83,30.45,20.83,30.39Zm.22-.49h-.22V30h.22Zm0,.19h-.22v.13h.22V30.1Zm0,.31v0a0,0,0,0,1,0,0,0,0,0,0,1,0,0,.88.88,0,0,0,.1.22s0,0,0,.06a0,0,0,0,1,0,0C21.14,30.69,21.06,30.54,21,30.4Z" fill="#fff"/><path d="M22.35,29.8a0,0,0,0,0,0,0H22v.49a1.34,1.34,0,0,0,0,.2v.06s0,.11-.06.11h-.47s0,0-.06,0,0,0,0-.06,0-.12,0-.18v-.7s0-.06,0-.09,0-.07.09-.07H22s0,0,0,.05v.06h.53s.09,0,.09.05-.05.05-.08.05h-.11a.45.45,0,0,0,0,.11v.48c0,.06,0,.12,0,.18,0,.21-.08.23-.12.23s-.22-.11-.22-.14,0-.05,0-.05.12.08.16.08,0-.1,0-.11Zm-.86.23h.17v-.37h-.17V30Zm.16.5a2.44,2.44,0,0,0,0-.27v-.14h-.17v.41h.16Zm.27-.41h-.18v.41h.18v-.41Zm0-.46h-.17c0,.1,0,.23,0,.37h.18Z" fill="#fff"/><path d="M23.23,30.18c0-.07.05-.16.13-.16a.15.15,0,0,1,.13.14.13.13,0,0,1-.13.13A.12.12,0,0,1,23.23,30.18Z" fill="#fff"/><path d="M24.48,30.74a.2.2,0,0,0-.11,0h0c-.05,0-.05,0-.05-.05h0c0-.14,0-.25,0-.56v-.39s0-.07,0-.11a.06.06,0,0,1,.06-.06h.79s.06,0,.06.07v1.05s0,.06-.05.06h-.68Zm.63-1v-.09H24.4v.43h.71Zm0,.43H24.4v.46h.71Z" fill="#fff"/><path d="M26,29.83h-.32s-.07,0-.07,0,.05-.06.08-.06h.38a.06.06,0,0,0,0,0s0-.07,0-.11,0-.11,0-.11.07.05.07.09,0,.07,0,.11v.06h.33l.09,0a.07.07,0,0,1,.06.06s0,.07-.07.1l-.64.58a.55.55,0,0,0,.49.19h.28a0,0,0,0,1,0,0c0,.07-.1.07-.3.07h-.15a.63.63,0,0,1-.42-.21c-.24.22-.27.23-.29.23a0,0,0,0,1,0,0s0,0,0-.06a.91.91,0,0,0,.19-.26s0,0,.06,0h.06c.09-.07.16-.15.25-.23l.33-.32Z" fill="#fff"/><path d="M27.61,29.89c0,.05,0,.07-.07.07h-.17V30h.3s0,0,0,.05a0,0,0,0,1-.05,0H27s0,0,0,0a0,0,0,0,1,0,0h.31V30h-.2s0,0,0,0v-.2s0-.07,0-.11a.06.06,0,0,1,.06-.06h.48s.05,0,.05.05v.29Zm-.65.82a1.1,1.1,0,0,1,.17-.25s.05,0,.05,0-.14.25-.18.25A0,0,0,0,1,27,30.71Zm.63-.36s0,.07-.06.07h-.17v.35s0,0,0,0a1.09,1.09,0,0,1-.15-.08v0a0,0,0,0,1,0,0l.08,0v-.27h-.19a0,0,0,0,1,0,0V30.2s0,0,.05,0h.45s0,0,0,.07Zm-.07-.72h-.41v.08h.41Zm0,.16h-.41v.09h.41Zm0,.45h-.36v.1h.36Zm0,.42a.56.56,0,0,1-.07-.16s0,0,0,0,0,0,0,0a1.13,1.13,0,0,1,.11.22,0,0,0,0,1,0,0S27.54,30.69,27.52,30.66Zm.51-.34s0-.08.08-.08,0,0,0,.05-.32.48-.4.48-.05,0-.05,0,0,0,.12-.16l.18-.22Zm-.3,0a.76.76,0,0,1,.11-.16c.06-.07.11-.15.17-.23a.05.05,0,0,1,0,0s0,0,0,.06a2,2,0,0,1-.31.4h0A0,0,0,0,1,27.73,30.36Zm.05-.31s0,0,0-.05a.33.33,0,0,1,0-.06l.09-.12,0-.06A.83.83,0,0,0,28,29.6a.1.1,0,0,1,.08-.05s0,0,0,.05a2.26,2.26,0,0,1-.31.45Z" fill="#fff"/><path d="M29.34,29.8s0,0,0,0H29v.69s0,0,0,.06,0,.11-.06.11h-.47s0,0-.07,0,0,0,0-.06,0-.12,0-.18v-.7s0-.06,0-.09,0-.07.09-.07H29a0,0,0,0,1,.05.05s0,0,0,0v0h.53s.1,0,.1.05-.05.05-.09.05h-.11v.77c0,.21-.08.23-.11.23s-.22-.11-.22-.14,0-.05,0-.05.13.08.17.08,0-.1,0-.11Zm-.87.23h.18c0-.12,0-.25,0-.37h-.16a2.09,2.09,0,0,0,0,.25Zm.17.5c0-.09,0-.18,0-.27v-.14h-.18v.41h.17Zm.26-.41h-.17v.41h.17v-.41Zm0-.46h-.17V30h.17Z" fill="#fff"/><path d="M30.22,30.18c0-.07.05-.16.13-.16a.16.16,0,0,1,.13.14.13.13,0,0,1-.13.13A.12.12,0,0,1,30.22,30.18Z" fill="#fff"/><path d="M31.81,30.72h-.6s-.08,0-.08-.06,0-.05.08-.05h.25a3.57,3.57,0,0,0,.2-.57h-.28s-.09,0-.09-.05,0-.05,0-.05h.36a1,1,0,0,0,.06-.31h-.5a0,0,0,0,1,0-.05.05.05,0,0,1,.05-.05h1s.08,0,.08.06,0,0,0,0h-.41l-.06.19,0,.12h.32s.07,0,.07,0a.32.32,0,0,1,0,.09c0,.06,0,.13,0,.19l-.09.34h.26s.09,0,.09.05,0,0-.07,0h-.48Zm-.17-.09h.27c.08-.29.12-.45.15-.57h-.31c-.11.35-.17.52-.19.56Z" fill="#fff"/><path d="M33,30.19a.69.69,0,0,1-.22.21s0,0,0,0,0,0,0,0,.18-.18.18-.23-.11-.09-.11-.15,0,0,.05,0h0a.25.25,0,0,1,.13.18v0h.56a0,0,0,0,1,0,0c0,.05,0,.06-.08.06h-.22v.07a.57.57,0,0,1-.25.45h0s-.06,0-.06,0,0,0,0,0a.48.48,0,0,0,.23-.4v-.07Z" fill="#fff"/><path d="M34,30.59a.51.51,0,0,0,.07-.23s0-.08,0-.08,0,0,0,.07a.58.58,0,0,1,0,.19c0,.06-.11.21-.18.21s0,0,0,0a.06.06,0,0,1,0-.05Zm.07-.38A.65.65,0,0,1,33.9,30a0,0,0,0,1,0,0s0,0,0,0a.65.65,0,0,1,.11.22s0,0,0,0Zm0-.66h0a2.36,2.36,0,0,1,.12.28,0,0,0,0,1,0,0c-.06,0-.15-.26-.15-.28a.05.05,0,0,1,.05-.05Zm.44,1c0,.09,0,.19,0,.19s0-.06,0-.09,0-.1,0-.15a1,1,0,0,0,0-.17,2.58,2.58,0,0,1-.22.23h0a0,0,0,0,1,0,0l0-.06a1.14,1.14,0,0,0,.22-.27v-.05h-.09l-.07,0s0,0,0,0v-.3a0,0,0,0,1,0-.05h.14v-.08h-.1c-.1,0-.12,0-.12-.05s0,0,0,0h.17a0,0,0,0,0,0,0v-.06a.06.06,0,0,1,.07-.07,0,0,0,0,1,0,0,.5.5,0,0,1,0,.12h.12c.09,0,.1,0,.1,0s0,0-.09.05h-.13v.08h.17a0,0,0,0,1,0,.05s0,0,0,0,0,.08,0,.11v.15s0,0,0,0h-.16v.11a1.12,1.12,0,0,0,.16.13s0,0,0,0a0,0,0,0,1,0,0,.5.5,0,0,1-.17-.1Zm-.07-.68h-.11v.19h.11Zm.2.18v-.18h-.13v.19h.13Zm.3.49c-.16.17-.2.2-.26.2s0,0,0,0,0,0,0,0l.15-.13s0,0,0-.06,0-.05,0-.08,0-.28,0-.4V29.9s0,0,0-.06,0-.07,0-.07h.07a.31.31,0,0,0,.06-.13h-.16s-.08,0-.08-.05,0,0,.05,0h.43s.07,0,.07.05-.05.05-.08.05H35l-.06.12h.18s0,0,0,.05,0,.05,0,.08a.86.86,0,0,0,0,.17v.44a.06.06,0,0,1,0,.06.74.74,0,0,0,.12.13,0,0,0,0,1,0,0,0,0,0,0,1,0,0c-.06,0-.19-.18-.21-.2h-.11Zm.18-.26h-.25v.17H35a.91.91,0,0,0,0-.17Zm0-.23H34.8v.15H35ZM35,30H35v-.15H34.8V30H35Z" fill="#fff"/><path d="M36.32,29.8a0,0,0,0,0,0,0H36v.49c0,.06,0,.14,0,.2v.06s0,.11-.06.11h-.46s0,0-.07,0,0,0,0-.06,0-.12,0-.18v-.7s0-.06,0-.09a.07.07,0,0,1,.08-.07h.5s0,0,0,.05v.06h.53s.09,0,.09.05-.05.05-.08.05h-.11a.45.45,0,0,0,0,.11v.48c0,.06,0,.12,0,.18,0,.21-.08.23-.12.23s-.22-.11-.22-.14,0-.05,0-.05.12.08.16.08,0-.1,0-.11Zm-.86.23h.17v-.37h-.17V30Zm.17.5v-.41h-.17v.41h.17Zm.26-.41h-.18v.41h.18v-.41Zm0-.46h-.17V30h.17Z" fill="#fff"/><path d="M37.2,30.18c0-.07.06-.16.13-.16a.15.15,0,0,1,.13.14.13.13,0,0,1-.13.13A.12.12,0,0,1,37.2,30.18Z" fill="#fff"/><path d="M38.42,29.69h.13s.06,0,.06.05,0,.05-.12.05h-.34a0,0,0,0,1,0,0s0,0,.06,0h.17v0s0-.07,0-.1,0-.06,0-.06.05,0,.05.06v.12Zm.13,1s0,.09-.07.09H38.2a.06.06,0,0,1-.05-.05s0,0,0-.07v-.18s0,0,0-.07,0-.08.05-.08h.29a0,0,0,0,1,0,.05Zm-.32-.48s-.07,0-.07,0,0,0,.07,0h.27s0,0,0,0,0,.05,0,.05Zm.12-.29h.14s0,0,0,0,0,.05,0,.05h-.26s-.07,0-.07,0,0-.06.07-.06h.12Zm.11.61v-.1h-.21v.26h.21v-.16Zm.53.23h-.18s-.06,0-.06,0,0-.06,0-.09v-.32c-.12.09-.14.11-.16.11a0,0,0,0,1,0,0s0-.05.06-.06a2,2,0,0,0,.31-.27h-.29a0,0,0,0,1,0,0s0,0,.06,0h.24v-.21h-.18s-.06,0-.06,0a.05.05,0,0,1,.05,0h.19v-.07a.14.14,0,0,1,0-.06s0-.07.06-.07,0,0,0,.06v.15h.28s.08,0,.08.05,0,0-.07,0h0a.71.71,0,0,1-.14.2h.18c.09,0,.09,0,.09.05s0,0-.1,0H39l-.15.15h.28l.07,0s0,0,0,.07v.44s0,.07,0,.07H39Zm.21-.34v-.12h-.35v.15h.35Zm0,.1h-.35v.16h.35ZM39,30a.9.9,0,0,0,.15-.19v0H39V30Z" fill="#fff"/><path d="M39.67,30.51V30h-.15s-.06,0-.06,0,0,0,.06,0h.15v-.14a.19.19,0,0,0,0-.08s0-.05,0-.06a.1.1,0,0,1,.08-.09s0,0,0,.06,0,.09,0,.13v.18h.13s.06,0,.06,0,0,0-.07,0h-.12v.45l.13-.06s0,0,0,.05,0,.05,0,.06l-.29.13-.08,0a0,0,0,0,1,0,0,.07.07,0,0,1,0-.06l.17-.06Zm1.12.12a.05.05,0,0,1,0,0,0,0,0,0,1,0,0c-.06,0-.22-.22-.3-.35v.05c0,.35-.19.37-.21.37s-.13-.14-.17-.2a.82.82,0,0,1-.22.13,0,0,0,0,1,0,0,0,0,0,0,1,0,0,1.68,1.68,0,0,0,.34-.25,1.54,1.54,0,0,0,.17-.19.2.2,0,0,0,0-.08,1.13,1.13,0,0,1-.37.3s0,0,0,0a0,0,0,0,1,0,0l.06-.05a1.28,1.28,0,0,0,.29-.26L40.23,30s-.23.2-.29.2,0,0,0,0,0,0,0-.05a1.42,1.42,0,0,0,.32-.25H40.1c-.07,0-.08,0-.08,0s0,0,.1,0h.43s.07,0,.07,0,0,0-.07,0h-.18l-.08.09a.5.5,0,0,1,.16.24.74.74,0,0,0,.18-.17s0,0,0,0a0,0,0,0,1,0,0s-.08.12-.22.23a1.23,1.23,0,0,0,.22.29Zm-.79-1v.08s0,.08,0,.08,0,0,0,0,0-.07,0-.1,0-.06,0-.09,0,0,0,0h.77a0,0,0,0,1,0,0v.17a0,0,0,0,1,0,.05s0,0,0-.05v-.11Zm.4.73a.28.28,0,0,0,0-.09,1.81,1.81,0,0,1-.24.24l.05.07.07.09C40.39,30.65,40.4,30.5,40.4,30.39Z" fill="#fff"/><path d="M41.26,30.21v.46c0,.06,0,.11,0,.11a.06.06,0,0,1-.05-.06c0-.15,0-.3,0-.45v-.1a3.33,3.33,0,0,1-.25.28s0,0,0,0a0,0,0,0,1,0,0v0l.12-.15a.93.93,0,0,0,.18-.26v-.08H41s-.08,0-.08-.05.08-.05.11-.05h.15v-.18a0,0,0,0,1,0,0s0-.1.09-.1,0,0,0,.07v.25h.1c.09,0,.1,0,.1,0s0,.05-.12.05h-.08v.18a.75.75,0,0,0,.14.12s.07.05.07.08a0,0,0,0,1,0,0,.29.29,0,0,1-.15-.09Zm.72.48s-.07.09-.11.09a.56.56,0,0,1-.24-.1s0,0,0-.05a0,0,0,0,1,0,0l.2.1h0s0,0,0-.06v-.7h-.35s0,0,0,0,0-.06.07-.06h.33v-.18s0,0,0-.06a.13.13,0,0,1,.1-.1s0,0,0,.06,0,.06,0,.08v.2h.13s.08,0,.08,0-.06.06-.09.06H42v.76Zm-.2-.33c-.06,0-.22-.23-.22-.28s0,0,0,0,0,0,0,0l.06.1a1.34,1.34,0,0,0,.11.14v0A0,0,0,0,1,41.78,30.36Z" fill="#fff"/><path d="M42.79,30.18c0-.07.05-.16.13-.16a.15.15,0,0,1,.13.14.13.13,0,0,1-.13.13A.12.12,0,0,1,42.79,30.18Z" fill="#fff"/><path d="M44,30.36c0,.09,0,.17,0,.26s0,.17-.06.17a0,0,0,0,1,0-.05s0-.1,0-.15,0-.31,0-.46c-.15.28-.18.35-.22.35a0,0,0,0,1,0,0s0,0,0,0a2,2,0,0,0,.25-.48v0h-.2s0,0,0,0,0-.05.07-.05h.18s0-.07,0-.11,0-.07,0-.1,0-.09.06-.09,0,.08,0,.11v.19h.1s.08,0,.08,0a.05.05,0,0,1,0,0H44S44,30,44,30V30a1.57,1.57,0,0,0,.19.18.08.08,0,0,1,0,.05,0,0,0,0,1,0,0s-.13-.1-.18-.15Zm.89.37h-.49s-.07,0-.11,0a.05.05,0,0,1-.05-.05h0a.78.78,0,0,0,0-.14v-.76h0a0,0,0,0,1-.05,0,.1.1,0,0,0,0,0,.64.64,0,0,0,.24-.22.18.18,0,0,1,.09,0s0,0,0,0,0,0-.2.2v0h.22a1.54,1.54,0,0,0,.08-.19,0,0,0,0,1,0,0s0,0,0,0a.31.31,0,0,1-.06.18h.2c.11,0,.11,0,.11.05s0,.05-.1.05h-.2a.92.92,0,0,0,0,.16v0h.2a.06.06,0,0,1,.06.06,0,0,0,0,1,0,0h-.23v.2h.23a0,0,0,0,1,0,0,0,0,0,0,1,0,0s-.07,0-.09,0h-.17v.24h.28a0,0,0,0,1,0,0,.06.06,0,0,1-.06.05Zm-.31-.89h-.23V30h.23Zm0,.28h-.23v.19h.23Zm0,.28h-.23v.25h.23Z" fill="#fff"/><path d="M45.94,29.71c0,.05,0,.1,0,.1a0,0,0,0,1,0,0v-.06h-.29v0s0,.05,0,.06l0,0s-.05,0-.05-.07v0h-.3c-.07,0-.09,0-.09,0s.05-.06.07-.06h.32v-.05s0-.08.06-.08,0,0,0,.05v.08h.29v-.06s0-.08,0-.08a.05.05,0,0,1,.05.05v.09h.31c.08,0,.09,0,.09,0s0,0-.12,0h-.29Zm-.26,1v-.07a1,1,0,0,0,0-.17v0h0a.92.92,0,0,1-.45.31,0,0,0,0,1,0,0s0,0,0,0l.08,0a.77.77,0,0,0,.28-.19h-.37s-.07,0-.07,0,0-.06.07-.06l.16,0h.34v-.09h-.26s-.07,0-.07-.05,0-.11,0-.17V30h-.2s-.08,0-.08,0a.07.07,0,0,1,.07-.06h.2v0s0-.07,0-.07.05.05.05.08v0h.21v0a.43.43,0,0,0,0-.05.07.07,0,0,1,.07-.07s0,0,0,0v.1H46v-.09s0,0,0,0,.06,0,.06.07v.06h.18s.09,0,.09,0,0,0-.12,0h-.15v.11s0,0,0,0H45.7s0,0,0-.06V30h-.21s0,.08,0,.13,0,.09.05.09h.58s.07-.06.11-.06,0,0,0,0-.07.1-.13.1h-.31s0,.06,0,.09h.45s.1,0,.1,0,0,.05-.12.05h-.29a.94.94,0,0,0,.29.2l.08,0a.05.05,0,0,1,0,0s0,.05,0,.05a1.06,1.06,0,0,1-.47-.32h0v.07c0,.08,0,.15,0,.23a.06.06,0,0,1-.06.06s0,0,0-.06Zm.06-.74v.08H46V30Z" fill="#fff"/><path d="M46.85,30.21v.46c0,.06,0,.11-.05.11s0,0,0-.06,0-.3,0-.45v-.1a3.33,3.33,0,0,1-.25.28s0,0,0,0,0,0,0,0v0s.11-.13.12-.15a1.2,1.2,0,0,0,.18-.26v-.08h-.18s-.08,0-.08-.05.08-.05.11-.05h.15v-.1a.22.22,0,0,0,0-.08,0,0,0,0,1,0,0s.05-.1.09-.1,0,0,0,.07v.25H47c.09,0,.1,0,.1,0s0,.05-.12.05h-.08v.18a.75.75,0,0,0,.14.12s.07.05.07.08,0,0,0,0-.11-.06-.14-.09Zm.72.48s-.07.09-.11.09a.51.51,0,0,1-.24-.1s0,0,0-.05a0,0,0,0,1,0,0,1.24,1.24,0,0,1,.2.1h0s0,0,.05-.06v-.7h-.35s-.06,0-.06,0,0-.06.07-.06h.34v-.18s0,0,0-.06a.12.12,0,0,1,.1-.1s0,0,0,.06,0,.06,0,.08v.2h.13s.08,0,.08,0-.06.06-.1.06h-.11v.76Zm-.2-.33c-.06,0-.22-.23-.22-.28s0,0,.05,0l0,0,.06.1a1.34,1.34,0,0,0,.11.14v0A0,0,0,0,1,47.37,30.36Z" fill="#fff"/></svg>