<svg xmlns="http://www.w3.org/2000/svg" width="316" height="283" viewBox="0 0 316 283"><g transform="translate(-65 -119)"><g transform="translate(-99 -19)"><path d="M930.8-381.428v1.352s7.659-3.6,10.362-3.153a12.139,12.139,0,0,0,4.505,0s3.154.9,3.6,3.153l.451,2.252s4.954-4.054,5.406-4.279,0-4.28,0-4.28,2.955-6.758,3.956-8.108a6.864,6.864,0,0,1,2.151-1.588,23.267,23.267,0,0,1,2.452-1.116l3.155-3.6-2.7-3.6v-10.812l6.307,1.8,3.548-1.8a5.392,5.392,0,0,1,2.309-1.8c1.352-.45,9.01-2.253,9.01-2.253s7.659-8.559,8.561-9.911,0-4.5,0-4.5h-2.7s-3.605-11.263-2.253-13.514l2.7-4.507s3.153-4.054,4.5-4.054h8.11l7.207-2.7v-13.065L1001.2-484.753l-.575-.74h4.056s.9-1.8-1.8-5.406-4.955-3.6-4.955-3.6l-5.857,2.253-4.506.9-4.5-3.154h-6.307a49.259,49.259,0,0,0-2.759-5.857c-1.746-3.153,0-7.658,0-7.658s-.057-4.505,0-5.857-3.548-8.11-3.548-8.11l-.229-6.593c-.657.17-1.124.287-1.124.287l-7.657-4.506a12.111,12.111,0,0,0-4.506,0c-2.7.452-4.054,11.99-4.054,11.99l-2.7,2.427-13.065,4.5-2.253,2.252c-2.253,2.253-11.712,0-11.712,0s.451-6.756,0-8.109c-.205-.613-1.523-2.987-2.9-5.4a13.563,13.563,0,0,1-3.969,1.121c-3.716.338-17.232-2.366-17.232-2.366s-5.068,7.1-5.744,8.448,2.7,5.744.676,6.756-8.784,1.352-9.8,3.042,3.378,7.094,3.716,8.108-2.026,6.758-6.42,9.124-3.716,6.756-4.392,10.136,5.068,11.488,6.082,12.838-2.028,6.42-2.366,10.136,10.476,20.948,12.5,23.314,5.744.676,10.813,1.69,3.716,6.42,3.041,8.784.675,5.068,1.012,7.1.338,7.432,1.69,9.122,7.772,3.716,10.812,5.068,3.378,9.122,3.378,9.122a38.5,38.5,0,0,1-1.559,8.748c2.5.4,4.657.714,5.165.714C929-384.131,930.8-381.428,930.8-381.428Z" transform="translate(-634.362 797.825)" fill="#eae5d6" stroke="#f4f1e9" stroke-linecap="round" stroke-linejoin="round" stroke-width="2"/><path d="M1022.079-589.571,1013.971-572v4.054s-1.352,5.406-4.054,8.56-8.11,4.054-10.363,4.505,0,2.7,0,2.7l-3.153,7.659s-3.6-.45-4.956-1.352-5.406-.451-6.758-.451a9.888,9.888,0,0,1-3.6-1.35h-4.054l1.742,5.855s.962,4.056-.39,6.758,1.352,4.956,0,7.035c-1.046,1.609-4.253,10.552-5.648,14.506l2.944,4.139,5.406,7.658,2.7,3.6a6.383,6.383,0,0,1,4.506-2.251c2.7,0,7.207,2.251,7.207,2.251a8.95,8.95,0,0,0,0,3.6c.45,1.352,0,6.758,0,6.758l4.5,3.6V-481l2.253,3.153v3.605s9.911-2.253,10.812-3.605,7.659,3.605,7.659,3.605h3.153l6.757,2.8v-6.408a4.089,4.089,0,0,0,4.957-4.054c.449-4.955,3.6-12.613,3.153-16.667a45.408,45.408,0,0,1,.044-8.561l-7.7-4.5,4.507-4.5-3.605-2.7s0-3.039,1.8-3.547l1.8-.507s-5.859-5.754-4.507-5.129,3.155-2.135,3.155-2.135l4.549-.119-2.748-6.131,2.748-3.155,2.658-4.955s9.911-4.955,11.263-9.011,2.7-9.46,2.7-9.46V-567.5s2.7-.451,2.252-4.5a17.984,17.984,0,0,0-3.154-7.658l3.2-1.8v-2.7l5.355-2.7,5.966-1.147a13.834,13.834,0,0,1-.447-5.611l.337-5.744a112.11,112.11,0,0,1-9.122-7.432c-2.7-2.7-6.082-10.812-6.082-10.812s-5.744,1.012-10.136,1.688a42.144,42.144,0,0,1-9.8,0,26.712,26.712,0,0,1-1.69,3.38c-.826,1.377-3.445,3.417-5.668,4.676-.395,3.31-.964,7.014-1.652,8.388C1023.432-596.778,1022.079-589.571,1022.079-589.571Z" transform="translate(-590.041 758.642)" fill="#eae5d6" stroke="#f4f1e9" stroke-linecap="round" stroke-linejoin="round" stroke-width="2"/><path d="M909.462-487.474s9.459,2.253,11.712,0l2.253-2.252,13.065-4.505,2.7-2.427s1.352-11.538,4.054-11.99a12.112,12.112,0,0,1,4.506,0l7.658,4.506s.466-.117,1.124-.286c1.175-.3,2.964-.776,3.832-1.065a24.232,24.232,0,0,1,4.955-.451l4.056,3.154v-2.7s4.054-1.3,4.955-3.354,4.054-7.459,4.5-10.161a40.553,40.553,0,0,0,0-7.659l.2-2.7,5.208-4.124v-5.787s-2.253-6.307-4.054-7.207-9.913-2.208-9.913-2.208v-2.3l-4.955-3.153,4.955-2.253,1.8-4.054-5.857-4.956,10.812-4.955v-6.758c0-2.252-3.154-5.857-3.154-5.857l-5.547-2.17c-1.527.937-5.275,5.145-7.967,7.238-3.041,2.366-8.785,2.366-11.489,3.38s-2.026,8.108-3.04,9.8-4.392,6.758-4.392,8.446,1.35,8.448.336,8.448-6.756-1.69-8.446-3.042-5.744,1.014-7.1,2.366-10.812,16.894-11.15,20.273,2.028,13.854,1.69,16.894-6.082,8.108-6.082,8.108a26.84,26.84,0,0,1-4.139,2.259c1.378,2.413,2.7,4.787,2.9,5.4C909.913-494.23,909.462-487.474,909.462-487.474Z" transform="translate(-620.683 773.675)" fill="#eae5d6" stroke="#f4f1e9" stroke-linecap="round" stroke-linejoin="round" stroke-width="2"/><path d="M958.438-561.448v6.758l-10.812,4.955,5.857,4.956-1.8,4.054-4.955,2.253,4.955,3.153v2.3s8.11,1.306,9.912,2.208,4.054,7.207,4.054,7.207v7.659l18.47,4.956s.254-.733.66-1.886c1.394-3.954,4.6-12.9,5.648-14.506,1.352-2.079-1.352-4.331,0-7.034s.391-6.758.391-6.758l-1.742-5.855h4.054a9.881,9.881,0,0,0,3.6,1.35c1.352,0,5.406-.449,6.758.451s4.955,1.352,4.955,1.352l3.153-7.659s-2.253-2.253,0-2.7,7.659-1.352,10.363-4.5,4.054-8.56,4.054-8.56v-4.054l8.108-17.57s1.352-7.207,2.7-9.911c.688-1.374,1.257-5.078,1.652-8.388a14.92,14.92,0,0,1-1.428.73c-2.365,1.013-18.583,1.35-18.583,1.35s-4.055.676-5.068,2.7-3.38,1.352-6.42-1.013-2.7-7.1-3.042-8.784S996.506-619,996.506-619a9.443,9.443,0,0,1-3.38,3.716,9.481,9.481,0,0,1-9.123-.872c-3.378-2.222-13.852,1.548-16.894,3.238S960.353-602.444,959-601.43s-2.7,6.42-3.042,7.771-4.054,2.366-4.392,3.718,4.73,4.392,5.744,6.08-2.7,3.042-3.716,6.082-2.366,8.109-3.38,8.109a1.077,1.077,0,0,0-.479.195l5.547,2.17S958.438-563.7,958.438-561.448Z" transform="translate(-602.084 758)" fill="#eae5d6" stroke="#f4f1e9" stroke-linecap="round" stroke-linejoin="round" stroke-width="2"/><path d="M981.943-478.594l3.6,4.054,4.054,2.253,2.7,2.7,5.857,2.253-2.777-5.631s.376-1.577,0-2.028.524-1.8.524-1.8,3.154-3.155,4.5-1.8l3.154,3.153,4.955-.451,2.7.451v2.31h4.507v5.8s3.6-4.055,4.5-2.253a5.612,5.612,0,0,1,0,4.054l-3.605,1.8s0,10.363,1.352,11.263,3.606-.45,4.506-1.8a36.111,36.111,0,0,0,2.252-4.955s6.307-.9,9.01-4.5a11.665,11.665,0,0,0,1.962-8.108l-3.763-3.154s-1.8-4.956-2.7-7.658-2.251-7.659-2.251-7.659l-7.209-4.054-3.6-2.253-3.153-6.206,4.054-3.631v-2.777l-2.253-3.153v-3.153l-4.5-3.6s.451-5.406,0-6.758a8.957,8.957,0,0,1,0-3.605s-4.5-2.251-7.207-2.251a6.383,6.383,0,0,0-4.507,2.251l-2.7-3.6-5.406-7.657-2.944-4.139c-.405,1.153-.659,1.886-.659,1.886l-18.47-4.955v-1.873l-5.207,4.125-.2,2.7a40.552,40.552,0,0,1,0,7.659c-.45,2.7-3.6,8.109-4.5,10.161s-4.955,3.354-4.955,3.354v2.7l-4.055-3.154a24.25,24.25,0,0,0-4.956.451c-.867.289-2.657.762-3.832,1.065l.228,6.593s3.6,6.758,3.548,8.11,0,5.857,0,5.857-1.745,4.505,0,7.658a49.337,49.337,0,0,1,2.759,5.857h6.307l4.5,3.154,4.507-.9,5.856-2.253s2.252,0,4.955,3.605,1.8,5.406,1.8,5.406l2.7-.9Z" transform="translate(-604.865 790.024)" fill="#eae5d6" stroke="#f4f1e9" stroke-linecap="round" stroke-linejoin="round" stroke-width="2"/></g><text transform="translate(65 373)" fill="#cec7b1" font-size="12" font-family="Lato-BoldItalic, Lato" font-weight="700" font-style="italic" letter-spacing="0.1em"><tspan x="0" y="0">TAKACHIHOGO</tspan><tspan x="0" y="18">TABERU TSUSHIN</tspan></text></g></svg>