<svg xmlns="http://www.w3.org/2000/svg" width="72.179" height="65.537" viewBox="0 0 72.179 65.537"><g transform="translate(35.125 0)"><path d="M0,1.946,3.051,0l.718.692.615,2.344-2.763.237Z" transform="translate(6.85)" fill="#e2a257"/><path d="M0,0H3.619l.233.97L3.11,3.277.653,1.991Z" transform="translate(8.537 9.022)" fill="#e2a257"/><path d="M0,1.946,3.051,0l.718.692.615,2.344-2.764.237Z" transform="translate(13.656 4.705)" fill="#e2a257"/><path d="M0,.8,2.287,0,4.166.844l.986,2.231L2.63,3.44l-2-.908Z" transform="translate(12.698 0.066)" fill="#e2a257"/><path d="M.251,0l2.4.36L3.915,1.983l-.17,2.433-2.4-.854L0,1.826Z" transform="translate(27.044 10.822)" fill="#e2a257"/><path d="M4.269,3.673l-2.421.1L.3,2.421,0,0,2.519.383l1.649,1.45Z" transform="translate(20.455 5.46)" fill="#e2a257"/><path d="M5.41.923,4.17,3.005l-1.982.559L0,2.486,1.7.587,3.815,0Z" transform="translate(0 4.201)" fill="#e2a257"/><path d="M0,.68,2.223,0l2.4,2.2-.28,1.4L1.961,3.119l-1.693-.9Z" transform="translate(19.774 1.468)" fill="#e2a257"/><path d="M0,.68,2.223,0l2.4,2.2-.28,1.4L1.961,3.119l-1.693-.9Z" transform="translate(2.322 8.322)" fill="#e2a257"/><path d="M5.168,1.387,3.438,2.939l-3.1-.991L0,.558,2.362,0,4.277.1Z" transform="translate(20.299 10.946)" fill="#e2a257"/><path d="M.149,0,2.825.8,2.771,2.946,1.686,4.7,0,3.489Z" transform="translate(26.422 4.83)" fill="#e2a257"/><path d="M4.914,1.563,3.087,3.677,1.153,2.751,0,1.045,1.791,0Z" transform="translate(14.575 8.884)" fill="#e2a257"/><path d="M4.932,1.029,3.477,3.414l-2.06-.6L0,1.324,1.595,0Z" transform="translate(7.477 4.199)" fill="#e2a257"/></g><g transform="translate(50.337 20.636)"><path d="M0,.728,2.84,0l.378.714L3.1,2.674.913,2.159Z" transform="translate(5.528)" fill="#e2a257"/><path d="M0,0,2.786.914l-.065.805L1.568,3.308,0,1.7Z" transform="translate(5.042 6.602)" fill="#e2a257"/><path d="M0,.728,2.84,0l.378.714L3.1,2.674.913,2.159Z" transform="translate(9.582 5.34)" fill="#e2a257"/><path d="M0,.039,1.963,0,3.2,1.124l.2,1.966L1.359,2.735l-1.31-1.2Z" transform="translate(10.304 1.334)" fill="#e2a257"/><path d="M.654,0,2.408.882l.566,1.569L2.23,4.282.6,3.019,0,1.342Z" transform="translate(18.376 12.721)" fill="#e2a257"/><path d="M2.744,3.9.854,3.372,0,1.939.384,0,2.227.93l.9,1.533Z" transform="translate(14.733 6.867)" fill="#e2a257"/><path d="M4.56,1.195,3.08,2.485l-1.667-.07L0,1.034,1.787,0,3.564.082Z" transform="translate(0 0.622)" fill="#e2a257"/><path d="M.182,0,2.065.038l1.288,2.3-.57,1.009L1.076,2.373,0,1.252Z" transform="translate(15.247 4.145)" fill="#e2a257"/><path d="M.182,0,2.065.038l1.288,2.3-.57,1.009L1.076,2.373,0,1.252Z" transform="translate(1.022 4.023)" fill="#e2a257"/><path d="M3.862,1.942,2.138,2.7,0,1.155.092,0l1.96.166L3.5.73Z" transform="translate(13.38 11.481)" fill="#e2a257"/><path d="M.995,0,2.853,1.293,2.271,2.93.993,4,0,2.649Z" transform="translate(18.99 7.925)" fill="#e2a257"/><path d="M3.652,1.991,1.712,3.158.457,1.957,0,.352,1.642,0Z" transform="translate(9.462 8.471)" fill="#e2a257"/><path d="M3.872,1.635,2.15,3.1.714,2.125,0,.617,1.562,0Z" transform="translate(5.108 3.024)" fill="#e2a257"/></g><path d="M13.827,0,2.969,5.406,0,16.864,1.8,56.421l2.958.34L2.656,48.524l.2-32.678L5.132,7.453Z" transform="translate(20.98 8.776)" fill="#69a046"/><path d="M32.593,2.3,22.162,0,8.082,7.985,0,42.106l4.411.862,1.452-8.222,4.6-26.815L22.545,2.37Z" transform="translate(17.482 21.996)" fill="#69a046"/><path d="M5.255,31.955,7.09,16.377,24,3.936,33.4,8.9,24.5,0,17.828,2.877,3.654,12.023,0,31.658Z" transform="translate(20.017 33.064)" fill="#69a046"/><path d="M14.943,42.419,18.7,28.072,10.416,3.229,0,4.238,11.146,0l5.446,4.288,7.5,24.057L20.5,43.233Z" transform="translate(0 21.601)" fill="#69a046"/></svg>