<svg xmlns="http://www.w3.org/2000/svg" width="189.702" height="220.296" viewBox="0 0 189.702 220.296"><g transform="translate(-186.991 -510)"><g transform="translate(-54.659 372)"><path d="M917.789-418.094v1.025s5.806-2.732,7.855-2.39a9.2,9.2,0,0,0,3.415,0s2.391.682,2.733,2.39l.342,1.707s3.755-3.073,4.1-3.244,0-3.245,0-3.245a65.728,65.728,0,0,1,3-6.147,5.2,5.2,0,0,1,1.631-1.2,17.649,17.649,0,0,1,1.859-.846l2.392-2.732-2.05-2.733v-8.2l4.782,1.367,2.689-1.367a4.087,4.087,0,0,1,1.75-1.365c1.025-.341,6.83-1.708,6.83-1.708s5.806-6.489,6.49-7.513,0-3.415,0-3.415h-2.05s-2.733-8.538-1.708-10.245l2.05-3.417s2.39-3.073,3.415-3.073h6.148l5.464-2.049v-9.9l-7.761-10.025-.436-.561H973.8s.682-1.367-1.367-4.1-3.756-2.733-3.756-2.733l-4.44,1.708-3.416.683-3.414-2.391h-4.782a37.337,37.337,0,0,0-2.092-4.44c-1.323-2.39,0-5.805,0-5.805s-.043-3.415,0-4.44-2.689-6.148-2.689-6.148l-.173-5c-.5.129-.852.218-.852.218l-5.805-3.416a9.183,9.183,0,0,0-3.416,0c-2.049.343-3.073,9.089-3.073,9.089l-2.049,1.84-9.9,3.415-1.708,1.707c-1.708,1.708-8.879,0-8.879,0s.342-5.122,0-6.147c-.155-.465-1.155-2.265-2.2-4.094a10.279,10.279,0,0,1-3.009.85c-2.817.256-13.064-1.793-13.064-1.793s-3.842,5.379-4.355,6.4,2.05,4.354.513,5.122-6.659,1.025-7.428,2.306S885-508.769,885.259-508s-1.536,5.123-4.867,6.917-2.817,5.122-3.329,7.684,3.842,8.709,4.61,9.733-1.537,4.867-1.793,7.684,7.942,15.881,9.478,17.674,4.355.513,8.2,1.281,2.817,4.867,2.306,6.659.511,3.842.768,5.379.256,5.634,1.281,6.916,5.892,2.817,8.2,3.842,2.561,6.915,2.561,6.915a29.186,29.186,0,0,1-1.182,6.632c1.894.3,3.53.541,3.915.541C916.424-420.143,917.789-418.094,917.789-418.094Z" transform="translate(-634.362 767.387)" fill="#eae5d6" stroke="#f4f1e9" stroke-linecap="round" stroke-linejoin="round" stroke-width="2"/><path d="M1010.142-596.355,1004-583.035v3.073a18.86,18.86,0,0,1-3.073,6.49c-2.05,2.39-6.148,3.074-7.856,3.415s0,2.048,0,2.048l-2.39,5.806a12.4,12.4,0,0,1-3.757-1.025c-1.025-.682-4.1-.342-5.123-.342a7.5,7.5,0,0,1-2.733-1.024H975.99l1.321,4.439s.729,3.075-.3,5.123,1.025,3.757,0,5.333c-.793,1.22-3.224,8-4.282,11l2.232,3.138,4.1,5.805,2.05,2.732a4.839,4.839,0,0,1,3.416-1.707c2.048,0,5.464,1.707,5.464,1.707a6.785,6.785,0,0,0,0,2.733c.341,1.025,0,5.123,0,5.123l3.415,2.732v2.39l1.708,2.39v2.733s7.513-1.708,8.2-2.733,5.806,2.733,5.806,2.733h2.39l5.122,2.125v-4.858a3.1,3.1,0,0,0,3.758-3.073c.34-3.757,2.732-9.562,2.39-12.635a34.421,34.421,0,0,1,.034-6.49l-5.84-3.415,3.416-3.415-2.733-2.05s0-2.3,1.367-2.689l1.366-.385s-4.441-4.362-3.416-3.888,2.392-1.619,2.392-1.619l3.448-.09-2.083-4.648,2.083-2.392,2.015-3.757s7.514-3.756,8.538-6.831,2.049-7.172,2.049-7.172v-3.415s2.049-.342,1.707-3.415a13.634,13.634,0,0,0-2.391-5.805l2.429-1.366v-2.05l4.059-2.049,4.523-.87a10.489,10.489,0,0,1-.339-4.254l.256-4.354a84.991,84.991,0,0,1-6.915-5.634c-2.05-2.05-4.611-8.2-4.611-8.2s-4.354.768-7.684,1.28a31.951,31.951,0,0,1-7.428,0,20.248,20.248,0,0,1-1.281,2.562,13.93,13.93,0,0,1-4.3,3.545,27.277,27.277,0,0,1-1.252,6.359C1011.167-601.819,1010.142-596.355,1010.142-596.355Z" transform="translate(-623.915 758.151)" fill="#eae5d6" stroke="#f4f1e9" stroke-linecap="round" stroke-linejoin="round" stroke-width="2"/><path d="M908.76-511.1s7.171,1.708,8.879,0l1.708-1.707,9.9-3.415,2.048-1.84s1.025-8.747,3.073-9.09a9.183,9.183,0,0,1,3.416,0l5.805,3.416s.354-.089.852-.217c.89-.23,2.247-.588,2.9-.807a18.373,18.373,0,0,1,3.756-.342l3.075,2.391v-2.05s3.073-.986,3.757-2.542,3.073-5.655,3.415-7.7a30.747,30.747,0,0,0,0-5.806l.151-2.05,3.948-3.127v-4.387s-1.708-4.781-3.073-5.464-7.515-1.674-7.515-1.674v-1.743l-3.757-2.39,3.757-1.708,1.367-3.073-4.44-3.757,8.2-3.757v-5.123c0-1.707-2.391-4.44-2.391-4.44l-4.205-1.645c-1.158.71-4,3.9-6.04,5.487-2.3,1.793-6.66,1.793-8.709,2.562s-1.536,6.147-2.3,7.428-3.329,5.123-3.329,6.4,1.023,6.4.255,6.4-5.122-1.281-6.4-2.306-4.355.769-5.379,1.793-8.2,12.807-8.453,15.368,1.537,10.5,1.281,12.807-4.611,6.147-4.611,6.147a20.348,20.348,0,0,1-3.138,1.713c1.045,1.829,2.044,3.629,2.2,4.094C909.1-516.224,908.76-511.1,908.76-511.1Z" transform="translate(-631.138 761.694)" fill="#eae5d6" stroke="#f4f1e9" stroke-linecap="round" stroke-linejoin="round" stroke-width="2"/><path d="M955.6-575.371v5.123l-8.2,3.757,4.44,3.757-1.366,3.073-3.757,1.708,3.757,2.39v1.743s6.148.99,7.514,1.674,3.073,5.464,3.073,5.464v5.806l14,3.757s.193-.555.5-1.43c1.057-3,3.488-9.777,4.281-11,1.025-1.576-1.025-3.283,0-5.333s.3-5.123.3-5.123l-1.321-4.439H981.9a7.491,7.491,0,0,0,2.733,1.024c1.025,0,4.1-.34,5.123.342a12.4,12.4,0,0,0,3.756,1.025l2.39-5.806s-1.708-1.708,0-2.049,5.807-1.025,7.856-3.415a18.865,18.865,0,0,0,3.073-6.49v-3.073l6.147-13.32s1.025-5.464,2.05-7.513a27.316,27.316,0,0,0,1.252-6.359,11.291,11.291,0,0,1-1.082.554c-1.793.768-14.087,1.024-14.087,1.024s-3.074.512-3.842,2.049-2.562,1.025-4.867-.768-2.05-5.38-2.306-6.659S984.464-619,984.464-619a7.159,7.159,0,0,1-2.562,2.817,7.188,7.188,0,0,1-6.916-.661c-2.561-1.685-10.5,1.174-12.807,2.455s-5.122,7.94-6.147,8.709-2.05,4.867-2.306,5.891-3.073,1.793-3.33,2.819,3.586,3.33,4.354,4.609-2.048,2.306-2.817,4.611-1.794,6.148-2.562,6.148a.817.817,0,0,0-.363.148l4.205,1.645S955.6-577.078,955.6-575.371Z" transform="translate(-626.754 758)" fill="#eae5d6" stroke="#f4f1e9" stroke-linecap="round" stroke-linejoin="round" stroke-width="2"/><path d="M971.97-495.83l2.733,3.073,3.074,1.708L979.825-489l4.44,1.708-2.105-4.269s.285-1.2,0-1.537.4-1.365.4-1.365,2.391-2.392,3.415-1.367l2.391,2.39,3.757-.342,2.049.342v1.751h3.416v4.4s2.732-3.074,3.415-1.708a4.255,4.255,0,0,1,0,3.073l-2.733,1.366s0,7.856,1.025,8.538,2.734-.341,3.416-1.367a27.375,27.375,0,0,0,1.707-3.757s4.782-.683,6.83-3.415a8.844,8.844,0,0,0,1.487-6.147l-2.853-2.391s-1.366-3.757-2.05-5.805-1.707-5.806-1.707-5.806l-5.465-3.073-2.732-1.708-2.39-4.705,3.073-2.753v-2.105l-1.708-2.39v-2.39l-3.415-2.732s.342-4.1,0-5.123a6.79,6.79,0,0,1,0-2.733s-3.415-1.707-5.463-1.707a4.839,4.839,0,0,0-3.416,1.707l-2.05-2.732-4.1-5.8-2.232-3.138c-.307.874-.5,1.429-.5,1.429l-14-3.757v-1.42l-3.947,3.127-.151,2.05a30.74,30.74,0,0,1,0,5.806c-.341,2.049-2.733,6.147-3.415,7.7s-3.757,2.542-3.757,2.542v2.05l-3.074-2.391a18.386,18.386,0,0,0-3.757.342c-.658.219-2.014.577-2.9.807l.173,5s2.732,5.123,2.69,6.148,0,4.44,0,4.44-1.323,3.415,0,5.805a37.4,37.4,0,0,1,2.092,4.44h4.782l3.414,2.391,3.416-.683,4.44-1.708s1.707,0,3.757,2.733,1.366,4.1,1.366,4.1l2.049-.683Z" transform="translate(-627.41 765.548)" fill="#eae5d6" stroke="#f4f1e9" stroke-linecap="round" stroke-linejoin="round" stroke-width="2"/></g><g transform="translate(609.935 -788)"><g transform="translate(-393.611 1351)"><path d="M1039.7,183.691l11.1,12.881-4.236,3.139-9.591-11.024" transform="translate(-895.391 -178.235)" fill="#e83015"/><path d="M1042.167,197.137l9.824,12.069-5.687,4.012-8.662-11.78" transform="translate(-895.699 -184.483)" fill="#e83015"/><path d="M1043.448,212.6l12.728,17.145-8.183,5.117-10.118-15.843" transform="translate(-895.807 -191.666)" fill="#e83015"/><path d="M911.662,456.957l-2.436,5.458,3.4,7.819,4.419.227.906-2.04.567,1.02,1.473-.793-1.473-7.025,3.091-5.672-.145-2.713-8.385-.68Z" transform="translate(-836.03 -303.164)" fill="#f0d4ae"/><path d="M815.719,319.354l-1.675,8.3L781.58,361.857l5.9,4.127,28.4-36.683,1.964-10.209Z" transform="translate(-776.719 -241.15)" fill="#e83015"/><path d="M1000.555,447.479l1.1,8.282,3.221,2.643,9.212-2.246,6.918-2.686-.634-2.618-4.452.333-7.367-1.9.055-7.161Z" transform="translate(-878.466 -298.316)" fill="#f0d4ae"/><path d="M926.716,222.441l-3.952-2.488,1.464,3.22-8.2,3.22-2.635,5.123-1.61,5.855,2.781-2.2-3.952,8.2.439,5.416,1.317-5.123.146,4.1L909,255.523l.586,8.783,1.61-2.781,4.1,11.271,4.1,9.954,7.758,2.049,2.049,6.148,7.758-9.661,6.294,1.171.732-8.344,5.27,4.391,2.2-10.979,2.342.586-.878-15.956,2.781-.732-3.074-13.174,1.9,2.049-6-13.613,2.049,1.464-6-6-4.977-1.757,1.9-1.9-6.148,2.049,1.9-4.538-4.977,4.977-6.587-3.513Z" transform="translate(-835.927 -193.248)" fill="#d8d488"/><g transform="translate(55.676 57.1)"><path d="M956.1,387.273l11.459,36.557,11.778,1.071,13.919-7.495,12.313-2.677-4.747-9.573-15.99-18.968Z" transform="translate(-913.484 -329.426)" fill="#fff"/><path d="M892.461,386.825l-11.142,16.422L876.5,424.661l9.765.652,8.972,5.237,15.435-1.555,19.363-.051,4.818-21.414-9.6-18.016" transform="translate(-876.5 -329.722)" fill="#fff"/><path d="M903.873,337.562l5.955-10.888-8.377-44.28,3.1-.292,51.036-1.942-3.037,46.514,7.814,12.442" transform="translate(-888.093 -280.16)" fill="#fff"/></g><path d="M951.5,288.077l2.141,6.424,3.657,5.7,1.7-.886,1.606-5.889.186-5.841Z" transform="translate(-855.673 -226.512)" fill="#f0d4ae"/><path d="M947.832,287.088l4.853,10.552-.628,2.513L940.5,281.5Z" transform="translate(-850.562 -223.682)" fill="#f2f2f2"/><path d="M915.109,363.566l25.963.78,19.886-3.209.167,2.181-21.005,3.369-28.106-.585Z" transform="translate(-837.325 -260.686)" fill="#c1272d"/><path d="M872.146,283.959l-19.727,3.288-9.636-3.747L838.5,299.56l3.784,7.234L839.5,342.8,855.1,358.449l25.394-31.014-2.342-17.273Z" transform="translate(-803.167 -224.612)" fill="#fff"/><path d="M958.259,284.234,956.618,295.6l-9.006,12.147,2.094,2.723,9.006-13.4,3.655-15.446Z" transform="translate(-853.866 -223.74)" fill="#f2f2f2"/><path d="M1004.9,275.712l12.848-3.212,8.565,1.606,7.445,2.254-9.051,32.009,10.076,22.738-18.641,13.13L997.3,319.219l6.309-35.833Z" transform="translate(-876.952 -219.501)" fill="#fff"/><path d="M917.873,279.177,889.5,276.5l12.848,36.4,1.545,10.4-8.232,25.287,42.45,3.849L929.847,312.9l-9.3-13.919Z" transform="translate(-826.864 -221.359)" fill="#db5526"/><path d="M970.98,277.376l24.808-4.876-6.649,10.886-5.262,35.623,7.628,15.056-14.211,15.088L967.048,309.5l3.579-12.905Z" transform="translate(-862.487 -219.501)" fill="#db5526"/><path d="M955.556,245.35l2.141,2.141-1.241,10.426-4.113,7.24-4.283-.535-4.818,1.606-9.636-7.495L932,251.774l1.071-2.677-1.646-5.379,3.806-5.562,13.321-2.2,5.416,2.488Z" transform="translate(-846.345 -202.522)" fill="#f8f8e7"/><path d="M946.351,255.9l-1.213,2.425h-4.245l-.606-3.638Z" transform="translate(-850.463 -211.224)" fill="#fbb03b"/><path d="M961.767,253.3l1.824,2.337,3.15-1.363.647-3.277Z" transform="translate(-860.443 -209.511)" fill="#fbb03b"/><path d="M936.535,246l9.946,4.954-1.213,1.213L936,250.792Z" transform="translate(-848.471 -207.187)" fill="#010a10"/><path d="M959.086,247.844,966,241l1.206,5.517L959.915,249Z" transform="translate(-859.198 -204.864)" fill="#010a10"/><path d="M954.532,251.5l2.141,4.283,2.294,2.915-3.17,2.488-4.684-1.757.293-2.488h1.9" transform="translate(-855.493 -209.743)" fill="none" stroke="#cccab2" stroke-miterlimit="10" stroke-width="1"/><path d="M944.148,267.833l8.051,1.757,2.2-.293,4.538-3.806.586,3.074-.878,3.952-6.068.592-3.74,1.9L944,272.723Z" transform="translate(-852.188 -216.244)" fill="#010a10" stroke="#ef1414" stroke-miterlimit="10" stroke-width="1"/><path d="M944.55,243.166l6.441.732,3.659-2.2" transform="translate(-852.444 -205.19)" fill="none" stroke="#cccab2" stroke-miterlimit="10" stroke-width="1"/><path d="M945.1,246.594l6.734.732,3.22-2.342" transform="translate(-852.698 -206.715)" fill="none" stroke="#cccab2" stroke-miterlimit="10" stroke-width="1"/><path d="M935.5,262.5h4.283l2.677,2.141" transform="translate(-848.238 -214.854)" fill="none" stroke="#cccab2" stroke-miterlimit="10" stroke-width="1"/><path d="M973.389,257.035l-3.212-.535-2.677,2.677" transform="translate(-863.107 -212.066)" fill="none" stroke="#cccab2" stroke-miterlimit="10" stroke-width="1"/><path d="M945.227,258.049h-1.085l.492.937,1.325.1.743-.957-.391-1.176-1.182-.64-.987,1.092Z" transform="translate(-852.254 -211.981)" fill="#010a10"/><path d="M965.784,255.816l-.855.256.608.622,1.069-.23.36-.929-.478-1.013-1.082-.226-.627,1.272Z" transform="translate(-861.843 -211.041)" fill="#010a10"/><path d="M851.683,297.462l1.741,13.773-3.569,18.795-2.141-1.748.892-19.888-1.606-5.9,1.428-6.993Z" transform="translate(-807.117 -230.188)" fill="#ededed"/><path d="M946.571,273.285l1.1-1.511.615.524,1.191-1.093,1.231,1.048.585-1.082,1.231,1.048.585-1.082,1.221.513.585-1.082,1.221.513,1.191-1.093,1.241,1.583.85-2.567-.325-1.726L955.01,270.3l-4.331.346-5.014-1.079-.165,1.576Z" transform="translate(-852.885 -217.073)" fill="#fff" stroke="#010a10" stroke-miterlimit="10" stroke-width="1"/><path d="M1044.132,283.121l-3.562,13.767-1.669,12.248,2.758,3.345,3.224-14.319,4.29-13.733-2.329-3.45Z" transform="translate(-896.284 -223.441)" fill="#ededed"/><path d="M946.143,277.106l.249-.24,1.606.24,1.606,1.071,3.747-1.606,4.283-.535,1.071-.535.535,1.071-6.424,1.071-2.716,1.482Z" transform="translate(-853.241 -220.895)" fill="#fff"/><path d="M1040.352,282.4l-4.711,9.692-2.141,20.879" transform="translate(-893.774 -224.098)" fill="none" stroke="#f2efef" stroke-miterlimit="10" stroke-width="1"/><path d="M1029.366,204.459l14.683,63.708,1.661-.329-13.488-63.772Z" transform="translate(-891.853 -187.703)" fill="#e2e1e0"/><path d="M852.463,274.638,845.83,298.47l2.2.225,6.815-24.336Z" transform="translate(-806.573 -220.364)" fill="#c69c6d"/><path d="M849.44,292.448l-3.61,14.3,2.2.225,3.792-14.8Z" transform="translate(-806.573 -228.64)" fill="#c1272d"/><path d="M849.043,286.171l5.917.408-.022,3.1-2.049.511,1.358,1.419-3.312,5.345-5.71-1.422.614-4.756Z" transform="translate(-806.292 -225.853)" fill="#f0d4ae"/><path d="M1045.609,270.413l-5.064,1.352-.709,2.469,2.752-.279-1.838,2.679,1.951,5.771,5.541-1.616.415-7.5Z" transform="translate(-896.718 -218.531)" fill="#f0d4ae"/><path d="M868.853,249.783l-1.8,1.978,2.078,2.329,1.94-.2,1.642-1.025-.6-3.155Z" transform="translate(-816.433 -208.91)" fill="#f7d64d"/><path d="M863.437,239.887l-.873,2.53,1.787.73,3.56-.47-1.657-3.4Z" transform="translate(-814.348 -204.062)" fill="#f7d64d"/><path d="M850.622,258.019l.782,2.56,2.742-1.286-.1-2.881-2.2-.225Z" transform="translate(-808.799 -211.921)" fill="#f7d64d"/><path d="M868.508,261.31l.856-1.887,2.71-.088,1.993,1.822-1.317,1.749-3.079.88Z" transform="translate(-817.11 -213.384)" fill="#f7d64d"/><path d="M856.554,269.223l1.231-1.832,2.335,1.413.6,3.063-2.881.1-1.692-.043Z" transform="translate(-811.367 -217.127)" fill="#f7d64d"/><path d="M846.908,265.256l-.012,3.591,2.152.725,1.447-3.108Z" transform="translate(-807.068 -216.135)" fill="#f7d64d"/><path d="M867.9,269.7l.272,3.016,1.987.961,2.812-2.534-1.712-2.126Z" transform="translate(-816.827 -217.881)" fill="#f7d64d"/><path d="M858.39,248.791l3.107-.3.53,2.624-2.117,1.957-2.417-1.151Z" transform="translate(-811.992 -208.345)" fill="#f7d64d"/><path d="M860.425,263.191,858.795,261l1.433-1.591,2.57,1.306-.24,2.666Z" transform="translate(-812.597 -213.419)" fill="#f7d64d"/><path d="M1014.136,185.318l-9.636,2.141,2.677,7.495,23.555-5.889-3.212-8.566Z" transform="translate(-880.299 -176.753)" fill="#f2f2f2"/><path d="M1015.5,174.571l5.889,19.273,9.1-2.141-5.889-18.2Z" transform="translate(-885.41 -173.5)" fill="#f2f2f2"/><path d="M1015.53,199.5l-8.03,14.99,4.818,2.141,6.96-12.848" transform="translate(-881.693 -185.581)" fill="#20723c"/><path d="M1015.46,213.5l-6.96,13.919,6.424,2.677,5.889-13.384" transform="translate(-882.158 -192.086)" fill="#20723c"/><path d="M1015.189,229.065,1006.5,248.57l9.1,3.212,6.424-17.666" transform="translate(-881.229 -199.318)" fill="#20723c"/><path d="M1021.816,193.018l7.292,17.783,7.924-4.571-7.558-16.111" transform="translate(-888.345 -181.222)" fill="#f2f2f2"/><path d="M1020.49,209.457l7.293,17.783,7.924-4.571-7.558-16.111" transform="translate(-887.729 -188.86)" fill="#f2f2f2"/><path d="M1023.269,232.31l7.293,17.783,7.924-4.571-7.558-16.111" transform="translate(-889.02 -199.479)" fill="#f2f2f2"/><path d="M812.264,321.9l-2.312,8.143-35.016,31.589,5.565,4.572,31.153-34.374,2.749-10.027Z" transform="translate(-773.632 -242.411)" fill="#f2f2f2"/><path d="M811.58,319.5l-2.677,8.03-36.4,29.98,5.353,4.818,32.67-32.935,3.2-9.893Z" transform="translate(-772.5 -241.339)" fill="#20723c"/><path d="M858.283,302l2.677,15.525L854,338.4" transform="translate(-810.369 -233.208)" fill="none" stroke="#f2efef" stroke-miterlimit="10" stroke-width="1"/><path d="M863.681,236.105l-2.889,5.066h1.567l-3.427,4.358v6.128l-7.154,3.727-5.052,7.3,7.166-1.479v3.209l4.152-4.181,1.96,4.181,4.3-6.761,3.239,2.581,1.238-7.219v-6.125l2.152,2.024-2.152-7.744-2.583-5.066Z" transform="translate(-780.081 -181.69)" fill="#d8d488"/><path d="M853.976,236.105l2.889,5.066H855.3l3.427,4.358v6.128l7.154,3.727,5.052,7.3-7.166-1.479v3.209l-4.152-4.181-1.96,4.181-4.3-6.761-3.239,2.581-1.238-7.219v-6.125l-2.152,2.024,2.152-7.744,2.583-5.066Z" transform="translate(-737.881 -184.383)" fill="#d8d488"/></g></g></g></svg>