<svg xmlns="http://www.w3.org/2000/svg" width="115.564" height="164.606" viewBox="0 0 115.564 164.606"><path d="M0,2.448,15.547,42.373l47.285,1.691L68.544,0Z" transform="translate(14.688 120.542)" fill="#d09c60"/><path d="M68.544,21.216,74.256.816,39.168,0,0,23.664Z" transform="translate(14.688 99.326)" fill="#9a672c"/><path d="M13.872,0V37.536L2.448,64.464,0,21.216Z" transform="translate(75.072 100.142)" fill="#ba884e"/><path d="M0,21.216,8.16,32.64,25.3,4.08,13.872,0" transform="translate(75.072 100.142)" fill="#d09c60"/><path d="M14.688,23.664H0L53.856,0Z" transform="translate(0 99.326)" fill="#d09c60"/><g transform="translate(25.353 32.214) rotate(13)"><path d="M9.02,3.656,0,16.128,8.775,26.6l18.648,1.342,10.29-13.475L32.554,2.225,23.342,0l-4.4,4.682Z" transform="translate(0 1.45)" fill="#db4926"/><path d="M10.137,3.312,3.19,0,5.363,4.53,0,7.425l7.648.082,2.894,5.363.765-6.3,7.655,1.436-4.482-4.28L18.8.082Z" transform="translate(7.239 0)" fill="#20723c"/></g><g transform="translate(55.52 0)"><g transform="translate(1.693 0)"><path d="M29.11,0,19.349,6.168s-.872,5.168-.872,5.668-8.89,8.5-8.89,8.5L0,29.173,8.193,42.341l22.137-2.5,6.624-12.836,3.138-11,6.1-4.667L43.054,1.167Z" transform="translate(0)" fill="#cb3204"/></g><g transform="translate(0 0.446)"><path d="M10.916,38.3,0,28.788l9.509-9.782c3.495-2.863,8.539-7.084,9.53-8.094.1-1.128.435-4.5.478-4.935l.053-.528L29.53,0,42.759,1.444,45.607,9.8l-5.627,6.029-2.791,9.16L31.436,36.151Zm-7.878-9.63,8.606,7.495,18.392-1.923,5.191-10.074,2.832-9.352,5.132-5.5-2.04-5.985L29.984,2.11,21.6,6.7c-.184,1.84-.431,4.367-.443,4.629-.023.539-.038.867-10.2,9.193ZM19.015,11.233v0Z" transform="translate(0 0)" fill="#fff"/></g><g transform="translate(16.666 14.56)"><path d="M2.441,21.89,0,.219,2.128,0,4.568,21.671Z" transform="translate(0 0)" fill="#fff"/></g><g transform="translate(17.522 13.666)"><path d="M20.22,5.842,0,2.008.416,0l20.22,3.834Z" transform="translate(0 0)" fill="#fff"/></g><g transform="translate(28.234 0.35)"><path d="M11.33,14.469,0,1.3,1.653,0l11.33,13.169Z" transform="translate(0 0)" fill="#fff"/></g><g transform="translate(1.345 25.495)"><path d="M.348,4.687,0,2.667,16.908,0l.348,2.02Z" transform="translate(0 0)" fill="#fff"/></g></g><g transform="matrix(0.978, -0.208, 0.208, 0.978, 6.643, 65.335)"><path d="M8.675,0l6.761,1.924L27.255,29.375,34.467,38.5l-3.535,2.1L18.445,34.746,0,9.122,2.64,2.191Z" transform="translate(9.243 16.839)" fill="#db6c26"/><path d="M11.429,17.517l2.223-2.952-3.565-2.695L12.325,8.98l-4.773-2.1L9.559,4.913,4.5,2.573,5.917,0,0,.66l5.381,6.55,3.464,7.006Z" transform="translate(2.689 0)" fill="#20723c"/><path d="M13.191,15.445l-2.374-2.418L8.666,7.759,2.1,0,0,3.481,2.975,4.638l1.3,4.537,2.259-.909L7.246,12.2l1.868,1.234Z" transform="translate(0 1.958)" fill="#20723c"/><path d="M6.152.891,2.641,2.672,0,5.919,3.848,3.667,9.012,2.032,7.908,0Z" transform="translate(20.017 26.078)" fill="#fff"/><path d="M4.764.69,2.045,2.069,0,4.584,2.98,2.84l4-1.266L6.124,0Z" transform="translate(24.406 31.501)" fill="#fff"/></g><g transform="translate(52.062 45.139)"><g transform="translate(30.903 0)"><path d="M0,1.712,2.685,0l.632.609.541,2.062L1.426,2.88Z" transform="translate(6.026 0)" fill="#e2a257"/><path d="M0,0H3.184l.205.853-.653,2.03L.575,1.752Z" transform="translate(7.511 7.937)" fill="#e2a257"/><path d="M0,1.712,2.685,0l.632.609.541,2.062L1.426,2.88Z" transform="translate(12.015 4.14)" fill="#e2a257"/><path d="M0,.7,2.012,0,3.665.742,4.532,2.7l-2.218.322-1.759-.8Z" transform="translate(11.172 0.058)" fill="#e2a257"/><path d="M.221,0,2.329.317,3.444,1.745l-.149,2.14L1.183,3.134,0,1.606Z" transform="translate(23.793 9.521)" fill="#e2a257"/><path d="M3.756,3.231l-2.13.089L.26,2.13,0,0,2.216.337,3.667,1.612Z" transform="translate(17.996 4.804)" fill="#e2a257"/><path d="M4.76.812,3.669,2.644l-1.744.492L0,2.187,1.495.517,3.356,0Z" transform="translate(0 3.696)" fill="#e2a257"/><path d="M0,.6,1.956,0,4.064,1.94,3.817,3.174l-2.092-.43L.236,1.952Z" transform="translate(17.397 1.291)" fill="#e2a257"/><path d="M0,.6,1.956,0,4.064,1.94,3.817,3.174l-2.092-.43L.236,1.952Z" transform="translate(2.043 7.322)" fill="#e2a257"/><path d="M4.547,1.22,3.024,2.586.3,1.714,0,.491,2.078,0,3.763.091Z" transform="translate(17.859 9.63)" fill="#e2a257"/><path d="M.131,0,2.485.706,2.438,2.592l-.955,1.54L0,3.07Z" transform="translate(23.245 4.249)" fill="#e2a257"/><path d="M4.323,1.375,2.716,3.235l-1.7-.815L0,.919,1.575,0Z" transform="translate(12.823 7.816)" fill="#e2a257"/><path d="M4.339.906,3.059,3,1.247,2.479,0,1.165,1.4,0Z" transform="translate(6.578 3.694)" fill="#e2a257"/></g><g transform="translate(44.285 18.155)"><path d="M0,.641,2.5,0l.333.628-.1,1.724L.8,1.9Z" transform="translate(4.864 0)" fill="#e2a257"/><path d="M0,0,2.451.8l-.057.709L1.379,2.91,0,1.494Z" transform="translate(4.436 5.809)" fill="#e2a257"/><path d="M0,.641,2.5,0l.333.628-.1,1.724L.8,1.9Z" transform="translate(8.43 4.698)" fill="#e2a257"/><path d="M0,.035,1.727,0,2.812.989l.173,1.73L1.2,2.406.043,1.348Z" transform="translate(9.065 1.174)" fill="#e2a257"/><path d="M.575,0,2.119.776l.5,1.381-.655,1.61L.525,2.656,0,1.181Z" transform="translate(16.167 11.192)" fill="#e2a257"/><path d="M2.414,3.435.751,2.967,0,1.705.337,0,1.959.818l.8,1.348Z" transform="translate(12.962 6.042)" fill="#e2a257"/><path d="M4.012,1.051l-1.3,1.135L1.243,2.125,0,.909,1.572,0,3.136.072Z" transform="translate(0 0.547)" fill="#e2a257"/><path d="M.16,0,1.817.033,2.95,2.059l-.5.888-1.5-.859L0,1.1Z" transform="translate(13.414 3.646)" fill="#e2a257"/><path d="M.16,0,1.817.033,2.95,2.059l-.5.888-1.5-.859L0,1.1Z" transform="translate(0.899 3.539)" fill="#e2a257"/><path d="M3.4,1.709l-1.517.668L0,1.016.081,0,1.8.146l1.274.5Z" transform="translate(11.771 10.101)" fill="#e2a257"/><path d="M.875,0,2.51,1.138,2,2.578.874,3.522,0,2.331Z" transform="translate(16.707 6.972)" fill="#e2a257"/><path d="M3.213,1.752,1.507,2.778.4,1.722,0,.31,1.445,0Z" transform="translate(8.325 7.453)" fill="#e2a257"/><path d="M3.406,1.438,1.891,2.731.628,1.87,0,.543,1.374,0Z" transform="translate(4.494 2.66)" fill="#e2a257"/></g><path d="M12.165,0,2.612,4.756,0,14.837l1.588,34.8,2.6.3L2.337,42.69l.175-28.749,2-7.384Z" transform="translate(18.457 7.721)" fill="#69a046"/><path d="M28.674,2.026,19.5,0,7.111,7.025,0,37.044l3.881.759L5.158,30.57,9.2,6.978l10.63-4.893Z" transform="translate(15.381 19.351)" fill="#69a046"/><path d="M4.623,28.113,6.238,14.408,21.119,3.463l8.263,4.366L21.557,0,15.685,2.531,3.215,10.578,0,27.852Z" transform="translate(17.611 29.089)" fill="#69a046"/><path d="M13.146,37.32,16.454,24.7,9.164,2.841,0,3.728,9.806,0,14.6,3.773l6.6,21.165-3.16,13.1Z" transform="translate(0 19.004)" fill="#69a046"/></g></svg>