<svg xmlns="http://www.w3.org/2000/svg" width="270.19" height="61.049" viewBox="0 0 270.19 61.049"><g transform="translate(-52.148 -3003.107)"><path d="M38.786-47.6a5.2,5.2,0,0,1-1.292,1.476,2.89,2.89,0,0,1-1.743.492,4.263,4.263,0,0,1-2.029-.594q-1.086-.594-2.46-1.332a20.414,20.414,0,0,0-3.136-1.333,12.549,12.549,0,0,0-4.018-.595q-3.895,0-5.8,1.66A5.65,5.65,0,0,0,16.4-43.337a4.136,4.136,0,0,0,1.148,2.993,9.9,9.9,0,0,0,3.014,2.05,32.3,32.3,0,0,0,4.264,1.578q2.4.717,4.9,1.6a43.816,43.816,0,0,1,4.9,2.07,16.339,16.339,0,0,1,4.264,3.034A14.16,14.16,0,0,1,41.9-25.523a15.963,15.963,0,0,1,1.148,6.376A20.774,20.774,0,0,1,41.615-11.4,18.143,18.143,0,0,1,37.453-5.1,19.316,19.316,0,0,1,30.729-.882,25.156,25.156,0,0,1,21.648.656,29.109,29.109,0,0,1,15.969.082a33.723,33.723,0,0,1-5.6-1.62A32.454,32.454,0,0,1,5.289-4.018a21.6,21.6,0,0,1-4.141-3.2l4.1-6.478A4.105,4.105,0,0,1,6.54-14.863a3.369,3.369,0,0,1,1.743-.472,4.667,4.667,0,0,1,2.48.779q1.251.779,2.829,1.722a23.023,23.023,0,0,0,3.628,1.722,13.605,13.605,0,0,0,4.838.779,9.21,9.21,0,0,0,5.863-1.66q2.091-1.661,2.091-5.269a4.979,4.979,0,0,0-1.148-3.4,8.869,8.869,0,0,0-3.014-2.173,27.765,27.765,0,0,0-4.243-1.517q-2.378-.656-4.879-1.455a35.7,35.7,0,0,1-4.879-1.968,15.4,15.4,0,0,1-4.244-3.075,14.389,14.389,0,0,1-3.013-4.756A18.884,18.884,0,0,1,3.444-42.64,16.684,16.684,0,0,1,4.8-49.2a16.934,16.934,0,0,1,3.977-5.7,19.555,19.555,0,0,1,6.437-4,23.774,23.774,0,0,1,8.733-1.5,32.747,32.747,0,0,1,5.351.431,28.126,28.126,0,0,1,4.941,1.271A27.131,27.131,0,0,1,38.6-56.683a20.132,20.132,0,0,1,3.628,2.645Zm63.55-1.148H85.526V0H71.668V-48.749H54.858V-59.737h47.478Zm40.959,25.912L137.76-39.2q-.615-1.558-1.312-3.67t-1.394-4.571q-.615,2.5-1.312,4.633t-1.312,3.69l-5.494,16.277ZM165.312,0H154.57a4.689,4.689,0,0,1-2.911-.84,5.339,5.339,0,0,1-1.681-2.153l-3.526-10.414H123.738L120.212-2.993a4.983,4.983,0,0,1-1.619,2.071A4.52,4.52,0,0,1,115.7,0H104.878L128-59.737h14.186Zm26.855-49.077v15.129h20.418v10.7H192.167V0h-13.94V-59.737h38.458v10.66Zm54.653,0v15.129h20.418v10.7H246.82V0H232.88V-59.737h38.458v10.66Z" transform="translate(51 3063.5)" fill="#eae5d6"/><g transform="translate(-204.5 504)"><line x2="14" y2="19" transform="translate(283 2525)" fill="none" stroke="#c10206" stroke-linecap="round" stroke-width="3" stroke-dasharray="0 6"/><line x1="13" y2="19" transform="translate(489 2525)" fill="none" stroke="#c10206" stroke-linecap="round" stroke-width="3" stroke-dasharray="0 6"/></g><text transform="translate(191.5 3043)" fill="#c10206" font-size="16" font-family="HiraginoSans-W6, Hiragino Sans"><tspan x="-82.288" y="0">私たちがお届けします</tspan><tspan y="0" font-family="NotoSans-Bold, Noto Sans" font-weight="700">!</tspan></text></g></svg>