<svg xmlns="http://www.w3.org/2000/svg" width="64.607" height="74.802" viewBox="0 0 64.607 74.802"><g transform="translate(-1249 -3314.096)"><g transform="translate(1249 3336.72)"><path d="M669.6,1004.6l-2.842-7.39,8.526-11.938L687.217,983l6.253-3.411,5.116,2.842s5.116,3.411,6.821,3.411h5.116l1.705,5.116-1.705,6.253,1.137,5.116-2.842,3.979-7.958,6.253-8.526,2.274Z" transform="translate(-666.374 -972.319)" fill="#f5f5f5"/><path d="M711.871,979.589l5.116,2.842s5.116,3.411,6.821,3.411h5.116l1.705,5.116-1.705,6.253,1.136,5.116-2.842,3.979-7.958,6.253-8.526,2.274,13.453-23.875Z" transform="translate(-684.775 -972.319)" fill="#e6e6e6"/><path d="M666.1,1019.232l25.959,4.169,21.419-6.294v4.5l-13.461,12.031.569,6.253H682.371l.013-4.548-15.2-11.626Z" transform="translate(-666.101 -987.709)" fill="#e83015"/><path d="M719.138,1021.313l14.72-4.236v4.58l-13.393,11.972.568,6.253H714.97l3.221-5.874Z" transform="translate(-686.547 -987.705)" fill="#cc2a12"/><g transform="translate(31.943 0)"><path d="M22.5,0,.191,18.88,0,20.6H1.72L24.161,2.045Z" transform="translate(3.916 0) rotate(7)" fill="#e0cda8"/><g transform="translate(0 14.629)"><path d="M603.875,982.5l.1-3.631,3.423-.726,1.764-.83,2.8,1.349L613,983.221l-3.735,1.349-2.179.934Z" transform="translate(-603.875 -977.308)" fill="#f2f2f2" stroke="#e6e6e6" stroke-linecap="round" stroke-linejoin="round" stroke-width="1"/><path d="M611.182,977.308l2.8,1.349,1.037,4.565-3.735,1.349,2.146-2.734Z" transform="translate(-605.891 -977.308)" fill="#e6e6e6"/></g><path d="M745.954,974.174,718.272,984.93l-.537,1.645,1.684.35,27.162-9.821Z" transform="translate(-713.918 -963.749)" fill="#e0cda8"/></g></g><text transform="translate(1249.88 3339.853)" fill="#010a10" font-size="11" font-family="HiraginoSans-W6, Hiragino Sans"><tspan x="0" y="0">上に戻る</tspan></text><path d="M0,4.4A1.03,1.03,0,0,0,1.029,5.429H6.878L5.3,7.009A1.031,1.031,0,1,0,6.753,8.464l3.3-3.3a1.065,1.065,0,0,0,.049-1.5c-.011-.01-.022-.017-.033-.026s-.023-.031-.038-.046L6.775.328A1.057,1.057,0,0,0,5.282.291,1.057,1.057,0,0,0,5.32,1.784L6.906,3.371H1.029A1.029,1.029,0,0,0,0,4.4Z" transform="translate(1268.362 3324.488) rotate(-90)" fill="#c10206"/></g></svg>