<svg xmlns="http://www.w3.org/2000/svg" xmlns:xlink="http://www.w3.org/1999/xlink" width="27.516" height="22.785" viewBox="0 0 27.516 22.785">
  <defs>
    <style>
      .cls-1 {
        fill: #faf3ec;
      }

      .cls-2 {
        clip-path: url(#clip-path);
      }
    </style>
    <clipPath id="clip-path">
      <rect id="長方形_13" data-name="長方形 13" class="cls-1" width="27.516" height="22.785"/>
    </clipPath>
  </defs>
  <g id="グループ_12" data-name="グループ 12" transform="translate(0 0)">
    <g id="グループ_9" data-name="グループ 9" class="cls-2" transform="translate(0 0)">
      <path id="パス_2" data-name="パス 2" class="cls-1" d="M23.246,16.01H8.665a1.086,1.086,0,0,1-1.046-.8L4.842,5.14A1.084,1.084,0,0,1,5.888,3.768H26.023A1.084,1.084,0,0,1,27.069,5.14L24.292,15.213a1.086,1.086,0,0,1-1.046.8M9.492,13.84H22.419l2.18-7.9H7.312Z" transform="translate(0.408 0.32)"/>
      <path id="パス_3" data-name="パス 3" class="cls-1" d="M9.072,16.33a1.087,1.087,0,0,1-1.046-.8L4.407,2.318l-3.37-.148A1.084,1.084,0,0,1,0,1.039,1.048,1.048,0,0,1,1.133,0L5.292.184a1.088,1.088,0,0,1,1,.8L10.12,14.957a1.087,1.087,0,0,1-.759,1.334,1.153,1.153,0,0,1-.289.038" transform="translate(0 0)"/>
      <path id="パス_4" data-name="パス 4" class="cls-1" d="M10.983,21.469a2.983,2.983,0,1,1,2.983-2.983,2.986,2.986,0,0,1-2.983,2.983m0-3.8a.814.814,0,1,0,.814.814.815.815,0,0,0-.814-.814" transform="translate(0.679 1.316)"/>
      <path id="パス_5" data-name="パス 5" class="cls-1" d="M19.317,21.469A2.983,2.983,0,1,1,22.3,18.485a2.986,2.986,0,0,1-2.983,2.983m0-3.8a.814.814,0,1,0,.814.814.815.815,0,0,0-.814-.814" transform="translate(1.386 1.316)"/>
    </g>
  </g>
</svg>
