<svg xmlns="http://www.w3.org/2000/svg" xmlns:xlink="http://www.w3.org/1999/xlink" width="161.329" height="64.408" viewBox="0 0 161.329 64.408">
  <defs>
    <style>
      .cls-1 {
        fill: #fff;
      }

      .cls-2 {
        filter: url(#パス_8510);
      }
    </style>
    <filter id="パス_8510" x="0" y="0" width="161.329" height="64.408" filterUnits="userSpaceOnUse">
      <feOffset dy="3" input="SourceAlpha"/>
      <feGaussianBlur stdDeviation="3" result="blur"/>
      <feFlood flood-color="#bcb1a6" flood-opacity="0.204"/>
      <feComposite operator="in" in2="blur"/>
      <feComposite in="SourceGraphic"/>
    </filter>
  </defs>
  <g class="cls-2" transform="matrix(1, 0, 0, 1, 0, 0)">
    <path id="パス_8510-2" data-name="パス 8510" class="cls-1" d="M127.485,36.668c-.068,0-.136.11-.2.11-.375,0-.75-.431-1.125-.431s-.75.344-1.125.344-.75.052-1.125.052-.75-.319-1.125-.319-.75-.034-1.125-.034-.75-.02-1.125-.02-.75.51-1.125.51-.75-.663-1.125-.663-.75.214-1.125.214-.75.139-1.125.139-.75-.419-1.125-.419-.75.4-1.125.4-.75-.029-1.125-.029-.75.065-1.125.065-.75-.034-1.125-.034-.75-.189-1.125-.189-.75-.094-1.125-.094-.75.593-1.125.593-.768-.081-1.153-.081-.768-.414-1.152-.414-.768.332-1.153.332-.768-.211-1.152-.211-.768-.105-1.153-.105-.768.486-1.152.486-.768-.426-1.152-.426-.768-.217-1.153-.217-.768.094-1.152.094-.768.04-1.153.04-.768.511-1.152.511-.768-.543-1.153-.543-.768-.073-1.152-.073-.768.318-1.153.318-.768.369-1.152.369-.768-.176-1.153-.176-.738.149-1.11.153-.753-.764-1.124-.758-.737.467-1.109.471-.745.177-1.117.175-.743-.173-1.115-.185-.74-.11-1.11-.135-.717-.257-1.085-.3-.7-.235-1.067-.3-.756.023-1.1-.018a9.717,9.717,0,0,0-1.093.052,6.383,6.383,0,0,0-1.093.019,4.917,4.917,0,0,0-1.048.328,5.215,5.215,0,0,0-.916.587c-.273.191-.4.574-.678.844s-.931.113-1.2.375-.128.931-.393,1.191-.776.271-1.041.532-.32.735-.585,1-.483.57-.748.83-.428.626-.693.886-1.046,0-1.311.258-.092.966-.357,1.227-.433.62-.7.88-.687.362-.952.623-.78.655-1.045.916c.112-.367.034-1.067.146-1.433s.219-.734.331-1.1.24-.728.351-1.094.31-.706.422-1.072.718-.582.83-.948-.176-.855-.065-1.221.735-.576.847-.942a3.822,3.822,0,0,0,.032-1.2c-.037-.366-.526-.5-1-.667-.324-.113-.725.039-1.174-.008-.373-.039-.749-.085-1.168-.091-.393-.005-.789-.118-1.191-.1s-.814-.044-1.2-.02c-.43.026-.822.253-1.185.278-.5.034-.941-.257-1.215-.257-.364,0-.728-.253-1.093-.253s-.728-.025-1.092-.025-.728.111-1.093.111-.728.255-1.092.255-.728-.193-1.092-.193-.728-.033-1.093-.033-.728-.021-1.092-.021-.728.47-1.093.47-.728-.72-1.093-.72c-.384,0-.769.4-1.155.4s-.769.316-1.154.316-.77-.119-1.155-.119-.77-.258-1.155-.258-.77.189-1.155.189-.769-.467-1.154-.467-.77-.006-1.155-.006-.77-.009-1.155-.009-.77.108-1.155.108-.77.377-1.155.377-.77-.168-1.155-.168-.77-.312-1.155-.312-.77.625-1.155.625-.77-.39-1.155-.39-.77-.073-1.155-.073c-.368,0-.737.524-1.106.524s-.737-.488-1.106-.488-.738.214-1.106.214-.738-.356-1.106-.356-.737.539-1.106.539-.737-.134-1.106-.134-.737-.225-1.106-.225-.737.141-1.106.141-.738.3-1.106.3-.737-.256-1.106-.256-.737.321-1.106.321-.737-.411-1.106-.411-.737.329-1.106.329-.738-.308-1.106-.308-.737.112-1.106.112-.735-.2-1.1-.223-.71-.215-1.074-.267-.762.1-1.121.026-.672-.331-1.025-.434-.643-.354-.988-.483-.8.024-1.132-.129-.6-.432-.927-.609-.593-.423-.9-.622-.5-.533-.8-.754-.982.048-1.261-.193-.626-.443-.886-.7.007-1.015-.235-1.294-.582-.453-.8-.748-.727-.391-.927-.7-.6-.524-.778-.848.153-.911,0-1.247-.735-.5-.865-.845.271-.869.167-1.225S.919,24.656.84,24.293s-.552-.651-.6-1.019.124-.762.1-1.133.07-.736.07-1.108c0-.51.247-.51.247-1.02S.436,19.5.436,18.995s-.367-.51-.367-1.019.652-.51.652-1.021S.28,16.444.28,15.934c0-.372-.3-.766-.279-1.132s.292-.731.344-1.094,0-.765.08-1.124.693-.586.8-.939.225-.682.353-1.027.1-.742.253-1.077.566-.522.743-.845,0-.841.2-1.151.546-.513.767-.809.154-.827.4-1.106.6-.466.86-.727.649-.386.928-.629.59-.431.886-.653.655-.327.966-.526.4-.758.729-.936.882.128,1.219-.026.554-.551.9-.681.73-.11,1.085-.214.621-.542.983-.621.7-.4,1.064-.456.789.315,1.16.288.735.119,1.108.119c.564,0,.564-.462,1.127-.462s.564.717,1.127.717.563-.706,1.127-.706S19.77.53,20.334.53,20.9.339,21.461.339s.563.1,1.127.1.564.329,1.127.329S24.278.1,24.842.1s.564.56,1.127.56S26.533.7,27.1.7s.564-.6,1.128-.6.564.553,1.127.553.564-.119,1.127-.119S31.043.01,31.607.01s.564.339,1.127.339S33.3.324,33.861.324s.564.3,1.127.3.563-.238,1.127-.238.564.286,1.128.286S37.806.259,38.37.259,38.934.52,39.5.52s.562.321,1.125.321.562-.705,1.125-.705.563.686,1.125.686S43.436.667,44,.667s.563-.606,1.126-.606.563.051,1.126.051.564.116,1.127.116.564.286,1.128.286S49.07.107,49.634.107s.563.372,1.127.372.563.351,1.126.351S52.45.8,53.014.8,53.577.77,54.139.77h1.125c.563,0,.563-.29,1.125-.29s.563-.16,1.126-.16.563-.083,1.126-.083.563.385,1.126.385.564.034,1.127.034.564-.466,1.128-.466.564.058,1.128.058.564.161,1.128.161.564-.137,1.127-.137.563.548,1.127.548S67.1.636,67.661.636s.563.071,1.126.071S69.35,0,69.913,0s.564.336,1.127.336S71.6.207,72.168.207s.564.377,1.128.377S73.86.543,74.425.543s.564-.314,1.128-.314S76.117.006,76.68.006s.564.248,1.127.248.564-.212,1.127-.212S79.5.4,80.062.4,80.626.253,81.19.253s.564.1,1.128.1.565.224,1.129.224S84.012.51,84.575.51s.564.165,1.128.165S86.267.8,86.831.8s.564-.125,1.128-.125.564-.541,1.129-.541.564.532,1.129.532.564-.534,1.128-.534.564-.023,1.128-.023.565.731,1.129.731.565-.411,1.129-.411.564.3,1.129.3.564-.068,1.128-.068.565-.49,1.129-.49S98.681.4,99.245.4s.565-.029,1.129-.029S100.939.1,101.5.1s.565.3,1.129.3S103.2.07,103.759.07s.563.222,1.127.222.564.384,1.127.384.565-.214,1.129-.214.564.011,1.129.011.564-.456,1.128-.456.564.3,1.129.3.565-.152,1.13-.152.565-.012,1.129-.012.565.315,1.13.315.565.165,1.13.165.565-.336,1.13-.336.565-.215,1.13-.215.565.057,1.13.057.566.6,1.131.6.565-.37,1.129-.37.565.252,1.13.252S122.39.07,122.955.07s.566.748,1.131.748.566.026,1.132.026.567-.233,1.133-.233.566-.151,1.133-.151c.372,0,.725.211,1.09.236S129.34.456,129.7.508s.65.516,1.009.594.787-.141,1.14-.037.592.522.937.651.683.224,1.018.377.671.267.994.444.889-.05,1.2.149.292.869.587,1.09.981-.041,1.26.2.387.687.648.948.36.669.6.948.838.28,1.06.575-.158,1,.042,1.316.411.582.589.907.723.451.877.787.436.629.566.976-.306.873-.2,1.228.664.582.743.945-.283.792-.231,1.16.134.706.16,1.077.175.717.175,1.089c0,.51-.166.51-.166,1.019s.617.51.617,1.019-.186.51-.186,1.019-.511.51-.511,1.021-.045.51-.045,1.021c0,.372.015.714-.011,1.079s.406.778.354,1.141-.478.66-.555,1.019-.031.741-.135,1.093-.2.7-.334,1.047-.165.727-.318,1.061-.354.647-.531.97-.291.686-.49,1-.366.651-.587.946-.81.284-1.052.562-.195.811-.456,1.072-.582.457-.861.7-.312.806-.608,1.028S136,33.6,135.687,33.8s-.512.548-.837.726-.59.455-.927.609-.813-.078-1.161.052-.546.647-.9.751-.747.031-1.11.109-.715.12-1.082.172-.7.321-1.073.347-.739.1-1.111.1" transform="translate(9 6)"/>
  </g>
</svg>
