<svg xmlns="http://www.w3.org/2000/svg" xmlns:xlink="http://www.w3.org/1999/xlink" width="152" height="139.944" viewBox="0 0 152 139.944">
  <defs>
    <style>
      .cls-1 {
        fill: #fff;
      }

      .cls-2 {
        filter: url(#パス_8515);
      }
    </style>
    <filter id="パス_8515" x="0" y="0" width="152" height="139.944" filterUnits="userSpaceOnUse">
      <feOffset dy="5" input="SourceAlpha"/>
      <feGaussianBlur stdDeviation="7.5" result="blur"/>
      <feFlood flood-color="#888684" flood-opacity="0.302"/>
      <feComposite operator="in" in2="blur"/>
      <feComposite in="SourceGraphic"/>
    </filter>
  </defs>
  <g class="cls-2" transform="matrix(1, 0, 0, 1, 0, 0)">
    <path id="パス_8515-2" data-name="パス 8515" class="cls-1" d="M21.57,77.9c.4.217.65.753,1.062.957s.845.387,1.263.577,1.033-.066,1.457.112.7.731,1.128.894.978,0,1.413.15.855.332,1.295.466.881.253,1.324.373.827.488,1.274.593.959-.082,1.41.008.926.006,1.379.081.839.6,1.295.66.948-.192,1.4-.148.893.389,1.352.416.928-.072,1.387-.062.918-.246,1.378-.251.926.286,1.386.264.905-.242,1.363-.281.93.055,1.386,0,.889-.273,1.343-.347a6.215,6.215,0,0,0-.754,1.357c-.153.41.09,1.04-.1,1.531-.174.45-.677.79-.858,1.24-.2.485-.112,1.064-.284,1.469a3.486,3.486,0,0,1-.929,1.129c-.3.406-.385.975-.706,1.382s-.429.972-.761,1.366-.864.611-1.206.991-.762.693-1.114,1.058-.426.711-.789,1.061c.446-.094.575-.391,1.013-.513s.942-.009,1.372-.16.928-.14,1.348-.318.644-.771,1.052-.975.943-.154,1.337-.382.866-.344,1.246-.6.811-.454,1.174-.728.708-.6,1.054-.894.706-.6,1.033-.916.378-.908.685-1.245.886-.444,1.171-.8.228-.971.491-1.343.7-.627.933-1.016.418-.811.63-1.215c-.2.384.262.682,1.061.777a10.8,10.8,0,0,0,1.5.217c.472,0,.984-.1,1.493-.122s.992-.269,1.472-.309c.536-.044,1.036-.146,1.474-.192a4.865,4.865,0,0,1,1.531.224c.445-.066.82-.65,1.265-.7s.913.049,1.361.006.917.163,1.365.126.872-.361,1.319-.4.915.14,1.362.1.9-.076,1.343-.132.925.076,1.369,0,.8-.648,1.237-.74c.461-.1,1.007.2,1.466.092s.859-.454,1.315-.572.946-.113,1.4-.243.928-.2,1.377-.338.878-.353,1.322-.508.956-.143,1.4-.31.778-.6,1.212-.782.99-.094,1.419-.286.834-.458,1.257-.663.633-.837,1.05-1.055.939-.235,1.349-.465.862-.393,1.264-.636.874-.388,1.268-.644.833-.463,1.218-.733.471-.957.847-1.24,1.057-.194,1.425-.494.657-.707,1.012-1.023.522-.835.864-1.165.9-.446,1.229-.791.741-.624,1.054-.981.143-1.123.442-1.492.7-.646.986-1.027.459-.829.728-1.221.863-.565,1.117-.966.341-.905.58-1.317.646-.73.868-1.15.035-1.042.24-1.47.475-.817.663-1.253.821-.692.992-1.136-.106-1.051.047-1.5.213-.919.349-1.374.5-.824.622-1.274-.042-.965.059-1.419.237-.895.322-1.352.257-.9.326-1.357.514-.874.567-1.336-.263-.966-.226-1.43.1-.925.121-1.39.115-.928.121-1.393.286-.938.276-1.4-.164-.933-.19-1.4-.483-.9-.524-1.362.014-.931-.043-1.393-.209-.9-.281-1.365-.076-.925-.163-1.383.067-.962-.035-1.418-.533-.827-.65-1.278.239-1.03.107-1.479-.637-.779-.782-1.222-.255-.893-.415-1.331-.424-.829-.6-1.262-.219-.913-.407-1.341-.387-.845-.589-1.265-.18-.952-.395-1.366-.821-.614-1.049-1.02-.31-.891-.552-1.289-.583-.728-.837-1.12-.135-1.033-.4-1.415-.468-.823-.747-1.2-1.053-.364-1.345-.728-.207-1.037-.511-1.392-.97-.382-1.286-.726-.465-.837-.792-1.17-.519-.8-.858-1.125-.647-.682-1-.992-.8-.5-1.161-.8-.653-.681-1.023-.966-.738-.582-1.118-.852-.861-.4-1.251-.657-.945-.242-1.344-.485S86,8.286,85.59,8.057s-.811-.44-1.227-.654-.68-.758-1.107-.963-.906-.3-1.339-.5-.815-.509-1.253-.69-1.045.066-1.488-.1-.841-.439-1.288-.6-.906-.266-1.356-.412-.815-.563-1.269-.7-.957-.1-1.413-.228-.875-.4-1.335-.513-.908-.286-1.37-.392-.883-.419-1.347-.516-.976.031-1.442-.057-1,.2-1.466.125-.863-.6-1.332-.671-.987.215-1.457.153S63.2.9,62.731.84s-.968.3-1.426.248-.89-.407-1.348-.452-.949.2-1.408.155S57.657.311,57.2.278s-.919-.2-1.379-.227-.949.368-1.41.348-.928.1-1.389.086S52.1.145,51.639.14s-.926.143-1.388.147S49.325.2,48.862.217s-.936-.238-1.4-.216-.923.135-1.385.167-.919.14-1.38.181-.914.16-1.375.211S42.374.439,41.913.5s-.845.6-1.305.674S39.639.97,39.18,1.051s-.847.487-1.3.579-.933.124-1.392.225-.914.213-1.371.323-1.021-.193-1.476-.075-.874.392-1.325.519-.916.235-1.365.372-.774.669-1.22.816-.966.079-1.409.236-.83.464-1.268.632-.885.316-1.319.495-.892.3-1.322.493-.794.52-1.218.722-.855.382-1.274.6-.862.375-1.275.6-1.034.089-1.439.326-.5.987-.9,1.237-.814.461-1.2.723-.782.51-1.163.785-1.015.214-1.386.5-.662.686-1.024.986-.837.479-1.188.792-.7.637-1.044.963-.613.728-.94,1.066-.677.664-.99,1.015-.612.723-.912,1.086-.507.8-.792,1.178-.533.776-.8,1.163-.431.84-.686,1.237-.362.872-.6,1.279-.929.553-1.153.969-.284.917-.492,1.341-.347.876-.539,1.309-.049.992-.226,1.432-.493.807-.653,1.252-.238.9-.381,1.356-.737.76-.865,1.217.169,1.049.058,1.516-.258.932-.351,1.4-.037.971-.111,1.446-.553.9-.607,1.379.194.992.158,1.473.025.963.009,1.445S0,40.42,0,40.9s.362.958.382,1.442S0,43.335.036,43.817s.048.975.1,1.456.472.916.54,1.4-.211,1.012-.13,1.49.612.869.707,1.346.22.934.326,1.408.052.976.168,1.447.157.955.283,1.426.155.952.294,1.409.435.865.592,1.316.5.829.675,1.274.184.952.374,1.39.149.986.354,1.416.845.644,1.068,1.067.183.985.422,1.4c.229.4.293.9.536,1.285s.466.8.724,1.178.952.447,1.222.815.391.847.675,1.2.747.562,1.044.909.489.78.8,1.117.616.67.937,1,.515.781.846,1.094.908.358,1.25.66.518.794.871,1.085.63.678.992.958.936.27,1.307.537.787.454,1.167.708.663.644,1.05.886.587.8.982,1.03.957.166,1.359.382" transform="translate(22.5 17.5)"/>
  </g>
</svg>
