<svg xmlns="http://www.w3.org/2000/svg" xmlns:xlink="http://www.w3.org/1999/xlink" width="253.5" height="301.17" viewBox="0 0 253.5 301.17">
  <defs>
    <style>
      .cls-1 {
        fill: url(#linear-gradient);
      }

      .cls-2, .cls-6 {
        mix-blend-mode: multiply;
        isolation: isolate;
      }

      .cls-3 {
        clip-path: url(#clip-path);
      }

      .cls-4, .cls-5 {
        fill: #c31e1e;
      }

      .cls-4 {
        opacity: 0.104;
      }

      .cls-6 {
        fill: #d1d8bd;
        font-size: 18px;
        font-family: Brushland-Regular, Brushland;
        letter-spacing: 0.05em;
      }
    </style>
    <linearGradient id="linear-gradient" x1="0.372" y1="0.809" x2="0.941" y2="-0.178" gradientUnits="objectBoundingBox">
      <stop offset="0" stop-color="#cad8a2" stop-opacity="0.396"/>
      <stop offset="1" stop-color="#b6c978"/>
    </linearGradient>
    <clipPath id="clip-path">
      <rect id="長方形_10" data-name="長方形 10" class="cls-1" width="200.092" height="295.121"/>
    </clipPath>
  </defs>
  <g id="グループ_87" data-name="グループ 87" transform="translate(-971.5 -1008)">
    <g id="グループ_5" data-name="グループ 5" class="cls-2" transform="translate(971.5 1014.049)">
      <g id="グループ_4" data-name="グループ 4" class="cls-3">
        <path id="パス_1" data-name="パス 1" class="cls-1" d="M186.424,4.411c5.024.657,9.15-1.232,11.874,2.75.593,5.515,1.187,11.067,1.794,16.727L170.325,53.655c-1.324,5.355,1.04,9.5-2.457,12.392.71.958,1.482,2,1.856,2.5l-8.893,8.893c2.29,3.383,5.882,4.719,4.578,8.979-5.927,7.508-12.112,15.344-18.4,23.311-.123,2.154-.256,4.494-.379,6.682l-4.426,1.547c.949,1.95,1.776,3.652,3.133,6.443-1.768.522-3.918,1.157-4.514,1.335v8.925c-6.993,3.871-3.582,13.641-10.429,18.492v9.593c-1.223,1.223-2.661,2.659-4.13,4.128,3.721,7.41.916,15.744,2.106,24.118-1.562,1.231-3.178,2.508-4.432,3.5,0,11.75,0,22.839,0,33.932-1.228,1.226-2.454,2.451-3.917,3.914v9.766a30.427,30.427,0,0,1-3.444,1.974c-10.194,4.622-12.461,13.08-11.382,23.212a2.827,2.827,0,0,1-.241.932l-3.792,3.792V288.21l-6.317,6.911-3.211-5.205H88.362c-6.182-4.755-11.947-9.191-18.308-14.078v-3.684c2.082-1.268,4.025-2.454,5.893-3.6V240.806l-8.077-6.982c-3.811-.759-8.649-1.722-14.007-2.787-2.623-5.868-5.728-12.078-7.289-19.2-.912-4.154-5.254-7.553-7.552-10.623l-7.976-2.492c-.979-4.085-1.86-7.358,1.352-10.086-.706-2.106-1.464-4.225-2.127-6.374-1.189-3.85-2.623-7.988-6.2-9.819C11.954,166.231,7.515,154.171,0,142.916c2.45-.408,3.909-.719,5.385-.886,6.3-.721,12.583-1.666,18.9-2.018,6.221-.346,12.545.5,18.7-.243,5.74-.691,11.312-2.779,17.729-4.453,1.723-1.943,4-4.507,7.238-8.156,1.553-5.267-6.771-8.243-6.454-15.333,1.928-1.929,4.477-4.2,6.7-6.754a14.615,14.615,0,0,0,0-19.775c-3.211-3.628-6.822-6.9-10.558-10.636V52.752c1.322-.644,3.062-2.207,4.806-2.21,7.339-.008,12.513-4.4,15.468-9.793C84.182,29.289,90.756,18.118,98.848,7.856c-.386-5.2,5.12-4.516,7.726-7.857,4.476.8,9.315,2.307,14.167,2.359,4.881.053,9.778-1.339,14.486-2.07,3.9,3.9,7.609,7.549,11.248,11.264,3.665,3.74,7.835,5.944,13.307,5.617,4.836-.289,9.7-.06,13.95-.06l12.692-12.7" transform="translate(0 0)"/>
      </g>
    </g>
    <g id="グループ_7" data-name="グループ 7" transform="translate(-164 393)">
      <circle id="楕円形_3" data-name="楕円形 3" class="cls-4" cx="26" cy="26" r="26" transform="translate(1214 615)"/>
      <circle id="楕円形_2" data-name="楕円形 2" class="cls-5" cx="4" cy="4" r="4" transform="translate(1236 637)"/>
    </g>
    <text id="Takachiho_Miyazaki" data-name="Takachiho
Miyazaki" class="cls-6" transform="translate(1133 1160)"><tspan x="0" y="0">Takachiho</tspan><tspan x="0" y="22">Miyazaki</tspan></text>
  </g>
</svg>
