<svg width="10" height="10" viewBox="0 0 10 10" fill="none" xmlns="http://www.w3.org/2000/svg">
<path d="M7.82354 2.23698L5.89965 4.1179C5.79282 4.22192 5.6133 4.14557 5.61568 3.99584L5.64656 1.32892C5.64945 1.13598 5.50592 0.959965 5.31361 0.949705C5.11126 0.939009 4.94409 1.09784 4.94215 1.29758L4.91055 3.98719C4.90863 4.13583 4.72827 4.20857 4.62382 4.10283L2.75251 2.18787C2.64403 2.07659 2.47464 2.03647 2.33732 2.10709C2.1117 2.22318 2.07804 2.5065 2.24036 2.67135L4.12064 4.59524C4.22463 4.70206 4.14826 4.88163 3.99856 4.87927L1.32051 4.84903C1.16557 4.847 1.01689 4.93833 0.969131 5.08664C0.89184 5.32841 1.06882 5.55187 1.29908 5.554L3.98824 5.58514C4.13686 5.58703 4.20956 5.76742 4.10382 5.8719L2.17993 7.75283C2.04032 7.88889 2.03829 8.11286 2.17477 8.25139C2.31079 8.391 2.53472 8.39299 2.67324 8.25646L4.59667 6.37661C4.7035 6.27259 4.88302 6.34895 4.88064 6.49867L4.84992 9.16822C4.84809 9.35267 4.97802 9.52162 5.16095 9.54194C5.32319 9.55985 5.46708 9.46776 5.52597 9.3293C5.54346 9.28819 5.55383 9.24278 5.55355 9.1954L5.58515 6.50579C5.58707 6.35715 5.76743 6.2844 5.87188 6.39014L7.7404 8.30264C7.86296 8.42886 8.06335 8.45916 8.2066 8.35658C8.26313 8.31675 8.30358 8.26369 8.32796 8.20636C8.38226 8.07872 8.35762 7.92645 8.25534 7.82162L6.37505 5.89774C6.27107 5.79091 6.34744 5.61135 6.49714 5.6137L9.1863 5.64484C9.33384 5.64627 9.46107 5.55732 9.5149 5.43076C9.53285 5.38857 9.54214 5.3427 9.5434 5.29469C9.54488 5.09604 9.36901 4.94204 9.17193 4.93997C8.64598 4.93343 7.21104 4.91711 6.50546 4.90954C6.35684 4.90764 6.2846 4.72618 6.39142 4.62216L8.31531 2.74123C8.3501 2.70748 8.37561 2.66852 8.3931 2.62741C8.44739 2.49976 8.42276 2.34749 8.32047 2.24267C8.18553 2.10352 7.96315 2.10091 7.82354 2.23698Z" fill="#E9400B"/>
</svg>
