<svg width="16" height="13" viewBox="0 0 16 13" fill="none" xmlns="http://www.w3.org/2000/svg">
<path d="M15.636 3.01133L13.9502 0.380859C13.7996 0.144727 13.5321 0 13.2463 0H2.75284C2.46713 0 2.19959 0.144727 2.04894 0.380859L0.36323 3.01133C-0.405601 4.20977 0.10349 5.81953 1.35024 6.33242V12.1062C1.35024 12.5988 1.72167 13 2.18141 13H13.8178C14.2775 13 14.6489 12.5988 14.6489 12.1062V6.33242C15.8957 5.81953 16.4048 4.20977 15.636 3.01133ZM13.4022 11.7812H2.597V9.34375H13.4022V11.7812ZM13.397 8.11992H2.597V6.47715C3.22037 6.39336 3.76842 6.09121 4.16323 5.65957C4.63076 6.16992 5.31388 6.5 6.08011 6.5C6.84894 6.5 7.52946 6.16992 7.997 5.65957C8.46453 6.16992 9.14765 6.5 9.91388 6.5C10.6827 6.5 11.3632 6.16992 11.8308 5.65957C12.2282 6.09121 12.7736 6.39336 13.397 6.47715V8.11992ZM14.6412 4.74297C14.558 4.91563 14.358 5.21523 13.9399 5.27109C13.8775 5.27871 13.8152 5.28379 13.7528 5.28379C13.371 5.28379 13.0204 5.12891 12.7632 4.84707L11.836 3.83398L10.9087 4.84453C10.6515 5.12637 10.2983 5.28125 9.91907 5.28125C9.53985 5.28125 9.18661 5.12637 8.92946 4.84453L7.99959 3.83398L7.07232 4.84453C6.81518 5.12637 6.46193 5.28125 6.08271 5.28125C5.70089 5.28125 5.35024 5.12637 5.0931 4.84453L4.16323 3.83398L3.23596 4.84453C2.97881 5.12637 2.62557 5.28125 2.24635 5.28125C2.18141 5.28125 2.11907 5.27617 2.05933 5.26855C1.64375 5.2127 1.44115 4.91563 1.35804 4.74043C1.22817 4.46621 1.17362 4.03965 1.41778 3.65879L2.98141 1.21875H13.0152L14.5788 3.65879C14.8256 4.04219 14.7736 4.46875 14.6412 4.74297Z" fill="white"/>
</svg>
