<svg width="16" height="13" viewBox="0 0 16 13" fill="none" xmlns="http://www.w3.org/2000/svg">
<path d="M15.215 3.28111L15.2151 3.28131C15.8214 4.22635 15.4069 5.47996 14.4587 5.87002L14.1489 5.99746V6.33242V12.1062C14.1489 12.3582 13.9672 12.5 13.8178 12.5H2.18141C2.032 12.5 1.85024 12.3582 1.85024 12.1062V6.33242V5.99746L1.54047 5.87002C0.592291 5.47996 0.177805 4.22635 0.784074 3.28131L0.784205 3.28111L2.46992 0.650638L2.47047 0.649784C2.52704 0.561113 2.63366 0.5 2.75284 0.5H13.2463C13.3655 0.5 13.4722 0.561113 13.5287 0.649784L13.5293 0.650638L15.215 3.28111ZM13.4022 12.2812H13.9022V11.7812V9.34375V8.84375H13.4022H2.597H2.097V9.34375V11.7812V12.2812H2.597H13.4022ZM13.397 8.61992H13.897V8.11992V6.47715V6.03986L13.4636 5.98161C12.961 5.91405 12.5206 5.67061 12.1986 5.32091L11.8298 4.92038L11.4621 5.32182C11.0849 5.73357 10.5361 6 9.91388 6C9.29394 6 8.74269 5.73336 8.36568 5.32182L7.997 4.91937L7.62831 5.32182C7.25111 5.73357 6.70238 6 6.08011 6C5.46017 6 4.90893 5.73337 4.53191 5.32182L4.16294 4.91906L3.79428 5.32211C3.47607 5.67002 3.03389 5.91393 2.53039 5.98161L2.097 6.03986V6.47715V8.11992V8.61992H2.597H13.397ZM14.0005 5.7674L14.0005 5.76743L14.0061 5.76669C14.6683 5.67823 14.9774 5.19717 15.0917 4.95985C15.2808 4.5679 15.3613 3.95113 14.9996 3.38871C14.9995 3.38854 14.9994 3.38836 14.9993 3.38819L13.4362 0.948977L13.2886 0.71875H13.0152H2.98141H2.70797L2.56043 0.948977L0.996844 3.38894C0.996828 3.38897 0.996813 3.38899 0.996798 3.38902C0.636146 3.95166 0.723268 4.56828 0.906152 4.95444L0.906296 4.95475C1.02294 5.20061 1.33578 5.6758 1.99273 5.7641L1.99273 5.76411L1.9961 5.76454C2.07136 5.77414 2.15541 5.78125 2.24635 5.78125C2.76544 5.78125 3.2527 5.56773 3.60485 5.18205C3.60501 5.18188 3.60516 5.18171 3.60532 5.18153L4.16374 4.57296L4.72374 5.18153C4.724 5.18182 4.72426 5.18211 4.72452 5.18239C5.07629 5.56747 5.56065 5.78125 6.08271 5.78125C6.60176 5.78125 7.08898 5.56776 7.44112 5.18215C7.44131 5.18194 7.4415 5.18174 7.44168 5.18153L8.00011 4.57296L8.5601 5.18153C8.56034 5.1818 8.56058 5.18206 8.56082 5.18232C8.91295 5.56783 9.4001 5.78125 9.91907 5.78125C10.4382 5.78125 10.9255 5.56769 11.2777 5.18195C11.2778 5.18181 11.2779 5.18167 11.278 5.18153L11.8355 4.57403L12.3939 5.18407C12.3939 5.18413 12.394 5.18419 12.394 5.18425C12.7459 5.56976 13.2305 5.78379 13.7528 5.78379C13.8418 5.78379 13.9255 5.77657 14.0005 5.7674Z" fill="white" stroke="#E9400B"/>
</svg>
