<svg xmlns="http://www.w3.org/2000/svg" viewBox="0 0 50 50"><g style="isolation:isolate"><g opacity="0.75" style="mix-blend-mode:multiply"><path d="M16.33,17.06" fill="#221714"/></g><path d="M13.38,14.12" fill="#dc4114"/><path d="M25,50A25,25,0,1,1,50,25,25,25,0,0,1,25,50ZM25,3.61A21.39,21.39,0,1,0,46.39,25,21.42,21.42,0,0,0,25,3.61Z" fill="#dc4114"/><g opacity="0.75" style="mix-blend-mode:multiply"><path d="M16.32,17.06" fill="#221714"/></g><path d="M13.38,14.12" fill="#dc4114"/><path d="M10.67,25.83V10.67h7.12l-4.41,4.41V28.54Zm4.41,10.79H28.54l-2.71,2.71H10.67V32.21Zm21.54-1.7V21.46l2.71,2.71V39.33H32.21Zm-1.7-21.54H21.46l2.71-2.71H39.33v7.12Z" fill="#dc4114"/><path d="M14.28,15.46,25,4.74l5,5H23.8l-9.52,9.51ZM9.77,26.2l9.51,9.52H15.46L4.74,25l5-5Zm16.43,14,9.52-9.51v3.82L25,45.26l-5-5Zm14-16.43-9.51-9.52h3.82L45.26,25l-5,5Z" fill="#dc4114"/><path d="M33.09,23H28.34v.72a.45.45,0,0,0,.46.52,8.27,8.27,0,0,0,2,0c.5-.07.74-.16,1-1,.1-.34.36-.34.38.05,0,.58.09.63.31.71.78.26.87,1.43-.44,1.69a17.5,17.5,0,0,1-3.4.15c.48.3,1.08.7,1.54,1.06s.59.81-.15,1a1.27,1.27,0,0,0-.76.52,12.78,12.78,0,0,1-1.6,1.45,23.4,23.4,0,0,0,5.54.24c.35,0,.27.32,0,.41a2.41,2.41,0,0,0-1.09,2c0,.25-.13.32-.39.3a14.8,14.8,0,0,1-6-1.8,20.29,20.29,0,0,1-8.56,1.84c-.31,0-.33-.3-.05-.35a22.66,22.66,0,0,0,7.07-2.7,9.76,9.76,0,0,1-1.56-2,13.07,13.07,0,0,1-4.36,2c-.34.07-.47-.15-.15-.36a13.32,13.32,0,0,0,3.86-4,9.36,9.36,0,0,1-4.7,1.3c-.31,0-.31-.28-.09-.37,2.21-.82,3.77-1.93,4.18-3.38H19.41a8.24,8.24,0,0,0-1.86.15A.28.28,0,0,1,17.2,23a2.77,2.77,0,0,1-.21-.54c0-.2,0-.22.21-.16a9.47,9.47,0,0,0,2.21.24h4.25c0-.45,0-1,0-1.45H21.25a8.24,8.24,0,0,0-1.86.15.29.29,0,0,1-.35-.17,2.77,2.77,0,0,1-.21-.54c0-.2,0-.22.21-.17a9,9,0,0,0,2.21.25h2.43c0-.32,0-.56-.06-.73-.13-.65-.18-.61.26-.57.95.09,1.71.16,2.6.27v-.14c0-.21,0-.58,0-.75H23.21a3.8,3.8,0,0,1,0,.52c0,.56-.52.65-1.22.71s-1.1,0-1.06-.58c0-.24,0-.46,0-.65H19.48a8.35,8.35,0,0,0-1.86.15.29.29,0,0,1-.35-.17,2.9,2.9,0,0,1-.2-.55c-.06-.21,0-.22.2-.17a9,9,0,0,0,2.21.24H21a8.2,8.2,0,0,0-.09-1.26c0-.37-.2-.52.13-.48.82.09,1.78.2,2.54.33.49.07.52.45,0,.63-.22.08-.35.09-.37.35a3.39,3.39,0,0,0,0,.43h3.33a7.32,7.32,0,0,0-.1-1.26c0-.37-.2-.52.13-.48.82.09,1.79.2,2.55.33.48.07.52.45,0,.63-.22.08-.35.09-.37.35a3.39,3.39,0,0,0,0,.43h1A.4.4,0,0,0,30.1,18l1-1.13c.14-.15.21-.13.4,0a20.11,20.11,0,0,1,1.65,1.38c.13.11.26.42-.17.42H28.75c0,.13,0,.26,0,.43,0,.56-.49.65-1.19.71a5,5,0,0,1-.93-.1c.11.17.09.37-.11.43s-.47.13-.45.45h2a.54.54,0,0,0,.39-.17c.33-.34.65-.63.94-.93.13-.13.23-.11.39,0,.47.32,1,.65,1.68,1.15.24.19.18.43-.17.43H26.07v1.45h3.61a.57.57,0,0,0,.39-.17l1-1c.13-.13.22-.11.39,0,.46.31,1.15.74,1.8,1.24C33.5,22.78,33.44,23,33.09,23Zm-5.62,2.8c-.95-.09-1.3-.52-1.3-1.31V23H23.94a4.4,4.4,0,0,1-1.17,1.78c.8.19,1.45.41,2.34.6.57.13.59.61-.1.68a1,1,0,0,0-.72.32l-.26.26h2.66a.54.54,0,0,0,.48-.19c.11-.11.43-.42.61-.61Zm-4,1.34c-.14.13-.31.26-.48.39a9.12,9.12,0,0,0,2.23,1.54A7.34,7.34,0,0,0,27,27.16Z" fill="#dc4114"/></g></svg>