<?xml version="1.0" encoding="utf-8"?>
<!-- Generator: Adobe Illustrator 25.2.1, SVG Export Plug-In . SVG Version: 6.00 Build 0)  -->
<svg version="1.1" id="レイヤー_1" xmlns="http://www.w3.org/2000/svg" xmlns:xlink="http://www.w3.org/1999/xlink" x="0px"
	 y="0px" viewBox="0 0 190.1 22.6" style="enable-background:new 0 0 190.1 22.6;" xml:space="preserve">
<style type="text/css">
	.st0{fill:#2D2D2D;}
</style>
<path class="st0" d="M22.4,3.4h-5.6c0.1,0.9-0.7,1-2,1.1c-0.3,0-0.6,0-0.9,0c0.3,0.2,0.1,0.6-0.3,0.8s-0.4,0.2-0.5,0.4h2.3
	c0.2,0,0.3-0.1,0.5-0.2c0.5-0.4,1.1-0.9,1.6-1.3c0.2-0.2,0.5-0.2,0.7,0c0.9,0.5,1.7,1.1,2.5,1.7c0.2,0.1,0.3,0.3,0.2,0.5
	c-0.1,0.2-0.2,0.3-0.4,0.2H13c0,0.6,0,1.2,0,1.8h3.9c0.2,0,0.4-0.1,0.5-0.2c0.5-0.4,1.1-0.9,1.7-1.3c0.2-0.2,0.5-0.2,0.6,0
	c1,0.5,1.9,1.1,2.8,1.7c0.2,0.1,0.2,0.3,0.1,0.5c-0.1,0.1-0.2,0.2-0.4,0.2H21c0.1,0.5,0.2,0.5,0.5,0.6c1.2,0.4,1.2,2.5-0.7,2.9
	c-1.4,0.2-2.9,0.3-4.4,0.2c0.7,0.3,1.8,1,2.6,1.4s0.7,1.2-0.1,1.4c-0.4,0.1-0.8,0.3-1.1,0.7c-0.6,0.6-1.2,1.2-1.9,1.7
	c2.2,0.2,4.5,0.2,6.7,0c0.5,0,0.5,0.5,0.1,0.7c-0.9,0.5-1.4,1.5-1.6,3.1c0,0.3-0.2,0.5-0.5,0.5c0,0-0.1,0-0.1,0
	c-2.9-0.1-5.7-0.8-8.3-1.9c-3.2,1.4-7,1.8-11.8,2c-0.5,0-0.5-0.5-0.1-0.6c3.2-0.8,6.2-1.9,9.1-3.5c-0.7-0.7-1.3-1.5-1.8-2.3
	c-1.7,1.1-3.5,1.9-5.5,2.2c-0.4,0.1-0.6-0.3-0.3-0.5c1.7-1.3,3.1-2.9,4.4-4.6c-1.8,0.6-3.6,0.9-5.5,0.9c-0.4,0-0.4-0.4-0.1-0.6
	c2.6-1.1,4.6-2.6,5.4-4.4H3.6c-0.8,0-1.7,0-2.5,0.2c-0.2,0.1-0.4,0-0.5-0.2C0.4,8.9,0.3,8.6,0.2,8.3C0.1,8,0.2,8,0.5,8.1
	c1,0.2,2,0.3,3,0.3H9c0-0.6,0.1-1.2,0-1.8H5.8c-0.8,0-1.7,0-2.5,0.2c-0.2,0.1-0.4,0-0.5-0.2C2.6,6.2,2.5,5.9,2.4,5.6
	c-0.1-0.3,0-0.3,0.3-0.2c1,0.2,2,0.3,3,0.3h3.3c0-0.4,0-0.9-0.2-1.3C8.4,4.6,7.8,4.7,7.2,4.7C6,4.7,5.4,4.6,5.4,3.9
	c0-0.2,0-0.3,0-0.5H3.6c-0.8,0-1.7,0-2.5,0.2c-0.2,0.1-0.4,0-0.5-0.2C0.5,3,0.4,2.7,0.3,2.3C0.2,2.1,0.3,2,0.6,2.1
	c1,0.2,2,0.3,3,0.3h1.9c0-0.6,0-1.2-0.1-1.8C5.3,0.2,5.1,0,5.5,0c1.3,0.1,3,0.2,4.2,0.4c0.7,0.1,0.7,0.7,0,1
	C9.5,1.5,9.3,1.5,9.3,1.8s0,0.4,0,0.7H13c0-0.6,0-1.2-0.1-1.8C12.8,0.2,12.6,0,13.1,0c1.3,0.1,3,0.2,4.2,0.4c0.7,0.1,0.7,0.7,0,0.9
	c-0.3,0.1-0.5,0.1-0.5,0.5s0,0.4,0,0.7h0.8c0.2,0,0.4-0.1,0.5-0.2c0.5-0.5,1-1,1.5-1.5c0.2-0.1,0.4-0.1,0.6,0
	c0.9,0.6,1.7,1.2,2.5,1.9C22.9,2.9,23,3.4,22.4,3.4z M9.2,14.9c-0.2,0.2-0.5,0.4-0.7,0.6c0.9,0.7,1.9,1.3,2.9,1.7
	c0.9-0.6,1.7-1.4,2.3-2.3H9.2z M14.4,12.9c-1.1,0-1.9-0.9-1.9-1.9c0,0,0-0.1,0-0.1V9.2h-2.1C10,10.2,9.4,11,8.7,11.7
	c1,0.1,2,0.2,3,0.4c0.7,0.1,0.7,0.8-0.1,0.9c-0.4,0.1-0.7,0.1-1,0.3s-0.4,0.4-0.5,0.6h3.3c0.2,0,0.5-0.1,0.7-0.2
	c0.4-0.2,0.9-0.6,1.4-0.8L14.4,12.9z M13,3.4H9.3c0,0.2,0.1,0.5,0,0.6c1.3,0.1,2.7,0.2,4,0.4C13,4.2,12.9,3.9,13,3.4z M16.2,9.2v0.4
	c0,0.3,0.2,0.6,0.5,0.6c0,0,0,0,0.1,0c0.8,0.1,1.7,0.1,2.5,0c0.6-0.1,0.8-0.3,1.1-1L16.2,9.2z"/>
<path class="st0" d="M49.6,3.9c-0.5,0.3-0.6,0.4-0.6,1C48.9,7.1,48.8,15.7,49,21c0,1.1-0.6,1.3-2.1,1.4s-2.2,0-2.1-1
	c0-0.4,0-0.9,0-1.3H33.9c0,0.4,0,0.7,0,1.1c0,0.9-0.5,1.3-2.2,1.4c-1.5,0-2.2,0-2.1-1c0.2-6,0.4-18.6,0-19.9c-0.2-1-0.2-1.1,0.4-0.9
	c1.2,0.4,4.2,1.6,4.2,1.6H44c0.2,0,0.4,0,0.6-0.2c0.6-0.5,1.2-1,1.7-1.5c0.2-0.2,0.5-0.2,0.8,0C48,1.4,48.8,2,49.6,2.7
	C50.1,3,50.2,3.5,49.6,3.9z M37.3,3.3h-3.4c0,1.7-0.1,4-0.1,6.6h3.5C37.4,7.6,37.3,5.3,37.3,3.3z M33.9,10.9c0,2.8,0,5.6,0.1,8.3
	h3.4c0.1-2.6,0.1-5.5,0.1-8.3L33.9,10.9z M44.9,3.3h-3.5c0,1.9,0,4.2-0.1,6.6h3.6C44.9,7.4,44.9,5,44.9,3.3L44.9,3.3z M41.3,10.9
	c0,2.8,0,5.7,0,8.3h3.5c0-2.6,0-5.6,0.1-8.3L41.3,10.9z"/>
<path class="st0" d="M76.2,17.8c-3-1.9-7.5-6.9-10.3-10.4c-0.5-0.7-1.5-0.9-2.2-0.4c-0.2,0.2-0.4,0.4-0.5,0.6
	c-1.1,1.8-2.1,3.5-3.2,5.5c-0.6,1-0.5,1.5-1,1.7c-1.5,0.6-4-1.5-3.7-4.1c0-0.5,0.2-0.5,0.5-0.2c0.5,0.6,1.3,0.2,2.1-0.5
	c1.7-1.5,2.8-2.7,4.3-4.2s3.2-1.4,4.8-0.1c2.6,2.4,5.5,4.4,8.6,6.2c1,0.4,2,1,3,1.5C82.2,16.1,79.2,19.6,76.2,17.8z M73,7.5
	c-0.5-1.1-1.3-2-2.2-2.7c-0.4-0.3-0.3-0.4,0.1-0.4c1.4-0.1,2.8,0.5,3.7,1.6C75.8,8,73.6,8.9,73,7.5z M75.1,5.4
	c-0.7-0.9-1.6-1.7-2.6-2.2c-0.5-0.2-0.5-0.3,0-0.4c1.4-0.4,2.9,0,4,1C78,5.4,76.1,6.9,75.1,5.4z"/>
<path class="st0" d="M89.3,12.9c-1.4,0.1-1.2,0.6-2.1,0.6c-1.8,0-3.2-3.4-2.3-5.5c0.2-0.6,0.4-0.6,0.7-0.1C86,8.8,87.2,9,88.7,9
	c6,0,8.1-0.1,14.8-0.2c4-0.1,2.8,3.8,0.4,3.9C100.3,12.8,100,12.5,89.3,12.9z"/>
<path class="st0" d="M133.5,9.8c-0.7,3.9-0.9,10.5-4.7,11.6c-1.8,0.5-3.1,0.4-3.2-1.1c0-1.6-0.6-2-2.7-3.8c-0.3-0.3-0.2-0.4,0.2-0.3
	c1.2,0.4,2.5,0.7,3.7,0.9c0.5,0.2,1-0.1,1.2-0.6c0.9-2.9,1.5-6,1.7-9.1c0-0.5,0-0.6-0.6-0.5c-1,0.2-2.7,0.4-4.4,0.7
	c-1.9,7.2-4.7,11.3-12.1,14.1c-0.6,0.2-0.8,0.2-0.2-0.2c4.2-3.3,7.1-7.9,8.2-13.1l-2.2,0.4c-1.1,0.2-1.7,0.9-2.1,0.9
	c-1.3-0.1-2.8-2.5-2.3-4.2c0.2-0.5,0.2-0.5,0.4-0.2c0.6,1,1.7,1.2,3.2,1.1l3.4-0.3c0.2-1,0.3-2.1,0.4-3.2c0.1-1.4-0.2-1.9-1.2-2.2
	c-0.6-0.2-0.7-0.3-0.1-0.6c2.5-1.2,6.5,0.7,6.3,1.9c-0.1,0.6-0.7,0.5-1,1.8c-0.1,0.6-0.3,1.3-0.5,2c1.2-0.1,2.4-0.2,3.5-0.3
	c0.8-0.1,0.9-0.7,1.7-0.7c1.2,0,4.1,2.1,3.9,3.1C134.3,8.8,133.7,8.6,133.5,9.8z"/>
<path class="st0" d="M148.5,4.7c-0.1,5.1,0,7,0,7.9c-0.1,3-4.1,2.9-4.1-0.2c0-0.8,0.1-1.8,0.1-2.8s0-3.4,0-5.3c0-1-0.1-1.8-0.9-1.9
	c-0.5-0.1-0.5-0.3-0.1-0.5c1.6-0.8,5.1,0,5.5,1.2C149.2,3.8,148.5,3.9,148.5,4.7z M158.6,4.5c-0.1,2-0.1,4.2-0.1,5.9
	c0,6.3-2.9,10-12.1,12c-0.7,0.1-0.7,0-0.1-0.3c5.7-3.1,8.1-6.8,8.1-11.9c0-1.8,0-3.8,0-6.1c0-1.3-0.1-2.1-1.2-2.4
	c-0.5-0.1-0.5-0.4-0.1-0.6c2-0.9,5.7,0.5,6,1.6C159.4,3.4,158.6,3.4,158.6,4.5z"/>
<path class="st0" d="M173.3,12.9c-1.4,0.1-1.2,0.6-2.1,0.6c-1.8,0-3.2-3.4-2.3-5.5c0.2-0.6,0.4-0.6,0.7-0.1c0.4,0.9,1.6,1.1,3.1,1.1
	c6,0,8.1-0.1,14.8-0.2c4-0.1,2.8,3.8,0.4,3.9C184.4,12.8,184,12.5,173.3,12.9z"/>
</svg>
